%TF.GenerationSoftware,KiCad,Pcbnew,5.1.10-88a1d61d58~90~ubuntu21.04.1*%
%TF.CreationDate,2021-10-05T18:42:24+09:00*%
%TF.ProjectId,syncricket,73796e63-7269-4636-9b65-742e6b696361,rev?*%
%TF.SameCoordinates,Original*%
%TF.FileFunction,Soldermask,Top*%
%TF.FilePolarity,Negative*%
%FSLAX46Y46*%
G04 Gerber Fmt 4.6, Leading zero omitted, Abs format (unit mm)*
G04 Created by KiCad (PCBNEW 5.1.10-88a1d61d58~90~ubuntu21.04.1) date 2021-10-05 18:42:24*
%MOMM*%
%LPD*%
G01*
G04 APERTURE LIST*
%ADD10O,1.000000X2.000000*%
%ADD11R,0.900000X1.150000*%
%ADD12R,0.800000X1.150000*%
%ADD13R,0.700000X1.150000*%
%ADD14O,1.300000X0.800000*%
%ADD15R,1.060000X0.650000*%
%ADD16R,3.400000X1.300000*%
%ADD17C,2.200000*%
%ADD18O,2.000000X2.000000*%
%ADD19R,2.000000X2.000000*%
%ADD20O,1.400000X1.400000*%
%ADD21C,1.400000*%
%ADD22R,0.800000X0.900000*%
%ADD23O,1.700000X1.700000*%
%ADD24R,1.700000X1.700000*%
%ADD25C,1.600000*%
%ADD26R,1.960000X1.960000*%
%ADD27C,1.960000*%
%ADD28C,3.200000*%
%ADD29R,1.524000X1.524000*%
%ADD30C,1.524000*%
%ADD31R,1.300000X1.300000*%
%ADD32O,1.400000X1.300000*%
%ADD33R,1.400000X1.300000*%
%ADD34C,2.000000*%
%ADD35R,2.000000X1.200000*%
%ADD36R,1.200000X2.000000*%
%ADD37C,4.000000*%
%ADD38O,1.300000X1.400000*%
%ADD39R,1.600000X1.600000*%
%ADD40O,1.600000X1.600000*%
G04 APERTURE END LIST*
D10*
%TO.C,J4*%
X138890000Y27828500D03*
X130250000Y27828500D03*
X138890000Y31628500D03*
X130250000Y31628500D03*
D11*
X137320000Y31633500D03*
X131820000Y31633500D03*
D12*
X136090000Y31633500D03*
X133050000Y31633500D03*
D13*
X134070000Y31633500D03*
X135070000Y31633500D03*
%TD*%
%TO.C,C12*%
G36*
G01*
X142169000Y48892500D02*
X142169000Y49367500D01*
G75*
G02*
X142406500Y49605000I237500J0D01*
G01*
X143006500Y49605000D01*
G75*
G02*
X143244000Y49367500I0J-237500D01*
G01*
X143244000Y48892500D01*
G75*
G02*
X143006500Y48655000I-237500J0D01*
G01*
X142406500Y48655000D01*
G75*
G02*
X142169000Y48892500I0J237500D01*
G01*
G37*
G36*
G01*
X140444000Y48892500D02*
X140444000Y49367500D01*
G75*
G02*
X140681500Y49605000I237500J0D01*
G01*
X141281500Y49605000D01*
G75*
G02*
X141519000Y49367500I0J-237500D01*
G01*
X141519000Y48892500D01*
G75*
G02*
X141281500Y48655000I-237500J0D01*
G01*
X140681500Y48655000D01*
G75*
G02*
X140444000Y48892500I0J237500D01*
G01*
G37*
%TD*%
D14*
%TO.C,J6*%
X125191760Y33102280D03*
G36*
G01*
X124741760Y34752280D02*
X125641760Y34752280D01*
G75*
G02*
X125841760Y34552280I0J-200000D01*
G01*
X125841760Y34152280D01*
G75*
G02*
X125641760Y33952280I-200000J0D01*
G01*
X124741760Y33952280D01*
G75*
G02*
X124541760Y34152280I0J200000D01*
G01*
X124541760Y34552280D01*
G75*
G02*
X124741760Y34752280I200000J0D01*
G01*
G37*
%TD*%
%TO.C,L2*%
G36*
G01*
X143543420Y30226020D02*
X142293420Y30226020D01*
G75*
G02*
X142043420Y30476020I0J250000D01*
G01*
X142043420Y31401020D01*
G75*
G02*
X142293420Y31651020I250000J0D01*
G01*
X143543420Y31651020D01*
G75*
G02*
X143793420Y31401020I0J-250000D01*
G01*
X143793420Y30476020D01*
G75*
G02*
X143543420Y30226020I-250000J0D01*
G01*
G37*
G36*
G01*
X143543420Y27251020D02*
X142293420Y27251020D01*
G75*
G02*
X142043420Y27501020I0J250000D01*
G01*
X142043420Y28426020D01*
G75*
G02*
X142293420Y28676020I250000J0D01*
G01*
X143543420Y28676020D01*
G75*
G02*
X143793420Y28426020I0J-250000D01*
G01*
X143793420Y27501020D01*
G75*
G02*
X143543420Y27251020I-250000J0D01*
G01*
G37*
%TD*%
%TO.C,L1*%
G36*
G01*
X143576700Y50901280D02*
X143576700Y52601280D01*
G75*
G02*
X143826700Y52851280I250000J0D01*
G01*
X144751700Y52851280D01*
G75*
G02*
X145001700Y52601280I0J-250000D01*
G01*
X145001700Y50901280D01*
G75*
G02*
X144751700Y50651280I-250000J0D01*
G01*
X143826700Y50651280D01*
G75*
G02*
X143576700Y50901280I0J250000D01*
G01*
G37*
G36*
G01*
X141251700Y50901280D02*
X141251700Y52601280D01*
G75*
G02*
X141501700Y52851280I250000J0D01*
G01*
X142426700Y52851280D01*
G75*
G02*
X142676700Y52601280I0J-250000D01*
G01*
X142676700Y50901280D01*
G75*
G02*
X142426700Y50651280I-250000J0D01*
G01*
X141501700Y50651280D01*
G75*
G02*
X141251700Y50901280I0J250000D01*
G01*
G37*
%TD*%
%TO.C,C11*%
G36*
G01*
X152890400Y54843120D02*
X153200400Y54843120D01*
G75*
G02*
X153355400Y54688120I0J-155000D01*
G01*
X153355400Y54263120D01*
G75*
G02*
X153200400Y54108120I-155000J0D01*
G01*
X152890400Y54108120D01*
G75*
G02*
X152735400Y54263120I0J155000D01*
G01*
X152735400Y54688120D01*
G75*
G02*
X152890400Y54843120I155000J0D01*
G01*
G37*
G36*
G01*
X152890400Y55978120D02*
X153200400Y55978120D01*
G75*
G02*
X153355400Y55823120I0J-155000D01*
G01*
X153355400Y55398120D01*
G75*
G02*
X153200400Y55243120I-155000J0D01*
G01*
X152890400Y55243120D01*
G75*
G02*
X152735400Y55398120I0J155000D01*
G01*
X152735400Y55823120D01*
G75*
G02*
X152890400Y55978120I155000J0D01*
G01*
G37*
%TD*%
%TO.C,C3*%
G36*
G01*
X146530118Y49370460D02*
X148730122Y49370460D01*
G75*
G02*
X148980120Y49120462I0J-249998D01*
G01*
X148980120Y48295458D01*
G75*
G02*
X148730122Y48045460I-249998J0D01*
G01*
X146530118Y48045460D01*
G75*
G02*
X146280120Y48295458I0J249998D01*
G01*
X146280120Y49120462D01*
G75*
G02*
X146530118Y49370460I249998J0D01*
G01*
G37*
G36*
G01*
X146530118Y52495460D02*
X148730122Y52495460D01*
G75*
G02*
X148980120Y52245462I0J-249998D01*
G01*
X148980120Y51420458D01*
G75*
G02*
X148730122Y51170460I-249998J0D01*
G01*
X146530118Y51170460D01*
G75*
G02*
X146280120Y51420458I0J249998D01*
G01*
X146280120Y52245462D01*
G75*
G02*
X146530118Y52495460I249998J0D01*
G01*
G37*
%TD*%
%TO.C,R6*%
G36*
G01*
X164280520Y41979880D02*
X164280520Y41659880D01*
G75*
G02*
X164120520Y41499880I-160000J0D01*
G01*
X163725520Y41499880D01*
G75*
G02*
X163565520Y41659880I0J160000D01*
G01*
X163565520Y41979880D01*
G75*
G02*
X163725520Y42139880I160000J0D01*
G01*
X164120520Y42139880D01*
G75*
G02*
X164280520Y41979880I0J-160000D01*
G01*
G37*
G36*
G01*
X165475520Y41979880D02*
X165475520Y41659880D01*
G75*
G02*
X165315520Y41499880I-160000J0D01*
G01*
X164920520Y41499880D01*
G75*
G02*
X164760520Y41659880I0J160000D01*
G01*
X164760520Y41979880D01*
G75*
G02*
X164920520Y42139880I160000J0D01*
G01*
X165315520Y42139880D01*
G75*
G02*
X165475520Y41979880I0J-160000D01*
G01*
G37*
%TD*%
D15*
%TO.C,U6*%
X166515200Y38233440D03*
X166515200Y36333440D03*
X164315200Y36333440D03*
X164315200Y37283440D03*
X164315200Y38233440D03*
%TD*%
%TO.C,R13*%
G36*
G01*
X168604160Y38735500D02*
X169079160Y38735500D01*
G75*
G02*
X169316660Y38498000I0J-237500D01*
G01*
X169316660Y37998000D01*
G75*
G02*
X169079160Y37760500I-237500J0D01*
G01*
X168604160Y37760500D01*
G75*
G02*
X168366660Y37998000I0J237500D01*
G01*
X168366660Y38498000D01*
G75*
G02*
X168604160Y38735500I237500J0D01*
G01*
G37*
G36*
G01*
X168604160Y40560500D02*
X169079160Y40560500D01*
G75*
G02*
X169316660Y40323000I0J-237500D01*
G01*
X169316660Y39823000D01*
G75*
G02*
X169079160Y39585500I-237500J0D01*
G01*
X168604160Y39585500D01*
G75*
G02*
X168366660Y39823000I0J237500D01*
G01*
X168366660Y40323000D01*
G75*
G02*
X168604160Y40560500I237500J0D01*
G01*
G37*
%TD*%
%TO.C,R12*%
G36*
G01*
X172269840Y35128260D02*
X172269840Y34653260D01*
G75*
G02*
X172032340Y34415760I-237500J0D01*
G01*
X171532340Y34415760D01*
G75*
G02*
X171294840Y34653260I0J237500D01*
G01*
X171294840Y35128260D01*
G75*
G02*
X171532340Y35365760I237500J0D01*
G01*
X172032340Y35365760D01*
G75*
G02*
X172269840Y35128260I0J-237500D01*
G01*
G37*
G36*
G01*
X174094840Y35128260D02*
X174094840Y34653260D01*
G75*
G02*
X173857340Y34415760I-237500J0D01*
G01*
X173357340Y34415760D01*
G75*
G02*
X173119840Y34653260I0J237500D01*
G01*
X173119840Y35128260D01*
G75*
G02*
X173357340Y35365760I237500J0D01*
G01*
X173857340Y35365760D01*
G75*
G02*
X174094840Y35128260I0J-237500D01*
G01*
G37*
%TD*%
%TO.C,R11*%
G36*
G01*
X171525140Y36925320D02*
X171525140Y37245320D01*
G75*
G02*
X171685140Y37405320I160000J0D01*
G01*
X172080140Y37405320D01*
G75*
G02*
X172240140Y37245320I0J-160000D01*
G01*
X172240140Y36925320D01*
G75*
G02*
X172080140Y36765320I-160000J0D01*
G01*
X171685140Y36765320D01*
G75*
G02*
X171525140Y36925320I0J160000D01*
G01*
G37*
G36*
G01*
X170330140Y36925320D02*
X170330140Y37245320D01*
G75*
G02*
X170490140Y37405320I160000J0D01*
G01*
X170885140Y37405320D01*
G75*
G02*
X171045140Y37245320I0J-160000D01*
G01*
X171045140Y36925320D01*
G75*
G02*
X170885140Y36765320I-160000J0D01*
G01*
X170490140Y36765320D01*
G75*
G02*
X170330140Y36925320I0J160000D01*
G01*
G37*
%TD*%
%TO.C,R10*%
G36*
G01*
X169944040Y33444260D02*
X170264040Y33444260D01*
G75*
G02*
X170424040Y33284260I0J-160000D01*
G01*
X170424040Y32889260D01*
G75*
G02*
X170264040Y32729260I-160000J0D01*
G01*
X169944040Y32729260D01*
G75*
G02*
X169784040Y32889260I0J160000D01*
G01*
X169784040Y33284260D01*
G75*
G02*
X169944040Y33444260I160000J0D01*
G01*
G37*
G36*
G01*
X169944040Y34639260D02*
X170264040Y34639260D01*
G75*
G02*
X170424040Y34479260I0J-160000D01*
G01*
X170424040Y34084260D01*
G75*
G02*
X170264040Y33924260I-160000J0D01*
G01*
X169944040Y33924260D01*
G75*
G02*
X169784040Y34084260I0J160000D01*
G01*
X169784040Y34479260D01*
G75*
G02*
X169944040Y34639260I160000J0D01*
G01*
G37*
%TD*%
%TO.C,C9*%
G36*
G01*
X162080120Y37670180D02*
X162390120Y37670180D01*
G75*
G02*
X162545120Y37515180I0J-155000D01*
G01*
X162545120Y37090180D01*
G75*
G02*
X162390120Y36935180I-155000J0D01*
G01*
X162080120Y36935180D01*
G75*
G02*
X161925120Y37090180I0J155000D01*
G01*
X161925120Y37515180D01*
G75*
G02*
X162080120Y37670180I155000J0D01*
G01*
G37*
G36*
G01*
X162080120Y38805180D02*
X162390120Y38805180D01*
G75*
G02*
X162545120Y38650180I0J-155000D01*
G01*
X162545120Y38225180D01*
G75*
G02*
X162390120Y38070180I-155000J0D01*
G01*
X162080120Y38070180D01*
G75*
G02*
X161925120Y38225180I0J155000D01*
G01*
X161925120Y38650180D01*
G75*
G02*
X162080120Y38805180I155000J0D01*
G01*
G37*
%TD*%
%TO.C,U2*%
G36*
G01*
X177181880Y44126060D02*
X177181880Y44426060D01*
G75*
G02*
X177331880Y44576060I150000J0D01*
G01*
X178981880Y44576060D01*
G75*
G02*
X179131880Y44426060I0J-150000D01*
G01*
X179131880Y44126060D01*
G75*
G02*
X178981880Y43976060I-150000J0D01*
G01*
X177331880Y43976060D01*
G75*
G02*
X177181880Y44126060I0J150000D01*
G01*
G37*
G36*
G01*
X177181880Y42856060D02*
X177181880Y43156060D01*
G75*
G02*
X177331880Y43306060I150000J0D01*
G01*
X178981880Y43306060D01*
G75*
G02*
X179131880Y43156060I0J-150000D01*
G01*
X179131880Y42856060D01*
G75*
G02*
X178981880Y42706060I-150000J0D01*
G01*
X177331880Y42706060D01*
G75*
G02*
X177181880Y42856060I0J150000D01*
G01*
G37*
G36*
G01*
X177181880Y41586060D02*
X177181880Y41886060D01*
G75*
G02*
X177331880Y42036060I150000J0D01*
G01*
X178981880Y42036060D01*
G75*
G02*
X179131880Y41886060I0J-150000D01*
G01*
X179131880Y41586060D01*
G75*
G02*
X178981880Y41436060I-150000J0D01*
G01*
X177331880Y41436060D01*
G75*
G02*
X177181880Y41586060I0J150000D01*
G01*
G37*
G36*
G01*
X177181880Y40316060D02*
X177181880Y40616060D01*
G75*
G02*
X177331880Y40766060I150000J0D01*
G01*
X178981880Y40766060D01*
G75*
G02*
X179131880Y40616060I0J-150000D01*
G01*
X179131880Y40316060D01*
G75*
G02*
X178981880Y40166060I-150000J0D01*
G01*
X177331880Y40166060D01*
G75*
G02*
X177181880Y40316060I0J150000D01*
G01*
G37*
G36*
G01*
X172231880Y40316060D02*
X172231880Y40616060D01*
G75*
G02*
X172381880Y40766060I150000J0D01*
G01*
X174031880Y40766060D01*
G75*
G02*
X174181880Y40616060I0J-150000D01*
G01*
X174181880Y40316060D01*
G75*
G02*
X174031880Y40166060I-150000J0D01*
G01*
X172381880Y40166060D01*
G75*
G02*
X172231880Y40316060I0J150000D01*
G01*
G37*
G36*
G01*
X172231880Y41586060D02*
X172231880Y41886060D01*
G75*
G02*
X172381880Y42036060I150000J0D01*
G01*
X174031880Y42036060D01*
G75*
G02*
X174181880Y41886060I0J-150000D01*
G01*
X174181880Y41586060D01*
G75*
G02*
X174031880Y41436060I-150000J0D01*
G01*
X172381880Y41436060D01*
G75*
G02*
X172231880Y41586060I0J150000D01*
G01*
G37*
G36*
G01*
X172231880Y42856060D02*
X172231880Y43156060D01*
G75*
G02*
X172381880Y43306060I150000J0D01*
G01*
X174031880Y43306060D01*
G75*
G02*
X174181880Y43156060I0J-150000D01*
G01*
X174181880Y42856060D01*
G75*
G02*
X174031880Y42706060I-150000J0D01*
G01*
X172381880Y42706060D01*
G75*
G02*
X172231880Y42856060I0J150000D01*
G01*
G37*
G36*
G01*
X172231880Y44126060D02*
X172231880Y44426060D01*
G75*
G02*
X172381880Y44576060I150000J0D01*
G01*
X174031880Y44576060D01*
G75*
G02*
X174181880Y44426060I0J-150000D01*
G01*
X174181880Y44126060D01*
G75*
G02*
X174031880Y43976060I-150000J0D01*
G01*
X172381880Y43976060D01*
G75*
G02*
X172231880Y44126060I0J150000D01*
G01*
G37*
%TD*%
%TO.C,R1*%
G36*
G01*
X168305700Y43949640D02*
X167985700Y43949640D01*
G75*
G02*
X167825700Y44109640I0J160000D01*
G01*
X167825700Y44504640D01*
G75*
G02*
X167985700Y44664640I160000J0D01*
G01*
X168305700Y44664640D01*
G75*
G02*
X168465700Y44504640I0J-160000D01*
G01*
X168465700Y44109640D01*
G75*
G02*
X168305700Y43949640I-160000J0D01*
G01*
G37*
G36*
G01*
X168305700Y42754640D02*
X167985700Y42754640D01*
G75*
G02*
X167825700Y42914640I0J160000D01*
G01*
X167825700Y43309640D01*
G75*
G02*
X167985700Y43469640I160000J0D01*
G01*
X168305700Y43469640D01*
G75*
G02*
X168465700Y43309640I0J-160000D01*
G01*
X168465700Y42914640D01*
G75*
G02*
X168305700Y42754640I-160000J0D01*
G01*
G37*
%TD*%
D16*
%TO.C,LS1*%
X127183120Y41500860D03*
X127183120Y50200860D03*
%TD*%
%TO.C,C5*%
G36*
G01*
X149522000Y43763000D02*
X149522000Y42813000D01*
G75*
G02*
X149272000Y42563000I-250000J0D01*
G01*
X148597000Y42563000D01*
G75*
G02*
X148347000Y42813000I0J250000D01*
G01*
X148347000Y43763000D01*
G75*
G02*
X148597000Y44013000I250000J0D01*
G01*
X149272000Y44013000D01*
G75*
G02*
X149522000Y43763000I0J-250000D01*
G01*
G37*
G36*
G01*
X151597000Y43763000D02*
X151597000Y42813000D01*
G75*
G02*
X151347000Y42563000I-250000J0D01*
G01*
X150672000Y42563000D01*
G75*
G02*
X150422000Y42813000I0J250000D01*
G01*
X150422000Y43763000D01*
G75*
G02*
X150672000Y44013000I250000J0D01*
G01*
X151347000Y44013000D01*
G75*
G02*
X151597000Y43763000I0J-250000D01*
G01*
G37*
%TD*%
D17*
%TO.C,REF\u002A\u002A*%
X123000000Y77000000D03*
%TD*%
%TO.C,REF\u002A\u002A*%
X123000000Y28000000D03*
%TD*%
%TO.C,REF\u002A\u002A*%
X197000000Y28000000D03*
%TD*%
%TO.C,REF\u002A\u002A*%
X197000000Y77000000D03*
%TD*%
%TO.C,C10*%
G36*
G01*
X185610680Y30906160D02*
X185920680Y30906160D01*
G75*
G02*
X186075680Y30751160I0J-155000D01*
G01*
X186075680Y30326160D01*
G75*
G02*
X185920680Y30171160I-155000J0D01*
G01*
X185610680Y30171160D01*
G75*
G02*
X185455680Y30326160I0J155000D01*
G01*
X185455680Y30751160D01*
G75*
G02*
X185610680Y30906160I155000J0D01*
G01*
G37*
G36*
G01*
X185610680Y32041160D02*
X185920680Y32041160D01*
G75*
G02*
X186075680Y31886160I0J-155000D01*
G01*
X186075680Y31461160D01*
G75*
G02*
X185920680Y31306160I-155000J0D01*
G01*
X185610680Y31306160D01*
G75*
G02*
X185455680Y31461160I0J155000D01*
G01*
X185455680Y31886160D01*
G75*
G02*
X185610680Y32041160I155000J0D01*
G01*
G37*
%TD*%
D18*
%TO.C,D1*%
X187036000Y27534900D03*
D19*
X192116000Y27534900D03*
%TD*%
D15*
%TO.C,U5*%
X184173000Y31544300D03*
X184173000Y29644300D03*
X181973000Y29644300D03*
X181973000Y30594300D03*
X181973000Y31544300D03*
%TD*%
D20*
%TO.C,R9*%
X187164000Y34196500D03*
D21*
X182084000Y34196500D03*
%TD*%
%TO.C,R8*%
G36*
G01*
X178016000Y29889500D02*
X178336000Y29889500D01*
G75*
G02*
X178496000Y29729500I0J-160000D01*
G01*
X178496000Y29334500D01*
G75*
G02*
X178336000Y29174500I-160000J0D01*
G01*
X178016000Y29174500D01*
G75*
G02*
X177856000Y29334500I0J160000D01*
G01*
X177856000Y29729500D01*
G75*
G02*
X178016000Y29889500I160000J0D01*
G01*
G37*
G36*
G01*
X178016000Y31084500D02*
X178336000Y31084500D01*
G75*
G02*
X178496000Y30924500I0J-160000D01*
G01*
X178496000Y30529500D01*
G75*
G02*
X178336000Y30369500I-160000J0D01*
G01*
X178016000Y30369500D01*
G75*
G02*
X177856000Y30529500I0J160000D01*
G01*
X177856000Y30924500D01*
G75*
G02*
X178016000Y31084500I160000J0D01*
G01*
G37*
%TD*%
%TO.C,R7*%
G36*
G01*
X176553000Y30369500D02*
X176233000Y30369500D01*
G75*
G02*
X176073000Y30529500I0J160000D01*
G01*
X176073000Y30924500D01*
G75*
G02*
X176233000Y31084500I160000J0D01*
G01*
X176553000Y31084500D01*
G75*
G02*
X176713000Y30924500I0J-160000D01*
G01*
X176713000Y30529500D01*
G75*
G02*
X176553000Y30369500I-160000J0D01*
G01*
G37*
G36*
G01*
X176553000Y29174500D02*
X176233000Y29174500D01*
G75*
G02*
X176073000Y29334500I0J160000D01*
G01*
X176073000Y29729500D01*
G75*
G02*
X176233000Y29889500I160000J0D01*
G01*
X176553000Y29889500D01*
G75*
G02*
X176713000Y29729500I0J-160000D01*
G01*
X176713000Y29334500D01*
G75*
G02*
X176553000Y29174500I-160000J0D01*
G01*
G37*
%TD*%
%TO.C,R5*%
G36*
G01*
X190963000Y30120600D02*
X190963000Y29800600D01*
G75*
G02*
X190803000Y29640600I-160000J0D01*
G01*
X190408000Y29640600D01*
G75*
G02*
X190248000Y29800600I0J160000D01*
G01*
X190248000Y30120600D01*
G75*
G02*
X190408000Y30280600I160000J0D01*
G01*
X190803000Y30280600D01*
G75*
G02*
X190963000Y30120600I0J-160000D01*
G01*
G37*
G36*
G01*
X192158000Y30120600D02*
X192158000Y29800600D01*
G75*
G02*
X191998000Y29640600I-160000J0D01*
G01*
X191603000Y29640600D01*
G75*
G02*
X191443000Y29800600I0J160000D01*
G01*
X191443000Y30120600D01*
G75*
G02*
X191603000Y30280600I160000J0D01*
G01*
X191998000Y30280600D01*
G75*
G02*
X192158000Y30120600I0J-160000D01*
G01*
G37*
%TD*%
D22*
%TO.C,Q1*%
X190759000Y33703800D03*
X191709000Y31703800D03*
X189809000Y31703800D03*
%TD*%
D23*
%TO.C,JP2*%
X165115000Y46108700D03*
X162575000Y46108700D03*
D24*
X160035000Y46108700D03*
%TD*%
%TO.C,F1*%
G36*
G01*
X138105000Y35208001D02*
X138105000Y34307999D01*
G75*
G02*
X137855001Y34058000I-249999J0D01*
G01*
X137154999Y34058000D01*
G75*
G02*
X136905000Y34307999I0J249999D01*
G01*
X136905000Y35208001D01*
G75*
G02*
X137154999Y35458000I249999J0D01*
G01*
X137855001Y35458000D01*
G75*
G02*
X138105000Y35208001I0J-249999D01*
G01*
G37*
G36*
G01*
X140105000Y35208001D02*
X140105000Y34307999D01*
G75*
G02*
X139855001Y34058000I-249999J0D01*
G01*
X139154999Y34058000D01*
G75*
G02*
X138905000Y34307999I0J249999D01*
G01*
X138905000Y35208001D01*
G75*
G02*
X139154999Y35458000I249999J0D01*
G01*
X139855001Y35458000D01*
G75*
G02*
X140105000Y35208001I0J-249999D01*
G01*
G37*
%TD*%
D25*
%TO.C,C8*%
X187100000Y37101800D03*
X182100000Y37101800D03*
%TD*%
%TO.C,C7*%
G36*
G01*
X179819000Y29937100D02*
X180129000Y29937100D01*
G75*
G02*
X180284000Y29782100I0J-155000D01*
G01*
X180284000Y29357100D01*
G75*
G02*
X180129000Y29202100I-155000J0D01*
G01*
X179819000Y29202100D01*
G75*
G02*
X179664000Y29357100I0J155000D01*
G01*
X179664000Y29782100D01*
G75*
G02*
X179819000Y29937100I155000J0D01*
G01*
G37*
G36*
G01*
X179819000Y31072100D02*
X180129000Y31072100D01*
G75*
G02*
X180284000Y30917100I0J-155000D01*
G01*
X180284000Y30492100D01*
G75*
G02*
X180129000Y30337100I-155000J0D01*
G01*
X179819000Y30337100D01*
G75*
G02*
X179664000Y30492100I0J155000D01*
G01*
X179664000Y30917100D01*
G75*
G02*
X179819000Y31072100I155000J0D01*
G01*
G37*
%TD*%
%TO.C,C1*%
G36*
G01*
X145807000Y54975000D02*
X145807000Y55285000D01*
G75*
G02*
X145962000Y55440000I155000J0D01*
G01*
X146387000Y55440000D01*
G75*
G02*
X146542000Y55285000I0J-155000D01*
G01*
X146542000Y54975000D01*
G75*
G02*
X146387000Y54820000I-155000J0D01*
G01*
X145962000Y54820000D01*
G75*
G02*
X145807000Y54975000I0J155000D01*
G01*
G37*
G36*
G01*
X146942000Y54975000D02*
X146942000Y55285000D01*
G75*
G02*
X147097000Y55440000I155000J0D01*
G01*
X147522000Y55440000D01*
G75*
G02*
X147677000Y55285000I0J-155000D01*
G01*
X147677000Y54975000D01*
G75*
G02*
X147522000Y54820000I-155000J0D01*
G01*
X147097000Y54820000D01*
G75*
G02*
X146942000Y54975000I0J155000D01*
G01*
G37*
%TD*%
%TO.C,C2*%
G36*
G01*
X170957420Y43306060D02*
X171267420Y43306060D01*
G75*
G02*
X171422420Y43151060I0J-155000D01*
G01*
X171422420Y42726060D01*
G75*
G02*
X171267420Y42571060I-155000J0D01*
G01*
X170957420Y42571060D01*
G75*
G02*
X170802420Y42726060I0J155000D01*
G01*
X170802420Y43151060D01*
G75*
G02*
X170957420Y43306060I155000J0D01*
G01*
G37*
G36*
G01*
X170957420Y42171060D02*
X171267420Y42171060D01*
G75*
G02*
X171422420Y42016060I0J-155000D01*
G01*
X171422420Y41591060D01*
G75*
G02*
X171267420Y41436060I-155000J0D01*
G01*
X170957420Y41436060D01*
G75*
G02*
X170802420Y41591060I0J155000D01*
G01*
X170802420Y42016060D01*
G75*
G02*
X170957420Y42171060I155000J0D01*
G01*
G37*
%TD*%
%TO.C,C6*%
G36*
G01*
X142743000Y33575700D02*
X143053000Y33575700D01*
G75*
G02*
X143208000Y33420700I0J-155000D01*
G01*
X143208000Y32995700D01*
G75*
G02*
X143053000Y32840700I-155000J0D01*
G01*
X142743000Y32840700D01*
G75*
G02*
X142588000Y32995700I0J155000D01*
G01*
X142588000Y33420700D01*
G75*
G02*
X142743000Y33575700I155000J0D01*
G01*
G37*
G36*
G01*
X142743000Y34710700D02*
X143053000Y34710700D01*
G75*
G02*
X143208000Y34555700I0J-155000D01*
G01*
X143208000Y34130700D01*
G75*
G02*
X143053000Y33975700I-155000J0D01*
G01*
X142743000Y33975700D01*
G75*
G02*
X142588000Y34130700I0J155000D01*
G01*
X142588000Y34555700D01*
G75*
G02*
X142743000Y34710700I155000J0D01*
G01*
G37*
%TD*%
D26*
%TO.C,J1*%
X185793000Y43199000D03*
D27*
X183253000Y44469000D03*
X185793000Y45739000D03*
X183253000Y47009000D03*
X185793000Y48279000D03*
X183253000Y49549000D03*
X185793000Y50819000D03*
X183253000Y52089000D03*
D28*
X192143000Y41929000D03*
X192143000Y53359000D03*
%TD*%
%TO.C,J2*%
X192106000Y71553100D03*
X192106000Y60123100D03*
D27*
X183216000Y70283100D03*
X185756000Y69013100D03*
X183216000Y67743100D03*
X185756000Y66473100D03*
X183216000Y65203100D03*
X185756000Y63933100D03*
X183216000Y62663100D03*
D26*
X185756000Y61393100D03*
%TD*%
D24*
%TO.C,J3*%
X177659000Y53195000D03*
D23*
X177659000Y55735000D03*
X177659000Y58275000D03*
X177659000Y60815000D03*
X177659000Y63355000D03*
%TD*%
D21*
%TO.C,R2*%
X154798000Y46082000D03*
D20*
X149718000Y46082000D03*
%TD*%
%TO.C,R3*%
G36*
G01*
X130963500Y37089500D02*
X131438500Y37089500D01*
G75*
G02*
X131676000Y36852000I0J-237500D01*
G01*
X131676000Y36352000D01*
G75*
G02*
X131438500Y36114500I-237500J0D01*
G01*
X130963500Y36114500D01*
G75*
G02*
X130726000Y36352000I0J237500D01*
G01*
X130726000Y36852000D01*
G75*
G02*
X130963500Y37089500I237500J0D01*
G01*
G37*
G36*
G01*
X130963500Y35264500D02*
X131438500Y35264500D01*
G75*
G02*
X131676000Y35027000I0J-237500D01*
G01*
X131676000Y34527000D01*
G75*
G02*
X131438500Y34289500I-237500J0D01*
G01*
X130963500Y34289500D01*
G75*
G02*
X130726000Y34527000I0J237500D01*
G01*
X130726000Y35027000D01*
G75*
G02*
X130963500Y35264500I237500J0D01*
G01*
G37*
%TD*%
%TO.C,R4*%
G36*
G01*
X133473500Y35264500D02*
X133948500Y35264500D01*
G75*
G02*
X134186000Y35027000I0J-237500D01*
G01*
X134186000Y34527000D01*
G75*
G02*
X133948500Y34289500I-237500J0D01*
G01*
X133473500Y34289500D01*
G75*
G02*
X133236000Y34527000I0J237500D01*
G01*
X133236000Y35027000D01*
G75*
G02*
X133473500Y35264500I237500J0D01*
G01*
G37*
G36*
G01*
X133473500Y37089500D02*
X133948500Y37089500D01*
G75*
G02*
X134186000Y36852000I0J-237500D01*
G01*
X134186000Y36352000D01*
G75*
G02*
X133948500Y36114500I-237500J0D01*
G01*
X133473500Y36114500D01*
G75*
G02*
X133236000Y36352000I0J237500D01*
G01*
X133236000Y36852000D01*
G75*
G02*
X133473500Y37089500I237500J0D01*
G01*
G37*
%TD*%
D29*
%TO.C,U1*%
X148630000Y58810000D03*
D30*
X146090000Y58810000D03*
X148630000Y61350000D03*
X146090000Y61350000D03*
X148630000Y63890000D03*
X146090000Y63890000D03*
X148630000Y66430000D03*
X146090000Y66430000D03*
%TD*%
D31*
%TO.C,U3*%
X172579180Y65830740D03*
D32*
X157339180Y73450740D03*
X172579180Y63290740D03*
X172579180Y60750740D03*
X172579180Y58210740D03*
X172579180Y55670740D03*
X172579180Y53130740D03*
X157339180Y53130740D03*
D33*
X157339180Y55670740D03*
D32*
X157339180Y58210740D03*
X157339180Y60750740D03*
X157339180Y63290740D03*
X157339180Y65830740D03*
X157339180Y68370740D03*
X157339180Y70910740D03*
D34*
X164959180Y59290740D03*
D35*
X173959180Y65830740D03*
X173959180Y63290740D03*
X173959180Y60750740D03*
X173959180Y58210740D03*
X173959180Y55670740D03*
X173959180Y53130740D03*
D36*
X168769180Y51750740D03*
X166229180Y51750740D03*
X163689180Y51750740D03*
X161149180Y51750740D03*
D35*
X155959180Y53130740D03*
X155959180Y55670740D03*
X155959180Y58210740D03*
X155959180Y60750740D03*
X155959180Y63290740D03*
X155959180Y65830740D03*
X155959180Y73450740D03*
X155959180Y70910740D03*
X155959180Y68370740D03*
D37*
X164959180Y59290740D03*
D38*
X161148240Y53130740D03*
X163690780Y53130740D03*
X166230780Y53130740D03*
X168770780Y53130740D03*
%TD*%
D39*
%TO.C,U4*%
X146051000Y32541800D03*
D40*
X153671000Y40161800D03*
X148591000Y32541800D03*
X151131000Y40161800D03*
X151131000Y32541800D03*
X148591000Y40161800D03*
X153671000Y32541800D03*
X146051000Y40161800D03*
%TD*%
%TO.C,C4*%
G36*
G01*
X135647000Y36878498D02*
X135647000Y39078502D01*
G75*
G02*
X135896998Y39328500I249998J0D01*
G01*
X136722002Y39328500D01*
G75*
G02*
X136972000Y39078502I0J-249998D01*
G01*
X136972000Y36878498D01*
G75*
G02*
X136722002Y36628500I-249998J0D01*
G01*
X135896998Y36628500D01*
G75*
G02*
X135647000Y36878498I0J249998D01*
G01*
G37*
G36*
G01*
X138772000Y36878498D02*
X138772000Y39078502D01*
G75*
G02*
X139021998Y39328500I249998J0D01*
G01*
X139847002Y39328500D01*
G75*
G02*
X140097000Y39078502I0J-249998D01*
G01*
X140097000Y36878498D01*
G75*
G02*
X139847002Y36628500I-249998J0D01*
G01*
X139021998Y36628500D01*
G75*
G02*
X138772000Y36878498I0J249998D01*
G01*
G37*
%TD*%
D24*
%TO.C,J5*%
X150956000Y28151500D03*
D23*
X148416000Y28151500D03*
%TD*%
M02*
