M48
; DRILL file {KiCad 5.1.10-88a1d61d58~90~ubuntu21.04.1} date Tue Oct  5 18:42:19 2021
; FORMAT={-:-/ absolute / inch / decimal}
; #@! TF.CreationDate,2021-10-05T18:42:19+09:00
; #@! TF.GenerationSoftware,Kicad,Pcbnew,5.1.10-88a1d61d58~90~ubuntu21.04.1
FMAT,2
INCH
T1C0.0157
T2C0.0197
T3C0.0276
T4C0.0300
T5C0.0315
T6C0.0335
T7C0.0378
T8C0.0394
T9C0.0787
T10C0.0866
T11C0.1260
%
G90
G05
T1
X4.8344Y2.1243
X4.8394Y1.5193
X4.8444Y1.3443
X4.9894Y1.5193
X5.0094Y2.1243
X5.033Y1.3525
X5.0441Y1.0939
X5.0632Y1.2473
X5.1655Y1.5157
X5.1844Y2.1243
X5.2378Y1.1007
X5.2557Y1.6881
X5.2642Y1.5154
X5.3388Y1.3578
X5.3506Y1.1007
X5.392Y2.8502
X5.392Y2.6269
X5.3937Y1.811
X5.3967Y2.4226
X5.4015Y2.1708
X5.4944Y1.6043
X5.5044Y1.7443
X5.525Y1.247
X5.5377Y1.0982
X5.5915Y2.8502
X5.5962Y2.6221
X5.5962Y2.4226
X5.601Y2.1661
X5.6244Y1.6843
X5.6272Y1.4189
X5.6844Y1.9343
X5.749Y1.1083
X5.8482Y1.4762
X5.8487Y1.4054
X5.8494Y2.2043
X5.8827Y2.127
X5.9074Y1.9595
X5.9526Y2.8977
X5.9536Y1.4767
X5.9569Y1.4046
X5.9573Y2.7219
X5.9644Y2.4643
X5.9668Y2.3131
X6.0086Y1.6969
X6.0244Y2.0843
X6.0599Y1.1117
X6.1644Y1.862
X6.1901Y3.0497
X6.2144Y1.6243
X6.2244Y1.2543
X6.2515Y1.9721
X6.3194Y2.5193
X6.3194Y2.3193
X6.3344Y1.3593
X6.341Y1.971
X6.3801Y3.0497
X6.3879Y1.5657
X6.4526Y1.6981
X6.4673Y1.358
X6.4694Y1.2543
X6.4794Y2.5193
X6.554Y1.9196
X6.555Y1.7247
X6.5559Y3.045
X6.5561Y1.6482
X6.5572Y1.5655
X6.6269Y1.3558
X6.6294Y1.2543
X6.6344Y2.5193
X6.6659Y1.6929
X6.6894Y2.5893
X6.6969Y1.6427
X6.6973Y2.4069
X6.6973Y2.2923
X6.6985Y1.9099
X6.7068Y1.4131
X6.7412Y3.045
X6.8144Y1.2643
X6.8666Y1.0805
X6.8716Y2.0205
X6.9144Y2.9093
X6.9144Y2.7343
X6.9171Y1.3999
X6.9171Y1.3197
X6.9213Y1.5098
X7.0141Y1.5114
X7.0147Y1.8089
X7.0183Y1.3999
X7.0444Y1.2643
X7.0794Y2.9093
X7.0836Y2.6081
X7.0844Y2.4392
X7.0844Y2.2543
X7.086Y2.1059
X7.0871Y1.9544
X7.0898Y1.5108
X7.1044Y1.3043
X7.1184Y1.6865
X7.1212Y1.5928
X7.2168Y2.2348
X7.3118Y2.2348
X7.3144Y2.9093
X7.3618Y1.5546
X7.4044Y2.4193
X7.421Y1.2873
X7.4244Y1.7043
X7.4448Y1.1796
X7.4589Y1.4314
X7.6424Y1.4325
X7.6446Y1.3043
X7.6479Y1.1828
T2
X4.9288Y1.3525
X4.9288Y1.3032
T3
X5.8944Y1.8143
X6.0944Y1.8143
X7.1687Y1.3463
X7.3687Y1.3463
T4
X5.7516Y2.6154
X5.7516Y2.5154
X5.7516Y2.4154
X5.7516Y2.3154
X5.8516Y2.6154
X5.8516Y2.5154
X5.8516Y2.4154
X5.8516Y2.3154
T5
X5.75Y1.5812
X5.75Y1.2812
X5.85Y1.5812
X5.85Y1.2812
X5.95Y1.5812
X5.95Y1.2812
X6.05Y1.5812
X6.05Y1.2812
X7.1693Y1.4607
X7.3661Y1.4607
T6
X6.1945Y2.8918
X6.1945Y2.7918
X6.1945Y2.6918
X6.1945Y2.5918
X6.1945Y2.4918
X6.1945Y2.3918
X6.1945Y2.2918
X6.1945Y2.1918
X6.1945Y2.0918
X6.3444Y2.0918
X6.4445Y2.0918
X6.5445Y2.0918
X6.6445Y2.0918
X6.7945Y2.5918
X6.7945Y2.4918
X6.7945Y2.3918
X6.7945Y2.2918
X6.7945Y2.1918
X6.7945Y2.0918
T7
X7.2132Y2.7671
X7.2132Y2.6671
X7.2132Y2.5671
X7.2132Y2.4671
X7.2147Y2.0507
X7.2147Y1.9507
X7.2147Y1.8507
X7.2147Y1.7507
X7.3132Y2.7171
X7.3132Y2.6171
X7.3132Y2.5171
X7.3132Y2.4171
X7.3147Y2.0007
X7.3147Y1.9007
X7.3147Y1.8007
X7.3147Y1.7007
T8
X5.8431Y1.1083
X5.9431Y1.1083
X6.3006Y1.8153
X6.4006Y1.8153
X6.5006Y1.8153
X6.9944Y2.4943
X6.9944Y2.3943
X6.9944Y2.2943
X6.9944Y2.1943
X6.9944Y2.0943
X7.3636Y1.0841
X7.5636Y1.0841
T9
X6.4945Y2.3343
T10
X4.8425Y3.0315
X4.8425Y1.1024
X7.7559Y3.0315
X7.7559Y1.1024
T11
X7.5632Y2.8171
X7.5632Y2.3671
X7.5647Y2.1007
X7.5647Y1.6507
T2
G00X5.128Y1.259
M15
G01X5.128Y1.2314
M16
G05
G00X5.128Y1.1094
M15
G01X5.128Y1.0818
M16
G05
G00X5.4681Y1.259
M15
G01X5.4681Y1.2314
M16
G05
G00X5.4681Y1.1094
M15
G01X5.4681Y1.0818
M16
G05
T0
M30
