%TF.GenerationSoftware,KiCad,Pcbnew,5.1.10-88a1d61d58~90~ubuntu21.04.1*%
%TF.CreationDate,2021-10-05T18:42:24+09:00*%
%TF.ProjectId,syncricket,73796e63-7269-4636-9b65-742e6b696361,rev?*%
%TF.SameCoordinates,Original*%
%TF.FileFunction,Copper,L2,Bot*%
%TF.FilePolarity,Positive*%
%FSLAX46Y46*%
G04 Gerber Fmt 4.6, Leading zero omitted, Abs format (unit mm)*
G04 Created by KiCad (PCBNEW 5.1.10-88a1d61d58~90~ubuntu21.04.1) date 2021-10-05 18:42:24*
%MOMM*%
%LPD*%
G01*
G04 APERTURE LIST*
%TA.AperFunction,ComponentPad*%
%ADD10O,1.000000X2.000000*%
%TD*%
%TA.AperFunction,ComponentPad*%
%ADD11O,1.300000X0.800000*%
%TD*%
%TA.AperFunction,SMDPad,CuDef*%
%ADD12C,0.100000*%
%TD*%
%TA.AperFunction,ComponentPad*%
%ADD13O,2.000000X2.000000*%
%TD*%
%TA.AperFunction,ComponentPad*%
%ADD14R,2.000000X2.000000*%
%TD*%
%TA.AperFunction,ComponentPad*%
%ADD15O,1.400000X1.400000*%
%TD*%
%TA.AperFunction,ComponentPad*%
%ADD16C,1.400000*%
%TD*%
%TA.AperFunction,ComponentPad*%
%ADD17O,1.700000X1.700000*%
%TD*%
%TA.AperFunction,ComponentPad*%
%ADD18R,1.700000X1.700000*%
%TD*%
%TA.AperFunction,ComponentPad*%
%ADD19C,1.600000*%
%TD*%
%TA.AperFunction,ComponentPad*%
%ADD20R,1.960000X1.960000*%
%TD*%
%TA.AperFunction,ComponentPad*%
%ADD21C,1.960000*%
%TD*%
%TA.AperFunction,ComponentPad*%
%ADD22R,1.524000X1.524000*%
%TD*%
%TA.AperFunction,ComponentPad*%
%ADD23C,1.524000*%
%TD*%
%TA.AperFunction,ComponentPad*%
%ADD24R,1.300000X1.300000*%
%TD*%
%TA.AperFunction,ComponentPad*%
%ADD25O,1.400000X1.300000*%
%TD*%
%TA.AperFunction,ComponentPad*%
%ADD26R,1.400000X1.300000*%
%TD*%
%TA.AperFunction,ComponentPad*%
%ADD27C,2.000000*%
%TD*%
%TA.AperFunction,ComponentPad*%
%ADD28O,1.300000X1.400000*%
%TD*%
%TA.AperFunction,ComponentPad*%
%ADD29R,1.600000X1.600000*%
%TD*%
%TA.AperFunction,ComponentPad*%
%ADD30O,1.600000X1.600000*%
%TD*%
%TA.AperFunction,ViaPad*%
%ADD31C,0.800000*%
%TD*%
%TA.AperFunction,Conductor*%
%ADD32C,0.250000*%
%TD*%
%TA.AperFunction,Conductor*%
%ADD33C,0.254000*%
%TD*%
%TA.AperFunction,Conductor*%
%ADD34C,0.100000*%
%TD*%
G04 APERTURE END LIST*
D10*
%TO.P,J4,S4*%
%TO.N,GND*%
X138890000Y27828500D03*
%TO.P,J4,S3*%
X130250000Y27828500D03*
%TO.P,J4,S2*%
X138890000Y31628500D03*
%TO.P,J4,S1*%
X130250000Y31628500D03*
%TD*%
D11*
%TO.P,J6,2*%
%TO.N,Net-(C4-Pad1)*%
X125191760Y33102280D03*
%TO.P,J6,1*%
%TO.N,GND*%
%TA.AperFunction,ComponentPad*%
G36*
G01*
X124741760Y34752280D02*
X125641760Y34752280D01*
G75*
G02*
X125841760Y34552280I0J-200000D01*
G01*
X125841760Y34152280D01*
G75*
G02*
X125641760Y33952280I-200000J0D01*
G01*
X124741760Y33952280D01*
G75*
G02*
X124541760Y34152280I0J200000D01*
G01*
X124541760Y34552280D01*
G75*
G02*
X124741760Y34752280I200000J0D01*
G01*
G37*
%TD.AperFunction*%
%TD*%
%TA.AperFunction,SMDPad,CuDef*%
D12*
%TO.P,JP3,2*%
%TO.N,Net-(JP3-Pad2)*%
G36*
X135742920Y42056002D02*
G01*
X135718386Y42056002D01*
X135669555Y42060812D01*
X135621430Y42070384D01*
X135574475Y42084628D01*
X135529142Y42103405D01*
X135485869Y42126536D01*
X135445070Y42153796D01*
X135407141Y42184924D01*
X135372444Y42219621D01*
X135341316Y42257550D01*
X135314056Y42298349D01*
X135290925Y42341622D01*
X135272148Y42386955D01*
X135257904Y42433910D01*
X135248332Y42482035D01*
X135243522Y42530866D01*
X135243522Y42555400D01*
X135242920Y42555400D01*
X135242920Y43055400D01*
X135243522Y43055400D01*
X135243522Y43079934D01*
X135248332Y43128765D01*
X135257904Y43176890D01*
X135272148Y43223845D01*
X135290925Y43269178D01*
X135314056Y43312451D01*
X135341316Y43353250D01*
X135372444Y43391179D01*
X135407141Y43425876D01*
X135445070Y43457004D01*
X135485869Y43484264D01*
X135529142Y43507395D01*
X135574475Y43526172D01*
X135621430Y43540416D01*
X135669555Y43549988D01*
X135718386Y43554798D01*
X135742920Y43554798D01*
X135742920Y43555400D01*
X136242920Y43555400D01*
X136242920Y42055400D01*
X135742920Y42055400D01*
X135742920Y42056002D01*
G37*
%TD.AperFunction*%
%TA.AperFunction,SMDPad,CuDef*%
%TO.P,JP3,1*%
%TO.N,Net-(J5-Pad1)*%
G36*
X136542920Y43555400D02*
G01*
X137042920Y43555400D01*
X137042920Y43554798D01*
X137067454Y43554798D01*
X137116285Y43549988D01*
X137164410Y43540416D01*
X137211365Y43526172D01*
X137256698Y43507395D01*
X137299971Y43484264D01*
X137340770Y43457004D01*
X137378699Y43425876D01*
X137413396Y43391179D01*
X137444524Y43353250D01*
X137471784Y43312451D01*
X137494915Y43269178D01*
X137513692Y43223845D01*
X137527936Y43176890D01*
X137537508Y43128765D01*
X137542318Y43079934D01*
X137542318Y43055400D01*
X137542920Y43055400D01*
X137542920Y42555400D01*
X137542318Y42555400D01*
X137542318Y42530866D01*
X137537508Y42482035D01*
X137527936Y42433910D01*
X137513692Y42386955D01*
X137494915Y42341622D01*
X137471784Y42298349D01*
X137444524Y42257550D01*
X137413396Y42219621D01*
X137378699Y42184924D01*
X137340770Y42153796D01*
X137299971Y42126536D01*
X137256698Y42103405D01*
X137211365Y42084628D01*
X137164410Y42070384D01*
X137116285Y42060812D01*
X137067454Y42056002D01*
X137042920Y42056002D01*
X137042920Y42055400D01*
X136542920Y42055400D01*
X136542920Y43555400D01*
G37*
%TD.AperFunction*%
%TD*%
D13*
%TO.P,D1,2*%
%TO.N,Net-(C8-Pad2)*%
X187036000Y27534900D03*
D14*
%TO.P,D1,1*%
%TO.N,Net-(D1-Pad1)*%
X192116000Y27534900D03*
%TD*%
D15*
%TO.P,R9,2*%
%TO.N,Net-(C8-Pad2)*%
X187164000Y34196500D03*
D16*
%TO.P,R9,1*%
%TO.N,Net-(C8-Pad1)*%
X182084000Y34196500D03*
%TD*%
D17*
%TO.P,JP2,3*%
%TO.N,AUXSYN*%
X165115000Y46108700D03*
%TO.P,JP2,2*%
%TO.N,Net-(JP2-Pad2)*%
X162575000Y46108700D03*
D18*
%TO.P,JP2,1*%
%TO.N,Net-(JP2-Pad1)*%
X160035000Y46108700D03*
%TD*%
D19*
%TO.P,C8,2*%
%TO.N,Net-(C8-Pad2)*%
X187100000Y37101800D03*
%TO.P,C8,1*%
%TO.N,Net-(C8-Pad1)*%
X182100000Y37101800D03*
%TD*%
D20*
%TO.P,J1,1*%
%TO.N,GND*%
X185793000Y43199000D03*
D21*
%TO.P,J1,2*%
X183253000Y44469000D03*
%TO.P,J1,3*%
X185793000Y45739000D03*
%TO.P,J1,4*%
%TO.N,Net-(J1-Pad4)*%
X183253000Y47009000D03*
%TO.P,J1,5*%
%TO.N,Net-(J1-Pad5)*%
X185793000Y48279000D03*
%TO.P,J1,6*%
%TO.N,GND*%
X183253000Y49549000D03*
%TO.P,J1,7*%
%TO.N,Net-(J1-Pad7)*%
X185793000Y50819000D03*
%TO.P,J1,8*%
X183253000Y52089000D03*
%TD*%
%TO.P,J2,8*%
%TO.N,Net-(J1-Pad7)*%
X183216000Y70283100D03*
%TO.P,J2,7*%
X185756000Y69013100D03*
%TO.P,J2,6*%
%TO.N,GND*%
X183216000Y67743100D03*
%TO.P,J2,5*%
%TO.N,Net-(J1-Pad5)*%
X185756000Y66473100D03*
%TO.P,J2,4*%
%TO.N,Net-(J1-Pad4)*%
X183216000Y65203100D03*
%TO.P,J2,3*%
%TO.N,GND*%
X185756000Y63933100D03*
%TO.P,J2,2*%
X183216000Y62663100D03*
D20*
%TO.P,J2,1*%
X185756000Y61393100D03*
%TD*%
D18*
%TO.P,J3,1*%
%TO.N,GND*%
X177659000Y53195000D03*
D17*
%TO.P,J3,2*%
%TO.N,Net-(J3-Pad2)*%
X177659000Y55735000D03*
%TO.P,J3,3*%
%TO.N,Net-(J3-Pad3)*%
X177659000Y58275000D03*
%TO.P,J3,4*%
%TO.N,Net-(J3-Pad4)*%
X177659000Y60815000D03*
%TO.P,J3,5*%
%TO.N,Net-(J3-Pad5)*%
X177659000Y63355000D03*
%TD*%
D16*
%TO.P,R2,1*%
%TO.N,Net-(R2-Pad1)*%
X154798000Y46082000D03*
D15*
%TO.P,R2,2*%
%TO.N,Net-(C5-Pad2)*%
X149718000Y46082000D03*
%TD*%
D22*
%TO.P,U1,1*%
%TO.N,GND*%
X148630000Y58810000D03*
D23*
%TO.P,U1,2*%
%TO.N,+3V3*%
X146090000Y58810000D03*
%TO.P,U1,3*%
%TO.N,Net-(U1-Pad3)*%
X148630000Y61350000D03*
%TO.P,U1,4*%
%TO.N,Net-(U1-Pad4)*%
X146090000Y61350000D03*
%TO.P,U1,5*%
%TO.N,Net-(U1-Pad5)*%
X148630000Y63890000D03*
%TO.P,U1,6*%
%TO.N,Net-(U1-Pad6)*%
X146090000Y63890000D03*
%TO.P,U1,7*%
%TO.N,Net-(U1-Pad7)*%
X148630000Y66430000D03*
%TO.P,U1,8*%
%TO.N,Net-(JP2-Pad1)*%
X146090000Y66430000D03*
%TD*%
D24*
%TO.P,U3,19*%
%TO.N,+3V3*%
X172579180Y65830740D03*
D25*
%TO.P,U3,1*%
%TO.N,Net-(R2-Pad1)*%
X157339180Y73450740D03*
%TO.P,U3,18*%
%TO.N,Net-(J3-Pad5)*%
X172579180Y63290740D03*
%TO.P,U3,17*%
%TO.N,Net-(J3-Pad4)*%
X172579180Y60750740D03*
%TO.P,U3,16*%
%TO.N,Net-(J3-Pad3)*%
X172579180Y58210740D03*
%TO.P,U3,15*%
%TO.N,Net-(J3-Pad2)*%
X172579180Y55670740D03*
%TO.P,U3,14*%
%TO.N,GND*%
X172579180Y53130740D03*
%TO.P,U3,9*%
X157339180Y53130740D03*
D26*
%TO.P,U3,8*%
%TO.N,Net-(C11-Pad1)*%
X157339180Y55670740D03*
D25*
%TO.P,U3,7*%
%TO.N,Net-(U1-Pad4)*%
X157339180Y58210740D03*
%TO.P,U3,6*%
%TO.N,Net-(JP2-Pad1)*%
X157339180Y60750740D03*
%TO.P,U3,5*%
%TO.N,Net-(U1-Pad3)*%
X157339180Y63290740D03*
%TO.P,U3,4*%
%TO.N,Net-(U1-Pad7)*%
X157339180Y65830740D03*
%TO.P,U3,3*%
%TO.N,Net-(U1-Pad5)*%
X157339180Y68370740D03*
%TO.P,U3,2*%
%TO.N,Net-(U1-Pad6)*%
X157339180Y70910740D03*
D27*
%TO.P,U3,0*%
%TO.N,N/C*%
X164959180Y59290740D03*
D28*
%TO.P,U3,10*%
%TO.N,GND*%
X161148240Y53130740D03*
%TO.P,U3,11*%
%TO.N,Net-(C11-Pad1)*%
X163690780Y53130740D03*
%TO.P,U3,12*%
%TO.N,Net-(U2-Pad4)*%
X166230780Y53130740D03*
%TO.P,U3,13*%
%TO.N,AUXSYN*%
X168770780Y53130740D03*
%TD*%
D29*
%TO.P,U4,1*%
%TO.N,Net-(C6-Pad2)*%
X146051000Y32541800D03*
D30*
%TO.P,U4,5*%
%TO.N,Net-(U4-Pad5)*%
X153671000Y40161800D03*
%TO.P,U4,2*%
%TO.N,Net-(U4-Pad2)*%
X148591000Y32541800D03*
%TO.P,U4,6*%
%TO.N,GND*%
X151131000Y40161800D03*
%TO.P,U4,3*%
%TO.N,Net-(J5-Pad1)*%
X151131000Y32541800D03*
%TO.P,U4,7*%
%TO.N,Net-(U4-Pad7)*%
X148591000Y40161800D03*
%TO.P,U4,4*%
%TO.N,Net-(U4-Pad4)*%
X153671000Y32541800D03*
%TO.P,U4,8*%
%TO.N,Net-(C5-Pad2)*%
X146051000Y40161800D03*
%TD*%
D18*
%TO.P,J5,1*%
%TO.N,Net-(J5-Pad1)*%
X150956000Y28151500D03*
D17*
%TO.P,J5,2*%
%TO.N,GND*%
X148416000Y28151500D03*
%TD*%
D31*
%TO.N,+3V3*%
X170142140Y48510240D03*
X170101900Y41725500D03*
X150048200Y49770080D03*
X149421156Y54024580D03*
%TO.N,GND*%
X158788340Y50090120D03*
X161061640Y50062180D03*
X163896280Y43130520D03*
X178928000Y32112000D03*
X175801260Y38347700D03*
X174538880Y51319480D03*
X166471840Y48756620D03*
X151556960Y58751520D03*
X152618680Y43100040D03*
X174411880Y27443480D03*
X151496000Y62592000D03*
X170111660Y61134040D03*
X170111660Y58223200D03*
X175694580Y35556240D03*
X178265060Y35556240D03*
X175694580Y33519160D03*
X139558000Y40748000D03*
X148575000Y55988000D03*
X185719960Y56762700D03*
X183306960Y56762700D03*
X146024200Y28151500D03*
X140657820Y27893060D03*
X128120380Y27783840D03*
X131203940Y38497560D03*
X133711000Y38490020D03*
X135605760Y34486900D03*
X151221680Y37506960D03*
X148544520Y37494260D03*
X148557220Y35695940D03*
X151305500Y35675620D03*
X189098140Y29960600D03*
X194256900Y30041900D03*
X189456300Y36356340D03*
X194117200Y36384280D03*
X194173080Y33128000D03*
X180081160Y38373100D03*
X180807600Y42835880D03*
X179923680Y66244520D03*
X179944000Y61954460D03*
X179984640Y53488640D03*
X180012580Y49640540D03*
X137000000Y46000000D03*
X133040360Y27956560D03*
X135905480Y27956560D03*
X153921700Y28235960D03*
X158100000Y31858000D03*
X173086000Y32112000D03*
X164323000Y31858000D03*
X142265640Y55017720D03*
X137198340Y55137100D03*
X137076420Y61532820D03*
X142143720Y61532820D03*
X142143720Y66600120D03*
X136957040Y66722040D03*
X136957040Y72393860D03*
X142024340Y72393860D03*
X151196280Y73600360D03*
X151315660Y69135040D03*
X157228780Y77461160D03*
X162054780Y77461160D03*
X166520100Y77341780D03*
X171226720Y77341780D03*
X179817000Y73895000D03*
X175626000Y73895000D03*
X175626000Y69450000D03*
X156576000Y47293580D03*
X160894000Y34525000D03*
X157846000Y41256000D03*
X180452000Y33128000D03*
X188493640Y32696200D03*
X180878720Y40455900D03*
X186989960Y39485620D03*
X169314100Y42998440D03*
X162252900Y39767560D03*
X166553120Y39762480D03*
X168323500Y34436100D03*
X164269660Y34491980D03*
X170352960Y35891520D03*
X166525180Y41863060D03*
X166497240Y43806160D03*
X160513000Y63989000D03*
X169911000Y65767000D03*
X164577000Y63989000D03*
X168514000Y63989000D03*
X160513000Y58909000D03*
X127239000Y53956000D03*
X122794000Y53956000D03*
X131684000Y53956000D03*
X122921000Y38589000D03*
X126731000Y38589000D03*
X178173620Y45944840D03*
X178156880Y38389380D03*
X140335240Y31672580D03*
X142931120Y36038840D03*
X128605520Y31680200D03*
X123048000Y34144000D03*
X127838440Y34352280D03*
X179944000Y57258000D03*
X153020000Y52940000D03*
X168387000Y31858000D03*
X142860000Y42780000D03*
X185786000Y73895000D03*
X188580000Y43288000D03*
X188072000Y61449000D03*
X144384000Y49130000D03*
X139812000Y44304000D03*
%TO.N,Net-(JP3-Pad2)*%
X133495020Y42876520D03*
%TD*%
D32*
%TO.N,+3V3*%
X170142140Y41765740D02*
X170101900Y41725500D01*
X170142140Y48510240D02*
X170142140Y41765740D01*
X150048200Y49770080D02*
X150048200Y53539440D01*
X149563060Y54024580D02*
X149421156Y54024580D01*
X150048200Y53539440D02*
X149563060Y54024580D01*
%TO.N,GND*%
X161033700Y50090120D02*
X161061640Y50062180D01*
X158788340Y50090120D02*
X161033700Y50090120D01*
X163896280Y43130520D02*
X163896280Y48266400D01*
X162100500Y50062180D02*
X161061640Y50062180D01*
X163896280Y48266400D02*
X162100500Y50062180D01*
X178183780Y31880860D02*
X178183780Y33905240D01*
X175834280Y36254740D02*
X175834280Y38307060D01*
X178183780Y33905240D02*
X175834280Y36254740D01*
X183216000Y67743100D02*
X180365640Y64892740D01*
X180365640Y64892740D02*
X180365640Y53869640D01*
X179691000Y53195000D02*
X177659000Y53195000D01*
X180365640Y53869640D02*
X179984640Y53488640D01*
X178183780Y31215380D02*
X178183780Y31880860D01*
X174411880Y27443480D02*
X178183780Y31215380D01*
X179984640Y53488640D02*
X179691000Y53195000D01*
X169314100Y42998440D02*
X168742600Y43569940D01*
X168742600Y46485860D02*
X166471840Y48756620D01*
X168742600Y43569940D02*
X168742600Y46485860D01*
X175834280Y35695940D02*
X175694580Y35556240D01*
X175834280Y36254740D02*
X175834280Y35695940D01*
X163896280Y41410940D02*
X163896280Y43130520D01*
X162252900Y39767560D02*
X163896280Y41410940D01*
X162257980Y39762480D02*
X162252900Y39767560D01*
X166553120Y39762480D02*
X162257980Y39762480D01*
X171714400Y31085840D02*
X173149500Y32520940D01*
X165575220Y31085840D02*
X171714400Y31085840D01*
X174696360Y32520940D02*
X175694580Y33519160D01*
X173149500Y32520940D02*
X174696360Y32520940D01*
X175694580Y35556240D02*
X175694580Y33519160D01*
X151556960Y58751520D02*
X151556960Y53085890D01*
X152618680Y50812602D02*
X152752178Y50946100D01*
X152618680Y43100040D02*
X152618680Y50812602D01*
X140335240Y28215640D02*
X140657820Y27893060D01*
X140335240Y31672580D02*
X140335240Y28215640D01*
X128120380Y31195060D02*
X128120380Y27783840D01*
X128605520Y31680200D02*
X128120380Y31195060D01*
X144384000Y49130000D02*
X141844000Y46590000D01*
X137590000Y46590000D02*
X137000000Y46000000D01*
X141844000Y46590000D02*
X137590000Y46590000D01*
X152752178Y52672178D02*
X153020000Y52940000D01*
X152752178Y50946100D02*
X152752178Y52672178D01*
X152874110Y53085890D02*
X153020000Y52940000D01*
X151556960Y53085890D02*
X152874110Y53085890D01*
X141336000Y42780000D02*
X142860000Y42780000D01*
X139812000Y44304000D02*
X141336000Y42780000D01*
%TO.N,Net-(J1-Pad4)*%
X183253000Y47009000D02*
X181900500Y48361500D01*
X181900500Y48361500D02*
X181900500Y63887600D01*
X181900500Y63887600D02*
X183216000Y65203100D01*
%TO.N,Net-(J1-Pad5)*%
X185756000Y66473100D02*
X187104300Y65124800D01*
X187104300Y65124800D02*
X187104300Y49590300D01*
X187104300Y49590300D02*
X185793000Y48279000D01*
%TO.N,Net-(R2-Pad1)*%
X157339200Y72475400D02*
X157339200Y73450700D01*
X156954900Y64409300D02*
X157348700Y64409300D01*
X157348700Y64409300D02*
X158376800Y65437400D01*
X154889999Y50825855D02*
X154190000Y51525854D01*
X158376800Y71437800D02*
X157339200Y72475400D01*
X154190000Y61644400D02*
X156954900Y64409300D01*
X154889999Y46681999D02*
X154889999Y50825855D01*
X158376800Y65437400D02*
X158376800Y71437800D01*
X154190000Y51525854D02*
X154190000Y61644400D01*
%TO.N,AUXSYN*%
X168770800Y53130700D02*
X165115000Y49474900D01*
X165115000Y49474900D02*
X165115000Y47310781D01*
X165115000Y47310781D02*
X165115000Y46108700D01*
%TO.N,Net-(U1-Pad5)*%
X157339200Y68370700D02*
X157339200Y67395400D01*
X157339200Y67395400D02*
X153833800Y63890000D01*
X153833800Y63890000D02*
X148630000Y63890000D01*
%TO.N,Net-(U1-Pad6)*%
X157339200Y70910700D02*
X157339200Y69935400D01*
X157339200Y69935400D02*
X152563800Y65160000D01*
X152563800Y65160000D02*
X147360000Y65160000D01*
X147360000Y65160000D02*
X146090000Y63890000D01*
%TO.N,Net-(J5-Pad1)*%
X150956000Y28151500D02*
X150956000Y29326800D01*
X150956000Y29326800D02*
X151131000Y29501800D01*
X151131000Y29501800D02*
X151131000Y32541800D01*
X139949160Y42805400D02*
X137042920Y42805400D01*
X148341320Y34413240D02*
X139949160Y42805400D01*
X149259560Y34413240D02*
X148341320Y34413240D01*
X151131000Y32541800D02*
X149259560Y34413240D01*
%TO.N,Net-(C8-Pad2)*%
X187164000Y34196500D02*
X187164000Y33171200D01*
X187164000Y33171200D02*
X187036000Y33043200D01*
X187036000Y33043200D02*
X187036000Y27534900D01*
%TO.N,Net-(C8-Pad1)*%
X182100000Y37101800D02*
X182084000Y37085800D01*
X182084000Y37085800D02*
X182084000Y34196500D01*
%TO.N,Net-(JP2-Pad1)*%
X160035000Y46108700D02*
X160035000Y47284000D01*
X157339200Y60750700D02*
X157339200Y59775400D01*
X157339200Y59775400D02*
X156312700Y58748900D01*
X156312700Y58748900D02*
X156312700Y51006300D01*
X156312700Y51006300D02*
X160035000Y47284000D01*
%TO.N,Net-(JP3-Pad2)*%
X133566140Y42805400D02*
X133495020Y42876520D01*
X135742920Y42805400D02*
X133566140Y42805400D01*
%TO.N,Net-(C11-Pad1)*%
X163690800Y53130700D02*
X162715500Y53130700D01*
X157339200Y55670700D02*
X157339200Y54695400D01*
X157339200Y54695400D02*
X159956700Y52077900D01*
X159956700Y52077900D02*
X161662700Y52077900D01*
X161662700Y52077900D02*
X162715500Y53130700D01*
%TD*%
D33*
%TO.N,GND*%
X199340000Y74967582D02*
X199340001Y74967572D01*
X199340000Y25660000D01*
X120660000Y25660000D01*
X120660000Y28170883D01*
X121265000Y28170883D01*
X121265000Y27829117D01*
X121331675Y27493919D01*
X121462463Y27178169D01*
X121652337Y26894002D01*
X121894002Y26652337D01*
X122178169Y26462463D01*
X122493919Y26331675D01*
X122829117Y26265000D01*
X123170883Y26265000D01*
X123506081Y26331675D01*
X123821831Y26462463D01*
X124105998Y26652337D01*
X124347663Y26894002D01*
X124537537Y27178169D01*
X124668325Y27493919D01*
X124709615Y27701500D01*
X129115000Y27701500D01*
X129115000Y27201500D01*
X129161585Y26982513D01*
X129249997Y26776822D01*
X129376839Y26592331D01*
X129537236Y26436131D01*
X129725024Y26314224D01*
X129948126Y26234381D01*
X130123000Y26360546D01*
X130123000Y27701500D01*
X130377000Y27701500D01*
X130377000Y26360546D01*
X130551874Y26234381D01*
X130774976Y26314224D01*
X130962764Y26436131D01*
X131123161Y26592331D01*
X131250003Y26776822D01*
X131338415Y26982513D01*
X131385000Y27201500D01*
X131385000Y27701500D01*
X137755000Y27701500D01*
X137755000Y27201500D01*
X137801585Y26982513D01*
X137889997Y26776822D01*
X138016839Y26592331D01*
X138177236Y26436131D01*
X138365024Y26314224D01*
X138588126Y26234381D01*
X138763000Y26360546D01*
X138763000Y27701500D01*
X139017000Y27701500D01*
X139017000Y26360546D01*
X139191874Y26234381D01*
X139414976Y26314224D01*
X139602764Y26436131D01*
X139763161Y26592331D01*
X139890003Y26776822D01*
X139978415Y26982513D01*
X140025000Y27201500D01*
X140025000Y27701500D01*
X139017000Y27701500D01*
X138763000Y27701500D01*
X137755000Y27701500D01*
X131385000Y27701500D01*
X130377000Y27701500D01*
X130123000Y27701500D01*
X129115000Y27701500D01*
X124709615Y27701500D01*
X124728135Y27794609D01*
X146974519Y27794609D01*
X147071843Y27520248D01*
X147220822Y27270145D01*
X147415731Y27053912D01*
X147649080Y26879859D01*
X147911901Y26754675D01*
X148059110Y26710024D01*
X148289000Y26831345D01*
X148289000Y28024500D01*
X147095186Y28024500D01*
X146974519Y27794609D01*
X124728135Y27794609D01*
X124735000Y27829117D01*
X124735000Y28170883D01*
X124678387Y28455500D01*
X129115000Y28455500D01*
X129115000Y27955500D01*
X130123000Y27955500D01*
X130123000Y29296454D01*
X130377000Y29296454D01*
X130377000Y27955500D01*
X131385000Y27955500D01*
X131385000Y28455500D01*
X137755000Y28455500D01*
X137755000Y27955500D01*
X138763000Y27955500D01*
X138763000Y29296454D01*
X139017000Y29296454D01*
X139017000Y27955500D01*
X140025000Y27955500D01*
X140025000Y28455500D01*
X140013749Y28508391D01*
X146974519Y28508391D01*
X147095186Y28278500D01*
X148289000Y28278500D01*
X148289000Y29471655D01*
X148059110Y29592976D01*
X147911901Y29548325D01*
X147649080Y29423141D01*
X147415731Y29249088D01*
X147220822Y29032855D01*
X147071843Y28782752D01*
X146974519Y28508391D01*
X140013749Y28508391D01*
X139978415Y28674487D01*
X139890003Y28880178D01*
X139763161Y29064669D01*
X139602764Y29220869D01*
X139414976Y29342776D01*
X139191874Y29422619D01*
X139017000Y29296454D01*
X138763000Y29296454D01*
X138588126Y29422619D01*
X138365024Y29342776D01*
X138177236Y29220869D01*
X138016839Y29064669D01*
X137889997Y28880178D01*
X137801585Y28674487D01*
X137755000Y28455500D01*
X131385000Y28455500D01*
X131338415Y28674487D01*
X131250003Y28880178D01*
X131123161Y29064669D01*
X130962764Y29220869D01*
X130774976Y29342776D01*
X130551874Y29422619D01*
X130377000Y29296454D01*
X130123000Y29296454D01*
X129948126Y29422619D01*
X129725024Y29342776D01*
X129537236Y29220869D01*
X129376839Y29064669D01*
X129249997Y28880178D01*
X129161585Y28674487D01*
X129115000Y28455500D01*
X124678387Y28455500D01*
X124668325Y28506081D01*
X124537537Y28821831D01*
X124347663Y29105998D01*
X124105998Y29347663D01*
X123821831Y29537537D01*
X123506081Y29668325D01*
X123170883Y29735000D01*
X122829117Y29735000D01*
X122493919Y29668325D01*
X122178169Y29537537D01*
X121894002Y29347663D01*
X121652337Y29105998D01*
X121462463Y28821831D01*
X121331675Y28506081D01*
X121265000Y28170883D01*
X120660000Y28170883D01*
X120660000Y31501500D01*
X129115000Y31501500D01*
X129115000Y31001500D01*
X129161585Y30782513D01*
X129249997Y30576822D01*
X129376839Y30392331D01*
X129537236Y30236131D01*
X129725024Y30114224D01*
X129948126Y30034381D01*
X130123000Y30160546D01*
X130123000Y31501500D01*
X130377000Y31501500D01*
X130377000Y30160546D01*
X130551874Y30034381D01*
X130774976Y30114224D01*
X130962764Y30236131D01*
X131123161Y30392331D01*
X131250003Y30576822D01*
X131338415Y30782513D01*
X131385000Y31001500D01*
X131385000Y31501500D01*
X137755000Y31501500D01*
X137755000Y31001500D01*
X137801585Y30782513D01*
X137889997Y30576822D01*
X138016839Y30392331D01*
X138177236Y30236131D01*
X138365024Y30114224D01*
X138588126Y30034381D01*
X138763000Y30160546D01*
X138763000Y31501500D01*
X139017000Y31501500D01*
X139017000Y30160546D01*
X139191874Y30034381D01*
X139414976Y30114224D01*
X139602764Y30236131D01*
X139763161Y30392331D01*
X139890003Y30576822D01*
X139978415Y30782513D01*
X140025000Y31001500D01*
X140025000Y31501500D01*
X139017000Y31501500D01*
X138763000Y31501500D01*
X137755000Y31501500D01*
X131385000Y31501500D01*
X130377000Y31501500D01*
X130123000Y31501500D01*
X129115000Y31501500D01*
X120660000Y31501500D01*
X120660000Y33102280D01*
X123901753Y33102280D01*
X123921736Y32899385D01*
X123980919Y32704287D01*
X124077026Y32524483D01*
X124206364Y32366884D01*
X124363963Y32237546D01*
X124543767Y32141439D01*
X124738865Y32082256D01*
X124890922Y32067280D01*
X125492598Y32067280D01*
X125644655Y32082256D01*
X125839753Y32141439D01*
X126019557Y32237546D01*
X126041434Y32255500D01*
X129115000Y32255500D01*
X129115000Y31755500D01*
X130123000Y31755500D01*
X130123000Y33096454D01*
X130377000Y33096454D01*
X130377000Y31755500D01*
X131385000Y31755500D01*
X131385000Y32255500D01*
X137755000Y32255500D01*
X137755000Y31755500D01*
X138763000Y31755500D01*
X138763000Y33096454D01*
X139017000Y33096454D01*
X139017000Y31755500D01*
X140025000Y31755500D01*
X140025000Y32255500D01*
X139978415Y32474487D01*
X139890003Y32680178D01*
X139763161Y32864669D01*
X139602764Y33020869D01*
X139414976Y33142776D01*
X139191874Y33222619D01*
X139017000Y33096454D01*
X138763000Y33096454D01*
X138588126Y33222619D01*
X138365024Y33142776D01*
X138177236Y33020869D01*
X138016839Y32864669D01*
X137889997Y32680178D01*
X137801585Y32474487D01*
X137755000Y32255500D01*
X131385000Y32255500D01*
X131338415Y32474487D01*
X131250003Y32680178D01*
X131123161Y32864669D01*
X130962764Y33020869D01*
X130774976Y33142776D01*
X130551874Y33222619D01*
X130377000Y33096454D01*
X130123000Y33096454D01*
X129948126Y33222619D01*
X129725024Y33142776D01*
X129537236Y33020869D01*
X129376839Y32864669D01*
X129249997Y32680178D01*
X129161585Y32474487D01*
X129115000Y32255500D01*
X126041434Y32255500D01*
X126177156Y32366884D01*
X126306494Y32524483D01*
X126402601Y32704287D01*
X126461784Y32899385D01*
X126481767Y33102280D01*
X126461784Y33305175D01*
X126402601Y33500273D01*
X126359085Y33581687D01*
X126372297Y33597786D01*
X126431262Y33708100D01*
X126467572Y33827798D01*
X126479832Y33952280D01*
X126476760Y34066530D01*
X126318010Y34225280D01*
X125318760Y34225280D01*
X125318760Y34205280D01*
X125064760Y34205280D01*
X125064760Y34225280D01*
X124065510Y34225280D01*
X123906760Y34066530D01*
X123903688Y33952280D01*
X123915948Y33827798D01*
X123952258Y33708100D01*
X124011223Y33597786D01*
X124024435Y33581687D01*
X123980919Y33500273D01*
X123921736Y33305175D01*
X123901753Y33102280D01*
X120660000Y33102280D01*
X120660000Y34752280D01*
X123903688Y34752280D01*
X123906760Y34638030D01*
X124065510Y34479280D01*
X125064760Y34479280D01*
X125064760Y35228530D01*
X125318760Y35228530D01*
X125318760Y34479280D01*
X126318010Y34479280D01*
X126476760Y34638030D01*
X126479832Y34752280D01*
X126467572Y34876762D01*
X126431262Y34996460D01*
X126372297Y35106774D01*
X126292945Y35203465D01*
X126196254Y35282817D01*
X126085940Y35341782D01*
X125966242Y35378092D01*
X125841760Y35390352D01*
X125477510Y35387280D01*
X125318760Y35228530D01*
X125064760Y35228530D01*
X124906010Y35387280D01*
X124541760Y35390352D01*
X124417278Y35378092D01*
X124297580Y35341782D01*
X124187266Y35282817D01*
X124090575Y35203465D01*
X124011223Y35106774D01*
X123952258Y34996460D01*
X123915948Y34876762D01*
X123903688Y34752280D01*
X120660000Y34752280D01*
X120660000Y42978459D01*
X132460020Y42978459D01*
X132460020Y42774581D01*
X132499794Y42574622D01*
X132577815Y42386264D01*
X132691083Y42216746D01*
X132835246Y42072583D01*
X133004764Y41959315D01*
X133193122Y41881294D01*
X133393081Y41841520D01*
X133596959Y41841520D01*
X133796918Y41881294D01*
X133985276Y41959315D01*
X134114112Y42045400D01*
X134728558Y42045400D01*
X134771422Y41965208D01*
X134825878Y41883709D01*
X134905230Y41787018D01*
X134974538Y41717710D01*
X135071229Y41638358D01*
X135152728Y41583902D01*
X135263045Y41524936D01*
X135353601Y41487427D01*
X135473297Y41451118D01*
X135569430Y41431996D01*
X135693911Y41419736D01*
X135718470Y41419736D01*
X135742920Y41417328D01*
X136242920Y41417328D01*
X136367402Y41429588D01*
X136392920Y41437329D01*
X136418438Y41429588D01*
X136542920Y41417328D01*
X137042920Y41417328D01*
X137067370Y41419736D01*
X137091929Y41419736D01*
X137216410Y41431996D01*
X137312543Y41451118D01*
X137432239Y41487427D01*
X137522795Y41524936D01*
X137633112Y41583902D01*
X137714611Y41638358D01*
X137811302Y41717710D01*
X137880610Y41787018D01*
X137959962Y41883709D01*
X138014418Y41965208D01*
X138057282Y42045400D01*
X139634359Y42045400D01*
X147777525Y33902232D01*
X147801319Y33873239D01*
X147830312Y33849445D01*
X147830316Y33849441D01*
X147882181Y33806877D01*
X147890802Y33799802D01*
X147676241Y33656437D01*
X147477643Y33457839D01*
X147476812Y33466282D01*
X147440502Y33585980D01*
X147381537Y33696294D01*
X147302185Y33792985D01*
X147205494Y33872337D01*
X147095180Y33931302D01*
X146975482Y33967612D01*
X146851000Y33979872D01*
X145251000Y33979872D01*
X145126518Y33967612D01*
X145006820Y33931302D01*
X144896506Y33872337D01*
X144799815Y33792985D01*
X144720463Y33696294D01*
X144661498Y33585980D01*
X144625188Y33466282D01*
X144612928Y33341800D01*
X144612928Y31741800D01*
X144625188Y31617318D01*
X144661498Y31497620D01*
X144720463Y31387306D01*
X144799815Y31290615D01*
X144896506Y31211263D01*
X145006820Y31152298D01*
X145126518Y31115988D01*
X145251000Y31103728D01*
X146851000Y31103728D01*
X146975482Y31115988D01*
X147095180Y31152298D01*
X147205494Y31211263D01*
X147302185Y31290615D01*
X147381537Y31387306D01*
X147440502Y31497620D01*
X147476812Y31617318D01*
X147477643Y31625761D01*
X147676241Y31427163D01*
X147911273Y31270120D01*
X148172426Y31161947D01*
X148449665Y31106800D01*
X148732335Y31106800D01*
X149009574Y31161947D01*
X149270727Y31270120D01*
X149505759Y31427163D01*
X149705637Y31627041D01*
X149861000Y31859559D01*
X150016363Y31627041D01*
X150216241Y31427163D01*
X150371001Y31323756D01*
X150371000Y29811969D01*
X150321026Y29751076D01*
X150261425Y29639572D01*
X150106000Y29639572D01*
X149981518Y29627312D01*
X149861820Y29591002D01*
X149751506Y29532037D01*
X149654815Y29452685D01*
X149575463Y29355994D01*
X149516498Y29245680D01*
X149492034Y29165034D01*
X149416269Y29249088D01*
X149182920Y29423141D01*
X148920099Y29548325D01*
X148772890Y29592976D01*
X148543000Y29471655D01*
X148543000Y28278500D01*
X148563000Y28278500D01*
X148563000Y28024500D01*
X148543000Y28024500D01*
X148543000Y26831345D01*
X148772890Y26710024D01*
X148920099Y26754675D01*
X149182920Y26879859D01*
X149416269Y27053912D01*
X149492034Y27137966D01*
X149516498Y27057320D01*
X149575463Y26947006D01*
X149654815Y26850315D01*
X149751506Y26770963D01*
X149861820Y26711998D01*
X149981518Y26675688D01*
X150106000Y26663428D01*
X151806000Y26663428D01*
X151930482Y26675688D01*
X152050180Y26711998D01*
X152160494Y26770963D01*
X152257185Y26850315D01*
X152336537Y26947006D01*
X152395502Y27057320D01*
X152431812Y27177018D01*
X152444072Y27301500D01*
X152444072Y27695933D01*
X185401000Y27695933D01*
X185401000Y27373867D01*
X185463832Y27057988D01*
X185587082Y26760437D01*
X185766013Y26492648D01*
X185993748Y26264913D01*
X186261537Y26085982D01*
X186559088Y25962732D01*
X186874967Y25899900D01*
X187197033Y25899900D01*
X187512912Y25962732D01*
X187810463Y26085982D01*
X188078252Y26264913D01*
X188305987Y26492648D01*
X188484918Y26760437D01*
X188608168Y27057988D01*
X188671000Y27373867D01*
X188671000Y27695933D01*
X188608168Y28011812D01*
X188484918Y28309363D01*
X188334219Y28534900D01*
X190477928Y28534900D01*
X190477928Y26534900D01*
X190490188Y26410418D01*
X190526498Y26290720D01*
X190585463Y26180406D01*
X190664815Y26083715D01*
X190761506Y26004363D01*
X190871820Y25945398D01*
X190991518Y25909088D01*
X191116000Y25896828D01*
X193116000Y25896828D01*
X193240482Y25909088D01*
X193360180Y25945398D01*
X193470494Y26004363D01*
X193567185Y26083715D01*
X193646537Y26180406D01*
X193705502Y26290720D01*
X193741812Y26410418D01*
X193754072Y26534900D01*
X193754072Y28170883D01*
X195265000Y28170883D01*
X195265000Y27829117D01*
X195331675Y27493919D01*
X195462463Y27178169D01*
X195652337Y26894002D01*
X195894002Y26652337D01*
X196178169Y26462463D01*
X196493919Y26331675D01*
X196829117Y26265000D01*
X197170883Y26265000D01*
X197506081Y26331675D01*
X197821831Y26462463D01*
X198105998Y26652337D01*
X198347663Y26894002D01*
X198537537Y27178169D01*
X198668325Y27493919D01*
X198735000Y27829117D01*
X198735000Y28170883D01*
X198668325Y28506081D01*
X198537537Y28821831D01*
X198347663Y29105998D01*
X198105998Y29347663D01*
X197821831Y29537537D01*
X197506081Y29668325D01*
X197170883Y29735000D01*
X196829117Y29735000D01*
X196493919Y29668325D01*
X196178169Y29537537D01*
X195894002Y29347663D01*
X195652337Y29105998D01*
X195462463Y28821831D01*
X195331675Y28506081D01*
X195265000Y28170883D01*
X193754072Y28170883D01*
X193754072Y28534900D01*
X193741812Y28659382D01*
X193705502Y28779080D01*
X193646537Y28889394D01*
X193567185Y28986085D01*
X193470494Y29065437D01*
X193360180Y29124402D01*
X193240482Y29160712D01*
X193116000Y29172972D01*
X191116000Y29172972D01*
X190991518Y29160712D01*
X190871820Y29124402D01*
X190761506Y29065437D01*
X190664815Y28986085D01*
X190585463Y28889394D01*
X190526498Y28779080D01*
X190490188Y28659382D01*
X190477928Y28534900D01*
X188334219Y28534900D01*
X188305987Y28577152D01*
X188078252Y28804887D01*
X187810463Y28983818D01*
X187796000Y28989809D01*
X187796000Y32743300D01*
X187798974Y32746924D01*
X187869546Y32878953D01*
X187913003Y33022214D01*
X187920295Y33096250D01*
X188015013Y33159538D01*
X188200962Y33345487D01*
X188347061Y33564141D01*
X188447696Y33807095D01*
X188499000Y34065014D01*
X188499000Y34327986D01*
X188447696Y34585905D01*
X188347061Y34828859D01*
X188200962Y35047513D01*
X188015013Y35233462D01*
X187796359Y35379561D01*
X187553405Y35480196D01*
X187295486Y35531500D01*
X187032514Y35531500D01*
X186774595Y35480196D01*
X186531641Y35379561D01*
X186312987Y35233462D01*
X186127038Y35047513D01*
X185980939Y34828859D01*
X185880304Y34585905D01*
X185829000Y34327986D01*
X185829000Y34065014D01*
X185880304Y33807095D01*
X185980939Y33564141D01*
X186127038Y33345487D01*
X186286400Y33186125D01*
X186276000Y33080532D01*
X186276000Y33080522D01*
X186272324Y33043200D01*
X186276000Y33005877D01*
X186276001Y28989809D01*
X186261537Y28983818D01*
X185993748Y28804887D01*
X185766013Y28577152D01*
X185587082Y28309363D01*
X185463832Y28011812D01*
X185401000Y27695933D01*
X152444072Y27695933D01*
X152444072Y29001500D01*
X152431812Y29125982D01*
X152395502Y29245680D01*
X152336537Y29355994D01*
X152257185Y29452685D01*
X152160494Y29532037D01*
X152050180Y29591002D01*
X151930482Y29627312D01*
X151891000Y29631201D01*
X151891000Y31323757D01*
X152045759Y31427163D01*
X152245637Y31627041D01*
X152401000Y31859559D01*
X152556363Y31627041D01*
X152756241Y31427163D01*
X152991273Y31270120D01*
X153252426Y31161947D01*
X153529665Y31106800D01*
X153812335Y31106800D01*
X154089574Y31161947D01*
X154350727Y31270120D01*
X154585759Y31427163D01*
X154785637Y31627041D01*
X154942680Y31862073D01*
X155050853Y32123226D01*
X155106000Y32400465D01*
X155106000Y32683135D01*
X155050853Y32960374D01*
X154942680Y33221527D01*
X154785637Y33456559D01*
X154585759Y33656437D01*
X154350727Y33813480D01*
X154089574Y33921653D01*
X153812335Y33976800D01*
X153529665Y33976800D01*
X153252426Y33921653D01*
X152991273Y33813480D01*
X152756241Y33656437D01*
X152556363Y33456559D01*
X152401000Y33224041D01*
X152245637Y33456559D01*
X152045759Y33656437D01*
X151810727Y33813480D01*
X151549574Y33921653D01*
X151272335Y33976800D01*
X150989665Y33976800D01*
X150807114Y33940488D01*
X149823364Y34924237D01*
X149799561Y34953241D01*
X149683836Y35048214D01*
X149551807Y35118786D01*
X149408546Y35162243D01*
X149296893Y35173240D01*
X149296882Y35173240D01*
X149259560Y35176916D01*
X149222238Y35173240D01*
X148656123Y35173240D01*
X146586228Y37243135D01*
X180665000Y37243135D01*
X180665000Y36960465D01*
X180720147Y36683226D01*
X180828320Y36422073D01*
X180985363Y36187041D01*
X181185241Y35987163D01*
X181324000Y35894447D01*
X181324001Y35294275D01*
X181232987Y35233462D01*
X181047038Y35047513D01*
X180900939Y34828859D01*
X180800304Y34585905D01*
X180749000Y34327986D01*
X180749000Y34065014D01*
X180800304Y33807095D01*
X180900939Y33564141D01*
X181047038Y33345487D01*
X181232987Y33159538D01*
X181451641Y33013439D01*
X181694595Y32912804D01*
X181952514Y32861500D01*
X182215486Y32861500D01*
X182473405Y32912804D01*
X182716359Y33013439D01*
X182935013Y33159538D01*
X183120962Y33345487D01*
X183267061Y33564141D01*
X183367696Y33807095D01*
X183419000Y34065014D01*
X183419000Y34327986D01*
X183367696Y34585905D01*
X183267061Y34828859D01*
X183120962Y35047513D01*
X182935013Y35233462D01*
X182844000Y35294275D01*
X182844000Y35873066D01*
X183014759Y35987163D01*
X183214637Y36187041D01*
X183371680Y36422073D01*
X183479853Y36683226D01*
X183535000Y36960465D01*
X183535000Y37243135D01*
X185665000Y37243135D01*
X185665000Y36960465D01*
X185720147Y36683226D01*
X185828320Y36422073D01*
X185985363Y36187041D01*
X186185241Y35987163D01*
X186420273Y35830120D01*
X186681426Y35721947D01*
X186958665Y35666800D01*
X187241335Y35666800D01*
X187518574Y35721947D01*
X187779727Y35830120D01*
X188014759Y35987163D01*
X188214637Y36187041D01*
X188371680Y36422073D01*
X188479853Y36683226D01*
X188535000Y36960465D01*
X188535000Y37243135D01*
X188479853Y37520374D01*
X188371680Y37781527D01*
X188214637Y38016559D01*
X188014759Y38216437D01*
X187779727Y38373480D01*
X187518574Y38481653D01*
X187241335Y38536800D01*
X186958665Y38536800D01*
X186681426Y38481653D01*
X186420273Y38373480D01*
X186185241Y38216437D01*
X185985363Y38016559D01*
X185828320Y37781527D01*
X185720147Y37520374D01*
X185665000Y37243135D01*
X183535000Y37243135D01*
X183479853Y37520374D01*
X183371680Y37781527D01*
X183214637Y38016559D01*
X183014759Y38216437D01*
X182779727Y38373480D01*
X182518574Y38481653D01*
X182241335Y38536800D01*
X181958665Y38536800D01*
X181681426Y38481653D01*
X181420273Y38373480D01*
X181185241Y38216437D01*
X180985363Y38016559D01*
X180828320Y37781527D01*
X180720147Y37520374D01*
X180665000Y37243135D01*
X146586228Y37243135D01*
X143526227Y40303135D01*
X144616000Y40303135D01*
X144616000Y40020465D01*
X144671147Y39743226D01*
X144779320Y39482073D01*
X144936363Y39247041D01*
X145136241Y39047163D01*
X145371273Y38890120D01*
X145632426Y38781947D01*
X145909665Y38726800D01*
X146192335Y38726800D01*
X146469574Y38781947D01*
X146730727Y38890120D01*
X146965759Y39047163D01*
X147165637Y39247041D01*
X147321000Y39479559D01*
X147476363Y39247041D01*
X147676241Y39047163D01*
X147911273Y38890120D01*
X148172426Y38781947D01*
X148449665Y38726800D01*
X148732335Y38726800D01*
X149009574Y38781947D01*
X149270727Y38890120D01*
X149505759Y39047163D01*
X149705637Y39247041D01*
X149862680Y39482073D01*
X149867067Y39492665D01*
X149978615Y39306669D01*
X150167586Y39098281D01*
X150393580Y38930763D01*
X150647913Y38810554D01*
X150781961Y38769896D01*
X151004000Y38891885D01*
X151004000Y40034800D01*
X150984000Y40034800D01*
X150984000Y40288800D01*
X151004000Y40288800D01*
X151004000Y41431715D01*
X151258000Y41431715D01*
X151258000Y40288800D01*
X151278000Y40288800D01*
X151278000Y40034800D01*
X151258000Y40034800D01*
X151258000Y38891885D01*
X151480039Y38769896D01*
X151614087Y38810554D01*
X151868420Y38930763D01*
X152094414Y39098281D01*
X152283385Y39306669D01*
X152394933Y39492665D01*
X152399320Y39482073D01*
X152556363Y39247041D01*
X152756241Y39047163D01*
X152991273Y38890120D01*
X153252426Y38781947D01*
X153529665Y38726800D01*
X153812335Y38726800D01*
X154089574Y38781947D01*
X154350727Y38890120D01*
X154585759Y39047163D01*
X154785637Y39247041D01*
X154942680Y39482073D01*
X155050853Y39743226D01*
X155106000Y40020465D01*
X155106000Y40303135D01*
X155050853Y40580374D01*
X154942680Y40841527D01*
X154785637Y41076559D01*
X154585759Y41276437D01*
X154350727Y41433480D01*
X154089574Y41541653D01*
X153812335Y41596800D01*
X153529665Y41596800D01*
X153252426Y41541653D01*
X152991273Y41433480D01*
X152756241Y41276437D01*
X152556363Y41076559D01*
X152399320Y40841527D01*
X152394933Y40830935D01*
X152283385Y41016931D01*
X152094414Y41225319D01*
X151868420Y41392837D01*
X151614087Y41513046D01*
X151480039Y41553704D01*
X151258000Y41431715D01*
X151004000Y41431715D01*
X150781961Y41553704D01*
X150647913Y41513046D01*
X150393580Y41392837D01*
X150167586Y41225319D01*
X149978615Y41016931D01*
X149867067Y40830935D01*
X149862680Y40841527D01*
X149705637Y41076559D01*
X149505759Y41276437D01*
X149270727Y41433480D01*
X149009574Y41541653D01*
X148732335Y41596800D01*
X148449665Y41596800D01*
X148172426Y41541653D01*
X147911273Y41433480D01*
X147676241Y41276437D01*
X147476363Y41076559D01*
X147321000Y40844041D01*
X147165637Y41076559D01*
X146965759Y41276437D01*
X146730727Y41433480D01*
X146469574Y41541653D01*
X146192335Y41596800D01*
X145909665Y41596800D01*
X145632426Y41541653D01*
X145371273Y41433480D01*
X145136241Y41276437D01*
X144936363Y41076559D01*
X144779320Y40841527D01*
X144671147Y40580374D01*
X144616000Y40303135D01*
X143526227Y40303135D01*
X142001923Y41827439D01*
X169066900Y41827439D01*
X169066900Y41623561D01*
X169106674Y41423602D01*
X169184695Y41235244D01*
X169297963Y41065726D01*
X169442126Y40921563D01*
X169611644Y40808295D01*
X169800002Y40730274D01*
X169999961Y40690500D01*
X170203839Y40690500D01*
X170403798Y40730274D01*
X170592156Y40808295D01*
X170761674Y40921563D01*
X170905837Y41065726D01*
X171019105Y41235244D01*
X171097126Y41423602D01*
X171136900Y41623561D01*
X171136900Y41827439D01*
X171097126Y42027398D01*
X171019105Y42215756D01*
X171016938Y42219000D01*
X184174928Y42219000D01*
X184187188Y42094518D01*
X184223498Y41974820D01*
X184282463Y41864506D01*
X184361815Y41767815D01*
X184458506Y41688463D01*
X184568820Y41629498D01*
X184688518Y41593188D01*
X184813000Y41580928D01*
X185507250Y41584000D01*
X185666000Y41742750D01*
X185666000Y43072000D01*
X185920000Y43072000D01*
X185920000Y41742750D01*
X186078750Y41584000D01*
X186773000Y41580928D01*
X186897482Y41593188D01*
X187017180Y41629498D01*
X187127494Y41688463D01*
X187224185Y41767815D01*
X187303537Y41864506D01*
X187362502Y41974820D01*
X187398812Y42094518D01*
X187404190Y42149128D01*
X189908000Y42149128D01*
X189908000Y41708872D01*
X189993890Y41277075D01*
X190162369Y40870331D01*
X190406962Y40504271D01*
X190718271Y40192962D01*
X191084331Y39948369D01*
X191491075Y39779890D01*
X191922872Y39694000D01*
X192363128Y39694000D01*
X192794925Y39779890D01*
X193201669Y39948369D01*
X193567729Y40192962D01*
X193879038Y40504271D01*
X194123631Y40870331D01*
X194292110Y41277075D01*
X194378000Y41708872D01*
X194378000Y42149128D01*
X194292110Y42580925D01*
X194123631Y42987669D01*
X193879038Y43353729D01*
X193567729Y43665038D01*
X193201669Y43909631D01*
X192794925Y44078110D01*
X192363128Y44164000D01*
X191922872Y44164000D01*
X191491075Y44078110D01*
X191084331Y43909631D01*
X190718271Y43665038D01*
X190406962Y43353729D01*
X190162369Y42987669D01*
X189993890Y42580925D01*
X189908000Y42149128D01*
X187404190Y42149128D01*
X187411072Y42219000D01*
X187408000Y42913250D01*
X187249250Y43072000D01*
X185920000Y43072000D01*
X185666000Y43072000D01*
X184336750Y43072000D01*
X184178000Y42913250D01*
X184174928Y42219000D01*
X171016938Y42219000D01*
X170905837Y42385274D01*
X170902140Y42388971D01*
X170902140Y43347850D01*
X182311456Y43347850D01*
X182404804Y43085493D01*
X182691011Y42946603D01*
X182998814Y42866216D01*
X183316386Y42847424D01*
X183631522Y42890948D01*
X183932112Y42995116D01*
X184101196Y43085493D01*
X184194544Y43347850D01*
X183253000Y44289395D01*
X182311456Y43347850D01*
X170902140Y43347850D01*
X170902140Y44405614D01*
X181631424Y44405614D01*
X181674948Y44090478D01*
X181779116Y43789888D01*
X181869493Y43620804D01*
X182131850Y43527456D01*
X183073395Y44469000D01*
X182131850Y45410544D01*
X181869493Y45317196D01*
X181730603Y45030989D01*
X181650216Y44723186D01*
X181631424Y44405614D01*
X170902140Y44405614D01*
X170902140Y47806529D01*
X170946077Y47850466D01*
X171059345Y48019984D01*
X171137366Y48208342D01*
X171177140Y48408301D01*
X171177140Y48612179D01*
X171137366Y48812138D01*
X171059345Y49000496D01*
X170946077Y49170014D01*
X170801914Y49314177D01*
X170632396Y49427445D01*
X170444038Y49505466D01*
X170244079Y49545240D01*
X170040201Y49545240D01*
X169840242Y49505466D01*
X169651884Y49427445D01*
X169482366Y49314177D01*
X169338203Y49170014D01*
X169224935Y49000496D01*
X169146914Y48812138D01*
X169107140Y48612179D01*
X169107140Y48408301D01*
X169146914Y48208342D01*
X169224935Y48019984D01*
X169338203Y47850466D01*
X169382140Y47806529D01*
X169382141Y42469452D01*
X169297963Y42385274D01*
X169184695Y42215756D01*
X169106674Y42027398D01*
X169066900Y41827439D01*
X142001923Y41827439D01*
X140512964Y43316397D01*
X140489161Y43345401D01*
X140373436Y43440374D01*
X140241407Y43510946D01*
X140098146Y43554403D01*
X139986493Y43565400D01*
X139986482Y43565400D01*
X139949160Y43569076D01*
X139911838Y43565400D01*
X138057282Y43565400D01*
X138014418Y43645592D01*
X137959962Y43727091D01*
X137880610Y43823782D01*
X137811302Y43893090D01*
X137714611Y43972442D01*
X137633112Y44026898D01*
X137522795Y44085864D01*
X137432239Y44123373D01*
X137312543Y44159682D01*
X137216410Y44178804D01*
X137091929Y44191064D01*
X137067370Y44191064D01*
X137042920Y44193472D01*
X136542920Y44193472D01*
X136418438Y44181212D01*
X136392920Y44173471D01*
X136367402Y44181212D01*
X136242920Y44193472D01*
X135742920Y44193472D01*
X135718470Y44191064D01*
X135693911Y44191064D01*
X135569430Y44178804D01*
X135473297Y44159682D01*
X135353601Y44123373D01*
X135263045Y44085864D01*
X135152728Y44026898D01*
X135071229Y43972442D01*
X134974538Y43893090D01*
X134905230Y43823782D01*
X134825878Y43727091D01*
X134771422Y43645592D01*
X134728558Y43565400D01*
X134269851Y43565400D01*
X134154794Y43680457D01*
X133985276Y43793725D01*
X133796918Y43871746D01*
X133596959Y43911520D01*
X133393081Y43911520D01*
X133193122Y43871746D01*
X133004764Y43793725D01*
X132835246Y43680457D01*
X132691083Y43536294D01*
X132577815Y43366776D01*
X132499794Y43178418D01*
X132460020Y42978459D01*
X120660000Y42978459D01*
X120660000Y46213486D01*
X148383000Y46213486D01*
X148383000Y45950514D01*
X148434304Y45692595D01*
X148534939Y45449641D01*
X148681038Y45230987D01*
X148866987Y45045038D01*
X149085641Y44898939D01*
X149328595Y44798304D01*
X149586514Y44747000D01*
X149849486Y44747000D01*
X150107405Y44798304D01*
X150350359Y44898939D01*
X150569013Y45045038D01*
X150754962Y45230987D01*
X150901061Y45449641D01*
X151001696Y45692595D01*
X151053000Y45950514D01*
X151053000Y46213486D01*
X151001696Y46471405D01*
X150901061Y46714359D01*
X150754962Y46933013D01*
X150569013Y47118962D01*
X150350359Y47265061D01*
X150107405Y47365696D01*
X149849486Y47417000D01*
X149586514Y47417000D01*
X149328595Y47365696D01*
X149085641Y47265061D01*
X148866987Y47118962D01*
X148681038Y46933013D01*
X148534939Y46714359D01*
X148434304Y46471405D01*
X148383000Y46213486D01*
X120660000Y46213486D01*
X120660000Y54126519D01*
X148386156Y54126519D01*
X148386156Y53922641D01*
X148425930Y53722682D01*
X148503951Y53534324D01*
X148617219Y53364806D01*
X148761382Y53220643D01*
X148930900Y53107375D01*
X149119258Y53029354D01*
X149288201Y52995749D01*
X149288200Y50473791D01*
X149244263Y50429854D01*
X149130995Y50260336D01*
X149052974Y50071978D01*
X149013200Y49872019D01*
X149013200Y49668141D01*
X149052974Y49468182D01*
X149130995Y49279824D01*
X149244263Y49110306D01*
X149388426Y48966143D01*
X149557944Y48852875D01*
X149746302Y48774854D01*
X149946261Y48735080D01*
X150150139Y48735080D01*
X150350098Y48774854D01*
X150538456Y48852875D01*
X150707974Y48966143D01*
X150852137Y49110306D01*
X150965405Y49279824D01*
X151043426Y49468182D01*
X151083200Y49668141D01*
X151083200Y49872019D01*
X151043426Y50071978D01*
X150965405Y50260336D01*
X150852137Y50429854D01*
X150808200Y50473791D01*
X150808200Y53502107D01*
X150811877Y53539440D01*
X150797203Y53688426D01*
X150753746Y53831687D01*
X150683174Y53963716D01*
X150659915Y53992057D01*
X150588201Y54079441D01*
X150559197Y54103244D01*
X150436350Y54226091D01*
X150416382Y54326478D01*
X150338361Y54514836D01*
X150225093Y54684354D01*
X150080930Y54828517D01*
X149911412Y54941785D01*
X149723054Y55019806D01*
X149523095Y55059580D01*
X149319217Y55059580D01*
X149119258Y55019806D01*
X148930900Y54941785D01*
X148761382Y54828517D01*
X148617219Y54684354D01*
X148503951Y54514836D01*
X148425930Y54326478D01*
X148386156Y54126519D01*
X120660000Y54126519D01*
X120660000Y55353000D01*
X132700000Y55353000D01*
X132724776Y55355440D01*
X132748601Y55362667D01*
X132770557Y55374403D01*
X132789803Y55390197D01*
X132805597Y55409443D01*
X132817333Y55431399D01*
X132824560Y55455224D01*
X132827000Y55480000D01*
X132827000Y66567592D01*
X144693000Y66567592D01*
X144693000Y66292408D01*
X144746686Y66022510D01*
X144851995Y65768273D01*
X145004880Y65539465D01*
X145199465Y65344880D01*
X145428273Y65191995D01*
X145505515Y65160000D01*
X145428273Y65128005D01*
X145199465Y64975120D01*
X145004880Y64780535D01*
X144851995Y64551727D01*
X144746686Y64297490D01*
X144693000Y64027592D01*
X144693000Y63752408D01*
X144746686Y63482510D01*
X144851995Y63228273D01*
X145004880Y62999465D01*
X145199465Y62804880D01*
X145428273Y62651995D01*
X145505515Y62620000D01*
X145428273Y62588005D01*
X145199465Y62435120D01*
X145004880Y62240535D01*
X144851995Y62011727D01*
X144746686Y61757490D01*
X144693000Y61487592D01*
X144693000Y61212408D01*
X144746686Y60942510D01*
X144851995Y60688273D01*
X145004880Y60459465D01*
X145199465Y60264880D01*
X145428273Y60111995D01*
X145505515Y60080000D01*
X145428273Y60048005D01*
X145199465Y59895120D01*
X145004880Y59700535D01*
X144851995Y59471727D01*
X144746686Y59217490D01*
X144693000Y58947592D01*
X144693000Y58672408D01*
X144746686Y58402510D01*
X144851995Y58148273D01*
X145004880Y57919465D01*
X145199465Y57724880D01*
X145428273Y57571995D01*
X145682510Y57466686D01*
X145952408Y57413000D01*
X146227592Y57413000D01*
X146497490Y57466686D01*
X146751727Y57571995D01*
X146980535Y57724880D01*
X147175120Y57919465D01*
X147233920Y58007465D01*
X147242188Y57923518D01*
X147278498Y57803820D01*
X147337463Y57693506D01*
X147416815Y57596815D01*
X147513506Y57517463D01*
X147623820Y57458498D01*
X147743518Y57422188D01*
X147868000Y57409928D01*
X148344250Y57413000D01*
X148503000Y57571750D01*
X148503000Y58683000D01*
X148757000Y58683000D01*
X148757000Y57571750D01*
X148915750Y57413000D01*
X149392000Y57409928D01*
X149516482Y57422188D01*
X149636180Y57458498D01*
X149746494Y57517463D01*
X149843185Y57596815D01*
X149922537Y57693506D01*
X149981502Y57803820D01*
X150017812Y57923518D01*
X150030072Y58048000D01*
X150027000Y58524250D01*
X149868250Y58683000D01*
X148757000Y58683000D01*
X148503000Y58683000D01*
X148483000Y58683000D01*
X148483000Y58937000D01*
X148503000Y58937000D01*
X148503000Y58957000D01*
X148757000Y58957000D01*
X148757000Y58937000D01*
X149868250Y58937000D01*
X150027000Y59095750D01*
X150030072Y59572000D01*
X150017812Y59696482D01*
X149981502Y59816180D01*
X149922537Y59926494D01*
X149843185Y60023185D01*
X149746494Y60102537D01*
X149636180Y60161502D01*
X149516482Y60197812D01*
X149432535Y60206080D01*
X149520535Y60264880D01*
X149715120Y60459465D01*
X149868005Y60688273D01*
X149973314Y60942510D01*
X150027000Y61212408D01*
X150027000Y61487592D01*
X149973314Y61757490D01*
X149868005Y62011727D01*
X149715120Y62240535D01*
X149520535Y62435120D01*
X149291727Y62588005D01*
X149214485Y62620000D01*
X149291727Y62651995D01*
X149520535Y62804880D01*
X149715120Y62999465D01*
X149802341Y63130000D01*
X153796478Y63130000D01*
X153833800Y63126324D01*
X153871122Y63130000D01*
X153871133Y63130000D01*
X153982786Y63140997D01*
X154126047Y63184454D01*
X154258076Y63255026D01*
X154373801Y63349999D01*
X154397604Y63379003D01*
X156186455Y65167853D01*
X156215572Y65113378D01*
X156376152Y64917712D01*
X156382940Y64912142D01*
X153678998Y62208199D01*
X153650000Y62184401D01*
X153626202Y62155403D01*
X153626201Y62155402D01*
X153555026Y62068676D01*
X153484454Y61936646D01*
X153458516Y61851135D01*
X153440998Y61793386D01*
X153437463Y61757490D01*
X153426324Y61644400D01*
X153430001Y61607068D01*
X153430000Y51563176D01*
X153426324Y51525854D01*
X153430000Y51488532D01*
X153430000Y51488522D01*
X153440997Y51376869D01*
X153479442Y51250132D01*
X153484454Y51233608D01*
X153555026Y51101578D01*
X153579795Y51071397D01*
X153649999Y50985853D01*
X153679002Y50962051D01*
X154130000Y50511052D01*
X154129999Y47241246D01*
X153946987Y47118962D01*
X153761038Y46933013D01*
X153614939Y46714359D01*
X153514304Y46471405D01*
X153463000Y46213486D01*
X153463000Y45950514D01*
X153514304Y45692595D01*
X153614939Y45449641D01*
X153761038Y45230987D01*
X153946987Y45045038D01*
X154165641Y44898939D01*
X154408595Y44798304D01*
X154666514Y44747000D01*
X154929486Y44747000D01*
X155187405Y44798304D01*
X155430359Y44898939D01*
X155649013Y45045038D01*
X155834962Y45230987D01*
X155981061Y45449641D01*
X156081696Y45692595D01*
X156133000Y45950514D01*
X156133000Y46213486D01*
X156081696Y46471405D01*
X155981061Y46714359D01*
X155834962Y46933013D01*
X155649999Y47117976D01*
X155649999Y50633897D01*
X155677726Y50582024D01*
X155715445Y50536064D01*
X155772700Y50466299D01*
X155801698Y50442501D01*
X158789013Y47455185D01*
X158733815Y47409885D01*
X158654463Y47313194D01*
X158595498Y47202880D01*
X158559188Y47083182D01*
X158546928Y46958700D01*
X158546928Y45258700D01*
X158559188Y45134218D01*
X158595498Y45014520D01*
X158654463Y44904206D01*
X158733815Y44807515D01*
X158830506Y44728163D01*
X158940820Y44669198D01*
X159060518Y44632888D01*
X159185000Y44620628D01*
X160885000Y44620628D01*
X161009482Y44632888D01*
X161129180Y44669198D01*
X161239494Y44728163D01*
X161336185Y44807515D01*
X161415537Y44904206D01*
X161474502Y45014520D01*
X161496513Y45087080D01*
X161628368Y44955225D01*
X161871589Y44792710D01*
X162141842Y44680768D01*
X162428740Y44623700D01*
X162721260Y44623700D01*
X163008158Y44680768D01*
X163278411Y44792710D01*
X163521632Y44955225D01*
X163728475Y45162068D01*
X163845000Y45336460D01*
X163961525Y45162068D01*
X164168368Y44955225D01*
X164411589Y44792710D01*
X164681842Y44680768D01*
X164968740Y44623700D01*
X165261260Y44623700D01*
X165548158Y44680768D01*
X165818411Y44792710D01*
X166061632Y44955225D01*
X166268475Y45162068D01*
X166430990Y45405289D01*
X166542932Y45675542D01*
X166600000Y45962440D01*
X166600000Y46254960D01*
X166542932Y46541858D01*
X166430990Y46812111D01*
X166268475Y47055332D01*
X166061632Y47262175D01*
X165875000Y47386878D01*
X165875000Y49160099D01*
X168528306Y51813404D01*
X168770780Y51789523D01*
X169022684Y51814333D01*
X169264907Y51887811D01*
X169488142Y52007132D01*
X169683808Y52167712D01*
X169844388Y52363379D01*
X169963709Y52586614D01*
X170030037Y52805269D01*
X171286081Y52805269D01*
X171333436Y52664283D01*
X171447413Y52439968D01*
X171602962Y52242199D01*
X171794105Y52078576D01*
X172013496Y51955387D01*
X172252705Y51877366D01*
X172452180Y52008297D01*
X172452180Y53003740D01*
X172706180Y53003740D01*
X172706180Y52008297D01*
X172905655Y51877366D01*
X173144864Y51955387D01*
X173364255Y52078576D01*
X173555398Y52242199D01*
X173636252Y52345000D01*
X176170928Y52345000D01*
X176183188Y52220518D01*
X176219498Y52100820D01*
X176278463Y51990506D01*
X176357815Y51893815D01*
X176454506Y51814463D01*
X176564820Y51755498D01*
X176684518Y51719188D01*
X176809000Y51706928D01*
X177373250Y51710000D01*
X177532000Y51868750D01*
X177532000Y53068000D01*
X177786000Y53068000D01*
X177786000Y51868750D01*
X177944750Y51710000D01*
X178509000Y51706928D01*
X178633482Y51719188D01*
X178753180Y51755498D01*
X178863494Y51814463D01*
X178960185Y51893815D01*
X179039537Y51990506D01*
X179098502Y52100820D01*
X179134812Y52220518D01*
X179147072Y52345000D01*
X179144000Y52909250D01*
X178985250Y53068000D01*
X177786000Y53068000D01*
X177532000Y53068000D01*
X176332750Y53068000D01*
X176174000Y52909250D01*
X176170928Y52345000D01*
X173636252Y52345000D01*
X173710947Y52439968D01*
X173824924Y52664283D01*
X173872279Y52805269D01*
X173748247Y53003740D01*
X172706180Y53003740D01*
X172452180Y53003740D01*
X171410113Y53003740D01*
X171286081Y52805269D01*
X170030037Y52805269D01*
X170037187Y52828837D01*
X170055780Y53017618D01*
X170055780Y53243863D01*
X170037187Y53432644D01*
X169999612Y53556512D01*
X170025868Y53578544D01*
X170069307Y53622902D01*
X170113360Y53666649D01*
X170119405Y53674061D01*
X170204826Y53780303D01*
X170238815Y53832244D01*
X170273539Y53883724D01*
X170278029Y53892169D01*
X170341187Y54012979D01*
X170364451Y54070558D01*
X170388503Y54127776D01*
X170391268Y54136932D01*
X170429758Y54267709D01*
X170441399Y54328734D01*
X170453875Y54389514D01*
X170454809Y54399032D01*
X170467164Y54534794D01*
X170466730Y54596883D01*
X170467163Y54658961D01*
X170466230Y54668479D01*
X170451980Y54804056D01*
X170439499Y54864856D01*
X170427863Y54925857D01*
X170425099Y54935013D01*
X170384787Y55065240D01*
X170360718Y55122498D01*
X170337471Y55180037D01*
X170332981Y55188482D01*
X170268143Y55308397D01*
X170233435Y55359854D01*
X170199429Y55411820D01*
X170193384Y55419232D01*
X170106488Y55524271D01*
X170062415Y55568038D01*
X170018995Y55612376D01*
X170011626Y55618473D01*
X169905983Y55704633D01*
X169854249Y55739004D01*
X169803046Y55774064D01*
X169794633Y55778614D01*
X169674267Y55842614D01*
X169616845Y55866281D01*
X169559802Y55890730D01*
X169550665Y55893559D01*
X169420161Y55932961D01*
X169359228Y55945026D01*
X169298530Y55957928D01*
X169289018Y55958928D01*
X169153345Y55972231D01*
X169153337Y55972231D01*
X169120147Y55975500D01*
X160924853Y55975500D01*
X160890963Y55972162D01*
X160881902Y55972162D01*
X160872390Y55971163D01*
X160736916Y55955967D01*
X160676197Y55943061D01*
X160615287Y55931000D01*
X160606151Y55928172D01*
X160476209Y55886952D01*
X160419096Y55862473D01*
X160361745Y55838835D01*
X160353332Y55834287D01*
X160233871Y55768613D01*
X160182623Y55733523D01*
X160130932Y55699179D01*
X160123562Y55693083D01*
X160019132Y55605456D01*
X159975694Y55561098D01*
X159931640Y55517351D01*
X159925595Y55509940D01*
X159840174Y55403697D01*
X159806185Y55351756D01*
X159771461Y55300276D01*
X159766971Y55291831D01*
X159703813Y55171021D01*
X159680549Y55113442D01*
X159656497Y55056224D01*
X159653732Y55047068D01*
X159615242Y54916291D01*
X159603600Y54855260D01*
X159591125Y54794486D01*
X159590191Y54784968D01*
X159577836Y54649206D01*
X159578270Y54587117D01*
X159577837Y54525039D01*
X159578770Y54515521D01*
X159593020Y54379943D01*
X159605501Y54319142D01*
X159617137Y54258143D01*
X159619901Y54248987D01*
X159660213Y54118760D01*
X159684276Y54061518D01*
X159707529Y54003964D01*
X159712019Y53995519D01*
X159776857Y53875603D01*
X159811570Y53824138D01*
X159845571Y53772180D01*
X159851616Y53764768D01*
X159938512Y53659729D01*
X159955437Y53642922D01*
X159894866Y53457215D01*
X160025796Y53257742D01*
X159863240Y53257742D01*
X159863240Y53246162D01*
X158512669Y54596732D01*
X158569717Y54666246D01*
X158628682Y54776560D01*
X158664992Y54896258D01*
X158677252Y55020740D01*
X158677252Y56320740D01*
X158664992Y56445222D01*
X158628682Y56564920D01*
X158569717Y56675234D01*
X158490365Y56771925D01*
X158393674Y56851277D01*
X158283360Y56910242D01*
X158163662Y56946552D01*
X158039180Y56958812D01*
X157688815Y56958812D01*
X157883307Y57017811D01*
X158106542Y57137132D01*
X158302208Y57297712D01*
X158462788Y57493378D01*
X158582109Y57716613D01*
X158655587Y57958836D01*
X158680397Y58210740D01*
X158655587Y58462644D01*
X158582109Y58704867D01*
X158462788Y58928102D01*
X158302208Y59123768D01*
X158106542Y59284348D01*
X158039589Y59320135D01*
X162276777Y59320135D01*
X162277644Y59258058D01*
X162277644Y59195971D01*
X162278644Y59186460D01*
X162322154Y58798560D01*
X162335060Y58737841D01*
X162347121Y58676931D01*
X162349949Y58667795D01*
X162467973Y58295734D01*
X162492419Y58238697D01*
X162516090Y58181267D01*
X162520639Y58172854D01*
X162708683Y57830804D01*
X162743762Y57779573D01*
X162778116Y57727866D01*
X162784211Y57720500D01*
X162784214Y57720495D01*
X162784218Y57720491D01*
X163035112Y57421486D01*
X163079490Y57378028D01*
X163123218Y57333994D01*
X163130629Y57327949D01*
X163434831Y57083364D01*
X163486806Y57049352D01*
X163538252Y57014652D01*
X163546693Y57010163D01*
X163546701Y57010159D01*
X163892609Y56829323D01*
X163950174Y56806065D01*
X164007407Y56782007D01*
X164016563Y56779242D01*
X164391012Y56669035D01*
X164452043Y56657393D01*
X164512817Y56644918D01*
X164522331Y56643984D01*
X164522335Y56643984D01*
X164911061Y56608608D01*
X164973144Y56609042D01*
X165035227Y56608608D01*
X165044745Y56609542D01*
X165044749Y56609542D01*
X165432938Y56650343D01*
X165493719Y56662820D01*
X165554740Y56674460D01*
X165563896Y56677224D01*
X165936771Y56792648D01*
X165994050Y56816726D01*
X166051568Y56839965D01*
X166060013Y56844454D01*
X166403368Y57030106D01*
X166454815Y57064808D01*
X166506790Y57098819D01*
X166514202Y57104864D01*
X166814957Y57353671D01*
X166858704Y57397724D01*
X166903061Y57441162D01*
X166909158Y57448532D01*
X167155859Y57751016D01*
X167190227Y57802745D01*
X167225291Y57853955D01*
X167229841Y57862368D01*
X167413090Y58207010D01*
X167436735Y58264376D01*
X167461208Y58321476D01*
X167464036Y58330613D01*
X167576854Y58704284D01*
X167588917Y58765209D01*
X167601821Y58825914D01*
X167602821Y58835426D01*
X167640911Y59223895D01*
X167640911Y59257401D01*
X167644180Y59290743D01*
X167644113Y59300307D01*
X167643333Y59356150D01*
X167639599Y59389439D01*
X167639131Y59422938D01*
X167637999Y59432435D01*
X167589078Y59819689D01*
X167575320Y59880244D01*
X167562414Y59940961D01*
X167559459Y59950057D01*
X167436251Y60320433D01*
X167411000Y60377147D01*
X167386541Y60434214D01*
X167381875Y60442563D01*
X167189074Y60781955D01*
X167153278Y60832699D01*
X167118210Y60883915D01*
X167112017Y60891191D01*
X167112012Y60891198D01*
X167112006Y60891203D01*
X166856960Y61186677D01*
X166812020Y61229473D01*
X166767643Y61272930D01*
X166760147Y61278871D01*
X166452562Y61519183D01*
X166400130Y61552457D01*
X166348191Y61586445D01*
X166339685Y61590817D01*
X165991280Y61766809D01*
X165933419Y61789252D01*
X165875833Y61812518D01*
X165866639Y61815154D01*
X165490686Y61920122D01*
X165429548Y61930902D01*
X165368557Y61942537D01*
X165359029Y61943337D01*
X165359027Y61943337D01*
X164969846Y61973282D01*
X164907777Y61971982D01*
X164845695Y61971548D01*
X164836190Y61970483D01*
X164448604Y61924267D01*
X164387939Y61910929D01*
X164327147Y61898450D01*
X164318030Y61895558D01*
X163946804Y61774938D01*
X163889917Y61750084D01*
X163832680Y61726024D01*
X163824299Y61721417D01*
X163483569Y61530990D01*
X163432607Y61495570D01*
X163381119Y61460841D01*
X163373792Y61454693D01*
X163076539Y61201712D01*
X163033412Y61157053D01*
X162989662Y61112996D01*
X162983669Y61105542D01*
X162741216Y60799641D01*
X162707583Y60747452D01*
X162673228Y60695744D01*
X162668797Y60687268D01*
X162490377Y60340102D01*
X162467527Y60282390D01*
X162443863Y60224976D01*
X162441163Y60215801D01*
X162333573Y59840590D01*
X162322373Y59779566D01*
X162310306Y59718622D01*
X162309439Y59709097D01*
X162276777Y59320135D01*
X158039589Y59320135D01*
X157975827Y59354216D01*
X158044746Y59483153D01*
X158088203Y59626414D01*
X158092457Y59669603D01*
X158106542Y59677132D01*
X158302208Y59837712D01*
X158462788Y60033378D01*
X158582109Y60256613D01*
X158655587Y60498836D01*
X158680397Y60750740D01*
X158655587Y61002644D01*
X158582109Y61244867D01*
X158462788Y61468102D01*
X158302208Y61663768D01*
X158106542Y61824348D01*
X157883307Y61943669D01*
X157641084Y62017147D01*
X157604603Y62020740D01*
X157641084Y62024333D01*
X157883307Y62097811D01*
X158106542Y62217132D01*
X158302208Y62377712D01*
X158462788Y62573378D01*
X158582109Y62796613D01*
X158655587Y63038836D01*
X158680397Y63290740D01*
X158655587Y63542644D01*
X158582109Y63784867D01*
X158462788Y64008102D01*
X158302208Y64203768D01*
X158255940Y64241739D01*
X158887804Y64873602D01*
X158916801Y64897399D01*
X158959396Y64949301D01*
X159011774Y65013123D01*
X159082346Y65145153D01*
X159096555Y65191995D01*
X159125803Y65288414D01*
X159136800Y65400067D01*
X159136800Y65400077D01*
X159140476Y65437400D01*
X159136800Y65474723D01*
X159136800Y67037000D01*
X171622810Y67037000D01*
X171574686Y67011277D01*
X171477995Y66931925D01*
X171398643Y66835234D01*
X171339678Y66724920D01*
X171303368Y66605222D01*
X171291108Y66480740D01*
X171291108Y65180740D01*
X171303368Y65056258D01*
X171339678Y64936560D01*
X171398643Y64826246D01*
X171477995Y64729555D01*
X171574686Y64650203D01*
X171685000Y64591238D01*
X171804698Y64554928D01*
X171929180Y64542668D01*
X172229545Y64542668D01*
X172035053Y64483669D01*
X171811818Y64364348D01*
X171616152Y64203768D01*
X171455572Y64008102D01*
X171336251Y63784867D01*
X171262773Y63542644D01*
X171237963Y63290740D01*
X171262773Y63038836D01*
X171336251Y62796613D01*
X171455572Y62573378D01*
X171616152Y62377712D01*
X171811818Y62217132D01*
X172035053Y62097811D01*
X172277276Y62024333D01*
X172313757Y62020740D01*
X172277276Y62017147D01*
X172035053Y61943669D01*
X171811818Y61824348D01*
X171616152Y61663768D01*
X171455572Y61468102D01*
X171336251Y61244867D01*
X171262773Y61002644D01*
X171237963Y60750740D01*
X171262773Y60498836D01*
X171336251Y60256613D01*
X171455572Y60033378D01*
X171616152Y59837712D01*
X171811818Y59677132D01*
X172035053Y59557811D01*
X172277276Y59484333D01*
X172313757Y59480740D01*
X172277276Y59477147D01*
X172035053Y59403669D01*
X171811818Y59284348D01*
X171616152Y59123768D01*
X171455572Y58928102D01*
X171336251Y58704867D01*
X171262773Y58462644D01*
X171237963Y58210740D01*
X171262773Y57958836D01*
X171336251Y57716613D01*
X171455572Y57493378D01*
X171616152Y57297712D01*
X171811818Y57137132D01*
X172035053Y57017811D01*
X172277276Y56944333D01*
X172313757Y56940740D01*
X172277276Y56937147D01*
X172035053Y56863669D01*
X171811818Y56744348D01*
X171616152Y56583768D01*
X171455572Y56388102D01*
X171336251Y56164867D01*
X171262773Y55922644D01*
X171237963Y55670740D01*
X171262773Y55418836D01*
X171336251Y55176613D01*
X171455572Y54953378D01*
X171616152Y54757712D01*
X171811818Y54597132D01*
X172035053Y54477811D01*
X172277276Y54404333D01*
X172452178Y54387107D01*
X172452178Y54253184D01*
X172252705Y54384114D01*
X172013496Y54306093D01*
X171794105Y54182904D01*
X171602962Y54019281D01*
X171447413Y53821512D01*
X171333436Y53597197D01*
X171286081Y53456211D01*
X171410113Y53257740D01*
X172452180Y53257740D01*
X172452180Y53277740D01*
X172706180Y53277740D01*
X172706180Y53257740D01*
X173748247Y53257740D01*
X173872279Y53456211D01*
X173824924Y53597197D01*
X173710947Y53821512D01*
X173555398Y54019281D01*
X173525354Y54045000D01*
X176170928Y54045000D01*
X176174000Y53480750D01*
X176332750Y53322000D01*
X177532000Y53322000D01*
X177532000Y53342000D01*
X177786000Y53342000D01*
X177786000Y53322000D01*
X178985250Y53322000D01*
X179144000Y53480750D01*
X179147072Y54045000D01*
X179134812Y54169482D01*
X179098502Y54289180D01*
X179039537Y54399494D01*
X178960185Y54496185D01*
X178863494Y54575537D01*
X178753180Y54634502D01*
X178680620Y54656513D01*
X178812475Y54788368D01*
X178974990Y55031589D01*
X179086932Y55301842D01*
X179144000Y55588740D01*
X179144000Y55881260D01*
X179086932Y56168158D01*
X178974990Y56438411D01*
X178812475Y56681632D01*
X178605632Y56888475D01*
X178431240Y57005000D01*
X178605632Y57121525D01*
X178812475Y57328368D01*
X178974990Y57571589D01*
X179086932Y57841842D01*
X179144000Y58128740D01*
X179144000Y58421260D01*
X179086932Y58708158D01*
X178974990Y58978411D01*
X178812475Y59221632D01*
X178605632Y59428475D01*
X178431240Y59545000D01*
X178605632Y59661525D01*
X178812475Y59868368D01*
X178974990Y60111589D01*
X179086932Y60381842D01*
X179144000Y60668740D01*
X179144000Y60961260D01*
X179086932Y61248158D01*
X178974990Y61518411D01*
X178812475Y61761632D01*
X178605632Y61968475D01*
X178431240Y62085000D01*
X178605632Y62201525D01*
X178812475Y62408368D01*
X178974990Y62651589D01*
X179086932Y62921842D01*
X179144000Y63208740D01*
X179144000Y63501260D01*
X179086932Y63788158D01*
X179045742Y63887600D01*
X181136824Y63887600D01*
X181140501Y63850267D01*
X181140500Y48398822D01*
X181136824Y48361500D01*
X181140500Y48324178D01*
X181140500Y48324168D01*
X181151497Y48212515D01*
X181165761Y48165493D01*
X181194954Y48069254D01*
X181265526Y47937224D01*
X181273569Y47927424D01*
X181360499Y47821499D01*
X181389503Y47797696D01*
X181702131Y47485068D01*
X181700064Y47480078D01*
X181638000Y47168064D01*
X181638000Y46849936D01*
X181700064Y46537922D01*
X181821806Y46244011D01*
X181998548Y45979498D01*
X182223498Y45754548D01*
X182341820Y45675488D01*
X182311456Y45590150D01*
X183253000Y44648605D01*
X183267142Y44662748D01*
X183446748Y44483142D01*
X183432605Y44469000D01*
X184176938Y43724667D01*
X184178000Y43484750D01*
X184336750Y43326000D01*
X185666000Y43326000D01*
X185666000Y43346000D01*
X185920000Y43346000D01*
X185920000Y43326000D01*
X187249250Y43326000D01*
X187408000Y43484750D01*
X187411072Y44179000D01*
X187398812Y44303482D01*
X187362502Y44423180D01*
X187303537Y44533494D01*
X187224185Y44630185D01*
X187127494Y44709537D01*
X187017180Y44768502D01*
X186917639Y44798697D01*
X187176507Y44890804D01*
X187315397Y45177011D01*
X187395784Y45484814D01*
X187414576Y45802386D01*
X187371052Y46117522D01*
X187266884Y46418112D01*
X187176507Y46587196D01*
X186914150Y46680544D01*
X185972605Y45739000D01*
X185986748Y45724858D01*
X185807142Y45545252D01*
X185793000Y45559395D01*
X185778858Y45545252D01*
X185599252Y45724858D01*
X185613395Y45739000D01*
X185599252Y45753142D01*
X185778858Y45932748D01*
X185793000Y45918605D01*
X186734544Y46860150D01*
X186704180Y46945488D01*
X186822502Y47024548D01*
X187047452Y47249498D01*
X187224194Y47514011D01*
X187345936Y47807922D01*
X187408000Y48119936D01*
X187408000Y48438064D01*
X187345936Y48750078D01*
X187343869Y48755068D01*
X187615303Y49026501D01*
X187644301Y49050299D01*
X187739274Y49166024D01*
X187809846Y49298053D01*
X187853303Y49441314D01*
X187864300Y49552967D01*
X187864300Y49552976D01*
X187867976Y49590299D01*
X187864300Y49627622D01*
X187864300Y53579128D01*
X189908000Y53579128D01*
X189908000Y53138872D01*
X189993890Y52707075D01*
X190162369Y52300331D01*
X190406962Y51934271D01*
X190718271Y51622962D01*
X191084331Y51378369D01*
X191491075Y51209890D01*
X191922872Y51124000D01*
X192363128Y51124000D01*
X192794925Y51209890D01*
X193201669Y51378369D01*
X193567729Y51622962D01*
X193879038Y51934271D01*
X194123631Y52300331D01*
X194292110Y52707075D01*
X194378000Y53138872D01*
X194378000Y53579128D01*
X194292110Y54010925D01*
X194123631Y54417669D01*
X193879038Y54783729D01*
X193567729Y55095038D01*
X193201669Y55339631D01*
X192794925Y55508110D01*
X192363128Y55594000D01*
X191922872Y55594000D01*
X191491075Y55508110D01*
X191084331Y55339631D01*
X190718271Y55095038D01*
X190406962Y54783729D01*
X190162369Y54417669D01*
X189993890Y54010925D01*
X189908000Y53579128D01*
X187864300Y53579128D01*
X187864300Y60343228D01*
X189871000Y60343228D01*
X189871000Y59902972D01*
X189956890Y59471175D01*
X190125369Y59064431D01*
X190369962Y58698371D01*
X190681271Y58387062D01*
X191047331Y58142469D01*
X191454075Y57973990D01*
X191885872Y57888100D01*
X192326128Y57888100D01*
X192757925Y57973990D01*
X193164669Y58142469D01*
X193530729Y58387062D01*
X193842038Y58698371D01*
X194086631Y59064431D01*
X194255110Y59471175D01*
X194341000Y59902972D01*
X194341000Y60343228D01*
X194255110Y60775025D01*
X194086631Y61181769D01*
X193842038Y61547829D01*
X193530729Y61859138D01*
X193164669Y62103731D01*
X192757925Y62272210D01*
X192326128Y62358100D01*
X191885872Y62358100D01*
X191454075Y62272210D01*
X191047331Y62103731D01*
X190681271Y61859138D01*
X190369962Y61547829D01*
X190125369Y61181769D01*
X189956890Y60775025D01*
X189871000Y60343228D01*
X187864300Y60343228D01*
X187864300Y65087478D01*
X187867976Y65124801D01*
X187864300Y65162124D01*
X187864300Y65162133D01*
X187853303Y65273786D01*
X187809846Y65417047D01*
X187795654Y65443598D01*
X187739274Y65549077D01*
X187668099Y65635803D01*
X187644301Y65664801D01*
X187615304Y65688598D01*
X187306869Y65997032D01*
X187308936Y66002022D01*
X187371000Y66314036D01*
X187371000Y66632164D01*
X187308936Y66944178D01*
X187187194Y67238089D01*
X187010452Y67502602D01*
X186785502Y67727552D01*
X186762233Y67743100D01*
X186785502Y67758648D01*
X187010452Y67983598D01*
X187187194Y68248111D01*
X187308936Y68542022D01*
X187371000Y68854036D01*
X187371000Y69172164D01*
X187308936Y69484178D01*
X187187194Y69778089D01*
X187010452Y70042602D01*
X186785502Y70267552D01*
X186520989Y70444294D01*
X186227078Y70566036D01*
X185915064Y70628100D01*
X185596936Y70628100D01*
X185284922Y70566036D01*
X184991011Y70444294D01*
X184831000Y70337378D01*
X184831000Y70442164D01*
X184768936Y70754178D01*
X184647194Y71048089D01*
X184470452Y71312602D01*
X184245502Y71537552D01*
X183980989Y71714294D01*
X183838710Y71773228D01*
X189871000Y71773228D01*
X189871000Y71332972D01*
X189956890Y70901175D01*
X190125369Y70494431D01*
X190369962Y70128371D01*
X190681271Y69817062D01*
X191047331Y69572469D01*
X191454075Y69403990D01*
X191885872Y69318100D01*
X192326128Y69318100D01*
X192757925Y69403990D01*
X193164669Y69572469D01*
X193530729Y69817062D01*
X193842038Y70128371D01*
X194086631Y70494431D01*
X194255110Y70901175D01*
X194341000Y71332972D01*
X194341000Y71773228D01*
X194255110Y72205025D01*
X194086631Y72611769D01*
X193842038Y72977829D01*
X193530729Y73289138D01*
X193164669Y73533731D01*
X192757925Y73702210D01*
X192326128Y73788100D01*
X191885872Y73788100D01*
X191454075Y73702210D01*
X191047331Y73533731D01*
X190681271Y73289138D01*
X190369962Y72977829D01*
X190125369Y72611769D01*
X189956890Y72205025D01*
X189871000Y71773228D01*
X183838710Y71773228D01*
X183687078Y71836036D01*
X183375064Y71898100D01*
X183056936Y71898100D01*
X182744922Y71836036D01*
X182451011Y71714294D01*
X182186498Y71537552D01*
X181961548Y71312602D01*
X181784806Y71048089D01*
X181663064Y70754178D01*
X181601000Y70442164D01*
X181601000Y70124036D01*
X181663064Y69812022D01*
X181784806Y69518111D01*
X181961548Y69253598D01*
X182186498Y69028648D01*
X182304820Y68949588D01*
X182274456Y68864250D01*
X183216000Y67922705D01*
X183230142Y67936848D01*
X183409748Y67757242D01*
X183395605Y67743100D01*
X183409748Y67728958D01*
X183230142Y67549352D01*
X183216000Y67563495D01*
X182274456Y66621950D01*
X182304820Y66536612D01*
X182186498Y66457552D01*
X181961548Y66232602D01*
X181784806Y65968089D01*
X181663064Y65674178D01*
X181601000Y65362164D01*
X181601000Y65044036D01*
X181663064Y64732022D01*
X181665131Y64727032D01*
X181389498Y64451399D01*
X181360500Y64427601D01*
X181336702Y64398603D01*
X181336701Y64398602D01*
X181265526Y64311876D01*
X181194954Y64179846D01*
X181175907Y64117054D01*
X181151498Y64036586D01*
X181146420Y63985024D01*
X181136824Y63887600D01*
X179045742Y63887600D01*
X178974990Y64058411D01*
X178812475Y64301632D01*
X178605632Y64508475D01*
X178362411Y64670990D01*
X178092158Y64782932D01*
X177805260Y64840000D01*
X177512740Y64840000D01*
X177225842Y64782932D01*
X176955589Y64670990D01*
X176712368Y64508475D01*
X176505525Y64301632D01*
X176343010Y64058411D01*
X176231068Y63788158D01*
X176174000Y63501260D01*
X176174000Y63208740D01*
X176231068Y62921842D01*
X176343010Y62651589D01*
X176505525Y62408368D01*
X176712368Y62201525D01*
X176886760Y62085000D01*
X176712368Y61968475D01*
X176505525Y61761632D01*
X176343010Y61518411D01*
X176231068Y61248158D01*
X176174000Y60961260D01*
X176174000Y60668740D01*
X176231068Y60381842D01*
X176343010Y60111589D01*
X176505525Y59868368D01*
X176712368Y59661525D01*
X176886760Y59545000D01*
X176712368Y59428475D01*
X176505525Y59221632D01*
X176343010Y58978411D01*
X176231068Y58708158D01*
X176174000Y58421260D01*
X176174000Y58128740D01*
X176231068Y57841842D01*
X176343010Y57571589D01*
X176505525Y57328368D01*
X176712368Y57121525D01*
X176886760Y57005000D01*
X176712368Y56888475D01*
X176505525Y56681632D01*
X176343010Y56438411D01*
X176231068Y56168158D01*
X176174000Y55881260D01*
X176174000Y55588740D01*
X176231068Y55301842D01*
X176343010Y55031589D01*
X176505525Y54788368D01*
X176637380Y54656513D01*
X176564820Y54634502D01*
X176454506Y54575537D01*
X176357815Y54496185D01*
X176278463Y54399494D01*
X176219498Y54289180D01*
X176183188Y54169482D01*
X176170928Y54045000D01*
X173525354Y54045000D01*
X173364255Y54182904D01*
X173144864Y54306093D01*
X172905655Y54384114D01*
X172706182Y54253184D01*
X172706182Y54387107D01*
X172881084Y54404333D01*
X173123307Y54477811D01*
X173346542Y54597132D01*
X173542208Y54757712D01*
X173702788Y54953378D01*
X173822109Y55176613D01*
X173895587Y55418836D01*
X173920397Y55670740D01*
X173895587Y55922644D01*
X173822109Y56164867D01*
X173702788Y56388102D01*
X173542208Y56583768D01*
X173346542Y56744348D01*
X173123307Y56863669D01*
X172881084Y56937147D01*
X172844603Y56940740D01*
X172881084Y56944333D01*
X173123307Y57017811D01*
X173346542Y57137132D01*
X173542208Y57297712D01*
X173702788Y57493378D01*
X173822109Y57716613D01*
X173895587Y57958836D01*
X173920397Y58210740D01*
X173895587Y58462644D01*
X173822109Y58704867D01*
X173702788Y58928102D01*
X173542208Y59123768D01*
X173346542Y59284348D01*
X173123307Y59403669D01*
X172881084Y59477147D01*
X172844603Y59480740D01*
X172881084Y59484333D01*
X173123307Y59557811D01*
X173346542Y59677132D01*
X173542208Y59837712D01*
X173702788Y60033378D01*
X173822109Y60256613D01*
X173895587Y60498836D01*
X173920397Y60750740D01*
X173895587Y61002644D01*
X173822109Y61244867D01*
X173702788Y61468102D01*
X173542208Y61663768D01*
X173346542Y61824348D01*
X173123307Y61943669D01*
X172881084Y62017147D01*
X172844603Y62020740D01*
X172881084Y62024333D01*
X173123307Y62097811D01*
X173346542Y62217132D01*
X173542208Y62377712D01*
X173702788Y62573378D01*
X173822109Y62796613D01*
X173895587Y63038836D01*
X173920397Y63290740D01*
X173895587Y63542644D01*
X173822109Y63784867D01*
X173702788Y64008102D01*
X173542208Y64203768D01*
X173346542Y64364348D01*
X173123307Y64483669D01*
X172928815Y64542668D01*
X173229180Y64542668D01*
X173353662Y64554928D01*
X173473360Y64591238D01*
X173583674Y64650203D01*
X173680365Y64729555D01*
X173759717Y64826246D01*
X173818682Y64936560D01*
X173854992Y65056258D01*
X173867252Y65180740D01*
X173867252Y66480740D01*
X173854992Y66605222D01*
X173818682Y66724920D01*
X173759717Y66835234D01*
X173680365Y66931925D01*
X173583674Y67011277D01*
X173535550Y67037000D01*
X174102000Y67037000D01*
X174126776Y67039440D01*
X174150601Y67046667D01*
X174172557Y67058403D01*
X174191803Y67074197D01*
X174207597Y67093443D01*
X174219333Y67115399D01*
X174226560Y67139224D01*
X174229000Y67164000D01*
X174229000Y67679714D01*
X181594424Y67679714D01*
X181637948Y67364578D01*
X181742116Y67063988D01*
X181832493Y66894904D01*
X182094850Y66801556D01*
X183036395Y67743100D01*
X182094850Y68684644D01*
X181832493Y68591296D01*
X181693603Y68305089D01*
X181613216Y67997286D01*
X181594424Y67679714D01*
X174229000Y67679714D01*
X174229000Y75546000D01*
X174226560Y75570776D01*
X174219333Y75594601D01*
X174207597Y75616557D01*
X174191803Y75635803D01*
X174172557Y75651597D01*
X174150601Y75663333D01*
X174126776Y75670560D01*
X174102000Y75673000D01*
X159116000Y75673000D01*
X159091224Y75670560D01*
X159067399Y75663333D01*
X159045443Y75651597D01*
X159026197Y75635803D01*
X159010403Y75616557D01*
X158998667Y75594601D01*
X158991440Y75570776D01*
X158989000Y75546000D01*
X158989000Y71889827D01*
X158940599Y71948803D01*
X158916801Y71977801D01*
X158887803Y72001599D01*
X158324512Y72564889D01*
X158462788Y72733378D01*
X158582109Y72956613D01*
X158655587Y73198836D01*
X158680397Y73450740D01*
X158655587Y73702644D01*
X158582109Y73944867D01*
X158462788Y74168102D01*
X158302208Y74363768D01*
X158106542Y74524348D01*
X157883307Y74643669D01*
X157641084Y74717147D01*
X157452303Y74735740D01*
X157226057Y74735740D01*
X157037276Y74717147D01*
X156795053Y74643669D01*
X156571818Y74524348D01*
X156376152Y74363768D01*
X156215572Y74168102D01*
X156096251Y73944867D01*
X156022773Y73702644D01*
X155997963Y73450740D01*
X156022773Y73198836D01*
X156096251Y72956613D01*
X156215572Y72733378D01*
X156376152Y72537712D01*
X156571818Y72377132D01*
X156585945Y72369581D01*
X156590197Y72326415D01*
X156627020Y72205025D01*
X156633654Y72183154D01*
X156702564Y72054233D01*
X156571818Y71984348D01*
X156376152Y71823768D01*
X156215572Y71628102D01*
X156096251Y71404867D01*
X156022773Y71162644D01*
X155997963Y70910740D01*
X156022773Y70658836D01*
X156096251Y70416613D01*
X156215572Y70193378D01*
X156353865Y70024868D01*
X152248999Y65920000D01*
X149930853Y65920000D01*
X149973314Y66022510D01*
X150027000Y66292408D01*
X150027000Y66567592D01*
X149973314Y66837490D01*
X149868005Y67091727D01*
X149715120Y67320535D01*
X149520535Y67515120D01*
X149291727Y67668005D01*
X149037490Y67773314D01*
X148767592Y67827000D01*
X148492408Y67827000D01*
X148222510Y67773314D01*
X147968273Y67668005D01*
X147739465Y67515120D01*
X147544880Y67320535D01*
X147391995Y67091727D01*
X147360000Y67014485D01*
X147328005Y67091727D01*
X147175120Y67320535D01*
X146980535Y67515120D01*
X146751727Y67668005D01*
X146497490Y67773314D01*
X146227592Y67827000D01*
X145952408Y67827000D01*
X145682510Y67773314D01*
X145428273Y67668005D01*
X145199465Y67515120D01*
X145004880Y67320535D01*
X144851995Y67091727D01*
X144746686Y66837490D01*
X144693000Y66567592D01*
X132827000Y66567592D01*
X132827000Y73260000D01*
X132824560Y73284776D01*
X132817333Y73308601D01*
X132805597Y73330557D01*
X132789803Y73349803D01*
X132770557Y73365597D01*
X132748601Y73377333D01*
X132724776Y73384560D01*
X132700000Y73387000D01*
X120660000Y73387000D01*
X120660000Y77170883D01*
X121265000Y77170883D01*
X121265000Y76829117D01*
X121331675Y76493919D01*
X121462463Y76178169D01*
X121652337Y75894002D01*
X121894002Y75652337D01*
X122178169Y75462463D01*
X122493919Y75331675D01*
X122829117Y75265000D01*
X123170883Y75265000D01*
X123506081Y75331675D01*
X123821831Y75462463D01*
X124105998Y75652337D01*
X124347663Y75894002D01*
X124537537Y76178169D01*
X124668325Y76493919D01*
X124735000Y76829117D01*
X124735000Y77170883D01*
X195265000Y77170883D01*
X195265000Y76829117D01*
X195331675Y76493919D01*
X195462463Y76178169D01*
X195652337Y75894002D01*
X195894002Y75652337D01*
X196178169Y75462463D01*
X196493919Y75331675D01*
X196829117Y75265000D01*
X197170883Y75265000D01*
X197506081Y75331675D01*
X197821831Y75462463D01*
X198105998Y75652337D01*
X198347663Y75894002D01*
X198537537Y76178169D01*
X198668325Y76493919D01*
X198735000Y76829117D01*
X198735000Y77170883D01*
X198668325Y77506081D01*
X198537537Y77821831D01*
X198347663Y78105998D01*
X198105998Y78347663D01*
X197821831Y78537537D01*
X197506081Y78668325D01*
X197170883Y78735000D01*
X196829117Y78735000D01*
X196493919Y78668325D01*
X196178169Y78537537D01*
X195894002Y78347663D01*
X195652337Y78105998D01*
X195462463Y77821831D01*
X195331675Y77506081D01*
X195265000Y77170883D01*
X124735000Y77170883D01*
X124668325Y77506081D01*
X124537537Y77821831D01*
X124347663Y78105998D01*
X124105998Y78347663D01*
X123821831Y78537537D01*
X123506081Y78668325D01*
X123170883Y78735000D01*
X122829117Y78735000D01*
X122493919Y78668325D01*
X122178169Y78537537D01*
X121894002Y78347663D01*
X121652337Y78105998D01*
X121462463Y77821831D01*
X121331675Y77506081D01*
X121265000Y77170883D01*
X120660000Y77170883D01*
X120660000Y79340000D01*
X199340001Y79340000D01*
X199340000Y74967582D01*
%TA.AperFunction,Conductor*%
D34*
G36*
X199340000Y74967582D02*
G01*
X199340001Y74967572D01*
X199340000Y25660000D01*
X120660000Y25660000D01*
X120660000Y28170883D01*
X121265000Y28170883D01*
X121265000Y27829117D01*
X121331675Y27493919D01*
X121462463Y27178169D01*
X121652337Y26894002D01*
X121894002Y26652337D01*
X122178169Y26462463D01*
X122493919Y26331675D01*
X122829117Y26265000D01*
X123170883Y26265000D01*
X123506081Y26331675D01*
X123821831Y26462463D01*
X124105998Y26652337D01*
X124347663Y26894002D01*
X124537537Y27178169D01*
X124668325Y27493919D01*
X124709615Y27701500D01*
X129115000Y27701500D01*
X129115000Y27201500D01*
X129161585Y26982513D01*
X129249997Y26776822D01*
X129376839Y26592331D01*
X129537236Y26436131D01*
X129725024Y26314224D01*
X129948126Y26234381D01*
X130123000Y26360546D01*
X130123000Y27701500D01*
X130377000Y27701500D01*
X130377000Y26360546D01*
X130551874Y26234381D01*
X130774976Y26314224D01*
X130962764Y26436131D01*
X131123161Y26592331D01*
X131250003Y26776822D01*
X131338415Y26982513D01*
X131385000Y27201500D01*
X131385000Y27701500D01*
X137755000Y27701500D01*
X137755000Y27201500D01*
X137801585Y26982513D01*
X137889997Y26776822D01*
X138016839Y26592331D01*
X138177236Y26436131D01*
X138365024Y26314224D01*
X138588126Y26234381D01*
X138763000Y26360546D01*
X138763000Y27701500D01*
X139017000Y27701500D01*
X139017000Y26360546D01*
X139191874Y26234381D01*
X139414976Y26314224D01*
X139602764Y26436131D01*
X139763161Y26592331D01*
X139890003Y26776822D01*
X139978415Y26982513D01*
X140025000Y27201500D01*
X140025000Y27701500D01*
X139017000Y27701500D01*
X138763000Y27701500D01*
X137755000Y27701500D01*
X131385000Y27701500D01*
X130377000Y27701500D01*
X130123000Y27701500D01*
X129115000Y27701500D01*
X124709615Y27701500D01*
X124728135Y27794609D01*
X146974519Y27794609D01*
X147071843Y27520248D01*
X147220822Y27270145D01*
X147415731Y27053912D01*
X147649080Y26879859D01*
X147911901Y26754675D01*
X148059110Y26710024D01*
X148289000Y26831345D01*
X148289000Y28024500D01*
X147095186Y28024500D01*
X146974519Y27794609D01*
X124728135Y27794609D01*
X124735000Y27829117D01*
X124735000Y28170883D01*
X124678387Y28455500D01*
X129115000Y28455500D01*
X129115000Y27955500D01*
X130123000Y27955500D01*
X130123000Y29296454D01*
X130377000Y29296454D01*
X130377000Y27955500D01*
X131385000Y27955500D01*
X131385000Y28455500D01*
X137755000Y28455500D01*
X137755000Y27955500D01*
X138763000Y27955500D01*
X138763000Y29296454D01*
X139017000Y29296454D01*
X139017000Y27955500D01*
X140025000Y27955500D01*
X140025000Y28455500D01*
X140013749Y28508391D01*
X146974519Y28508391D01*
X147095186Y28278500D01*
X148289000Y28278500D01*
X148289000Y29471655D01*
X148059110Y29592976D01*
X147911901Y29548325D01*
X147649080Y29423141D01*
X147415731Y29249088D01*
X147220822Y29032855D01*
X147071843Y28782752D01*
X146974519Y28508391D01*
X140013749Y28508391D01*
X139978415Y28674487D01*
X139890003Y28880178D01*
X139763161Y29064669D01*
X139602764Y29220869D01*
X139414976Y29342776D01*
X139191874Y29422619D01*
X139017000Y29296454D01*
X138763000Y29296454D01*
X138588126Y29422619D01*
X138365024Y29342776D01*
X138177236Y29220869D01*
X138016839Y29064669D01*
X137889997Y28880178D01*
X137801585Y28674487D01*
X137755000Y28455500D01*
X131385000Y28455500D01*
X131338415Y28674487D01*
X131250003Y28880178D01*
X131123161Y29064669D01*
X130962764Y29220869D01*
X130774976Y29342776D01*
X130551874Y29422619D01*
X130377000Y29296454D01*
X130123000Y29296454D01*
X129948126Y29422619D01*
X129725024Y29342776D01*
X129537236Y29220869D01*
X129376839Y29064669D01*
X129249997Y28880178D01*
X129161585Y28674487D01*
X129115000Y28455500D01*
X124678387Y28455500D01*
X124668325Y28506081D01*
X124537537Y28821831D01*
X124347663Y29105998D01*
X124105998Y29347663D01*
X123821831Y29537537D01*
X123506081Y29668325D01*
X123170883Y29735000D01*
X122829117Y29735000D01*
X122493919Y29668325D01*
X122178169Y29537537D01*
X121894002Y29347663D01*
X121652337Y29105998D01*
X121462463Y28821831D01*
X121331675Y28506081D01*
X121265000Y28170883D01*
X120660000Y28170883D01*
X120660000Y31501500D01*
X129115000Y31501500D01*
X129115000Y31001500D01*
X129161585Y30782513D01*
X129249997Y30576822D01*
X129376839Y30392331D01*
X129537236Y30236131D01*
X129725024Y30114224D01*
X129948126Y30034381D01*
X130123000Y30160546D01*
X130123000Y31501500D01*
X130377000Y31501500D01*
X130377000Y30160546D01*
X130551874Y30034381D01*
X130774976Y30114224D01*
X130962764Y30236131D01*
X131123161Y30392331D01*
X131250003Y30576822D01*
X131338415Y30782513D01*
X131385000Y31001500D01*
X131385000Y31501500D01*
X137755000Y31501500D01*
X137755000Y31001500D01*
X137801585Y30782513D01*
X137889997Y30576822D01*
X138016839Y30392331D01*
X138177236Y30236131D01*
X138365024Y30114224D01*
X138588126Y30034381D01*
X138763000Y30160546D01*
X138763000Y31501500D01*
X139017000Y31501500D01*
X139017000Y30160546D01*
X139191874Y30034381D01*
X139414976Y30114224D01*
X139602764Y30236131D01*
X139763161Y30392331D01*
X139890003Y30576822D01*
X139978415Y30782513D01*
X140025000Y31001500D01*
X140025000Y31501500D01*
X139017000Y31501500D01*
X138763000Y31501500D01*
X137755000Y31501500D01*
X131385000Y31501500D01*
X130377000Y31501500D01*
X130123000Y31501500D01*
X129115000Y31501500D01*
X120660000Y31501500D01*
X120660000Y33102280D01*
X123901753Y33102280D01*
X123921736Y32899385D01*
X123980919Y32704287D01*
X124077026Y32524483D01*
X124206364Y32366884D01*
X124363963Y32237546D01*
X124543767Y32141439D01*
X124738865Y32082256D01*
X124890922Y32067280D01*
X125492598Y32067280D01*
X125644655Y32082256D01*
X125839753Y32141439D01*
X126019557Y32237546D01*
X126041434Y32255500D01*
X129115000Y32255500D01*
X129115000Y31755500D01*
X130123000Y31755500D01*
X130123000Y33096454D01*
X130377000Y33096454D01*
X130377000Y31755500D01*
X131385000Y31755500D01*
X131385000Y32255500D01*
X137755000Y32255500D01*
X137755000Y31755500D01*
X138763000Y31755500D01*
X138763000Y33096454D01*
X139017000Y33096454D01*
X139017000Y31755500D01*
X140025000Y31755500D01*
X140025000Y32255500D01*
X139978415Y32474487D01*
X139890003Y32680178D01*
X139763161Y32864669D01*
X139602764Y33020869D01*
X139414976Y33142776D01*
X139191874Y33222619D01*
X139017000Y33096454D01*
X138763000Y33096454D01*
X138588126Y33222619D01*
X138365024Y33142776D01*
X138177236Y33020869D01*
X138016839Y32864669D01*
X137889997Y32680178D01*
X137801585Y32474487D01*
X137755000Y32255500D01*
X131385000Y32255500D01*
X131338415Y32474487D01*
X131250003Y32680178D01*
X131123161Y32864669D01*
X130962764Y33020869D01*
X130774976Y33142776D01*
X130551874Y33222619D01*
X130377000Y33096454D01*
X130123000Y33096454D01*
X129948126Y33222619D01*
X129725024Y33142776D01*
X129537236Y33020869D01*
X129376839Y32864669D01*
X129249997Y32680178D01*
X129161585Y32474487D01*
X129115000Y32255500D01*
X126041434Y32255500D01*
X126177156Y32366884D01*
X126306494Y32524483D01*
X126402601Y32704287D01*
X126461784Y32899385D01*
X126481767Y33102280D01*
X126461784Y33305175D01*
X126402601Y33500273D01*
X126359085Y33581687D01*
X126372297Y33597786D01*
X126431262Y33708100D01*
X126467572Y33827798D01*
X126479832Y33952280D01*
X126476760Y34066530D01*
X126318010Y34225280D01*
X125318760Y34225280D01*
X125318760Y34205280D01*
X125064760Y34205280D01*
X125064760Y34225280D01*
X124065510Y34225280D01*
X123906760Y34066530D01*
X123903688Y33952280D01*
X123915948Y33827798D01*
X123952258Y33708100D01*
X124011223Y33597786D01*
X124024435Y33581687D01*
X123980919Y33500273D01*
X123921736Y33305175D01*
X123901753Y33102280D01*
X120660000Y33102280D01*
X120660000Y34752280D01*
X123903688Y34752280D01*
X123906760Y34638030D01*
X124065510Y34479280D01*
X125064760Y34479280D01*
X125064760Y35228530D01*
X125318760Y35228530D01*
X125318760Y34479280D01*
X126318010Y34479280D01*
X126476760Y34638030D01*
X126479832Y34752280D01*
X126467572Y34876762D01*
X126431262Y34996460D01*
X126372297Y35106774D01*
X126292945Y35203465D01*
X126196254Y35282817D01*
X126085940Y35341782D01*
X125966242Y35378092D01*
X125841760Y35390352D01*
X125477510Y35387280D01*
X125318760Y35228530D01*
X125064760Y35228530D01*
X124906010Y35387280D01*
X124541760Y35390352D01*
X124417278Y35378092D01*
X124297580Y35341782D01*
X124187266Y35282817D01*
X124090575Y35203465D01*
X124011223Y35106774D01*
X123952258Y34996460D01*
X123915948Y34876762D01*
X123903688Y34752280D01*
X120660000Y34752280D01*
X120660000Y42978459D01*
X132460020Y42978459D01*
X132460020Y42774581D01*
X132499794Y42574622D01*
X132577815Y42386264D01*
X132691083Y42216746D01*
X132835246Y42072583D01*
X133004764Y41959315D01*
X133193122Y41881294D01*
X133393081Y41841520D01*
X133596959Y41841520D01*
X133796918Y41881294D01*
X133985276Y41959315D01*
X134114112Y42045400D01*
X134728558Y42045400D01*
X134771422Y41965208D01*
X134825878Y41883709D01*
X134905230Y41787018D01*
X134974538Y41717710D01*
X135071229Y41638358D01*
X135152728Y41583902D01*
X135263045Y41524936D01*
X135353601Y41487427D01*
X135473297Y41451118D01*
X135569430Y41431996D01*
X135693911Y41419736D01*
X135718470Y41419736D01*
X135742920Y41417328D01*
X136242920Y41417328D01*
X136367402Y41429588D01*
X136392920Y41437329D01*
X136418438Y41429588D01*
X136542920Y41417328D01*
X137042920Y41417328D01*
X137067370Y41419736D01*
X137091929Y41419736D01*
X137216410Y41431996D01*
X137312543Y41451118D01*
X137432239Y41487427D01*
X137522795Y41524936D01*
X137633112Y41583902D01*
X137714611Y41638358D01*
X137811302Y41717710D01*
X137880610Y41787018D01*
X137959962Y41883709D01*
X138014418Y41965208D01*
X138057282Y42045400D01*
X139634359Y42045400D01*
X147777525Y33902232D01*
X147801319Y33873239D01*
X147830312Y33849445D01*
X147830316Y33849441D01*
X147882181Y33806877D01*
X147890802Y33799802D01*
X147676241Y33656437D01*
X147477643Y33457839D01*
X147476812Y33466282D01*
X147440502Y33585980D01*
X147381537Y33696294D01*
X147302185Y33792985D01*
X147205494Y33872337D01*
X147095180Y33931302D01*
X146975482Y33967612D01*
X146851000Y33979872D01*
X145251000Y33979872D01*
X145126518Y33967612D01*
X145006820Y33931302D01*
X144896506Y33872337D01*
X144799815Y33792985D01*
X144720463Y33696294D01*
X144661498Y33585980D01*
X144625188Y33466282D01*
X144612928Y33341800D01*
X144612928Y31741800D01*
X144625188Y31617318D01*
X144661498Y31497620D01*
X144720463Y31387306D01*
X144799815Y31290615D01*
X144896506Y31211263D01*
X145006820Y31152298D01*
X145126518Y31115988D01*
X145251000Y31103728D01*
X146851000Y31103728D01*
X146975482Y31115988D01*
X147095180Y31152298D01*
X147205494Y31211263D01*
X147302185Y31290615D01*
X147381537Y31387306D01*
X147440502Y31497620D01*
X147476812Y31617318D01*
X147477643Y31625761D01*
X147676241Y31427163D01*
X147911273Y31270120D01*
X148172426Y31161947D01*
X148449665Y31106800D01*
X148732335Y31106800D01*
X149009574Y31161947D01*
X149270727Y31270120D01*
X149505759Y31427163D01*
X149705637Y31627041D01*
X149861000Y31859559D01*
X150016363Y31627041D01*
X150216241Y31427163D01*
X150371001Y31323756D01*
X150371000Y29811969D01*
X150321026Y29751076D01*
X150261425Y29639572D01*
X150106000Y29639572D01*
X149981518Y29627312D01*
X149861820Y29591002D01*
X149751506Y29532037D01*
X149654815Y29452685D01*
X149575463Y29355994D01*
X149516498Y29245680D01*
X149492034Y29165034D01*
X149416269Y29249088D01*
X149182920Y29423141D01*
X148920099Y29548325D01*
X148772890Y29592976D01*
X148543000Y29471655D01*
X148543000Y28278500D01*
X148563000Y28278500D01*
X148563000Y28024500D01*
X148543000Y28024500D01*
X148543000Y26831345D01*
X148772890Y26710024D01*
X148920099Y26754675D01*
X149182920Y26879859D01*
X149416269Y27053912D01*
X149492034Y27137966D01*
X149516498Y27057320D01*
X149575463Y26947006D01*
X149654815Y26850315D01*
X149751506Y26770963D01*
X149861820Y26711998D01*
X149981518Y26675688D01*
X150106000Y26663428D01*
X151806000Y26663428D01*
X151930482Y26675688D01*
X152050180Y26711998D01*
X152160494Y26770963D01*
X152257185Y26850315D01*
X152336537Y26947006D01*
X152395502Y27057320D01*
X152431812Y27177018D01*
X152444072Y27301500D01*
X152444072Y27695933D01*
X185401000Y27695933D01*
X185401000Y27373867D01*
X185463832Y27057988D01*
X185587082Y26760437D01*
X185766013Y26492648D01*
X185993748Y26264913D01*
X186261537Y26085982D01*
X186559088Y25962732D01*
X186874967Y25899900D01*
X187197033Y25899900D01*
X187512912Y25962732D01*
X187810463Y26085982D01*
X188078252Y26264913D01*
X188305987Y26492648D01*
X188484918Y26760437D01*
X188608168Y27057988D01*
X188671000Y27373867D01*
X188671000Y27695933D01*
X188608168Y28011812D01*
X188484918Y28309363D01*
X188334219Y28534900D01*
X190477928Y28534900D01*
X190477928Y26534900D01*
X190490188Y26410418D01*
X190526498Y26290720D01*
X190585463Y26180406D01*
X190664815Y26083715D01*
X190761506Y26004363D01*
X190871820Y25945398D01*
X190991518Y25909088D01*
X191116000Y25896828D01*
X193116000Y25896828D01*
X193240482Y25909088D01*
X193360180Y25945398D01*
X193470494Y26004363D01*
X193567185Y26083715D01*
X193646537Y26180406D01*
X193705502Y26290720D01*
X193741812Y26410418D01*
X193754072Y26534900D01*
X193754072Y28170883D01*
X195265000Y28170883D01*
X195265000Y27829117D01*
X195331675Y27493919D01*
X195462463Y27178169D01*
X195652337Y26894002D01*
X195894002Y26652337D01*
X196178169Y26462463D01*
X196493919Y26331675D01*
X196829117Y26265000D01*
X197170883Y26265000D01*
X197506081Y26331675D01*
X197821831Y26462463D01*
X198105998Y26652337D01*
X198347663Y26894002D01*
X198537537Y27178169D01*
X198668325Y27493919D01*
X198735000Y27829117D01*
X198735000Y28170883D01*
X198668325Y28506081D01*
X198537537Y28821831D01*
X198347663Y29105998D01*
X198105998Y29347663D01*
X197821831Y29537537D01*
X197506081Y29668325D01*
X197170883Y29735000D01*
X196829117Y29735000D01*
X196493919Y29668325D01*
X196178169Y29537537D01*
X195894002Y29347663D01*
X195652337Y29105998D01*
X195462463Y28821831D01*
X195331675Y28506081D01*
X195265000Y28170883D01*
X193754072Y28170883D01*
X193754072Y28534900D01*
X193741812Y28659382D01*
X193705502Y28779080D01*
X193646537Y28889394D01*
X193567185Y28986085D01*
X193470494Y29065437D01*
X193360180Y29124402D01*
X193240482Y29160712D01*
X193116000Y29172972D01*
X191116000Y29172972D01*
X190991518Y29160712D01*
X190871820Y29124402D01*
X190761506Y29065437D01*
X190664815Y28986085D01*
X190585463Y28889394D01*
X190526498Y28779080D01*
X190490188Y28659382D01*
X190477928Y28534900D01*
X188334219Y28534900D01*
X188305987Y28577152D01*
X188078252Y28804887D01*
X187810463Y28983818D01*
X187796000Y28989809D01*
X187796000Y32743300D01*
X187798974Y32746924D01*
X187869546Y32878953D01*
X187913003Y33022214D01*
X187920295Y33096250D01*
X188015013Y33159538D01*
X188200962Y33345487D01*
X188347061Y33564141D01*
X188447696Y33807095D01*
X188499000Y34065014D01*
X188499000Y34327986D01*
X188447696Y34585905D01*
X188347061Y34828859D01*
X188200962Y35047513D01*
X188015013Y35233462D01*
X187796359Y35379561D01*
X187553405Y35480196D01*
X187295486Y35531500D01*
X187032514Y35531500D01*
X186774595Y35480196D01*
X186531641Y35379561D01*
X186312987Y35233462D01*
X186127038Y35047513D01*
X185980939Y34828859D01*
X185880304Y34585905D01*
X185829000Y34327986D01*
X185829000Y34065014D01*
X185880304Y33807095D01*
X185980939Y33564141D01*
X186127038Y33345487D01*
X186286400Y33186125D01*
X186276000Y33080532D01*
X186276000Y33080522D01*
X186272324Y33043200D01*
X186276000Y33005877D01*
X186276001Y28989809D01*
X186261537Y28983818D01*
X185993748Y28804887D01*
X185766013Y28577152D01*
X185587082Y28309363D01*
X185463832Y28011812D01*
X185401000Y27695933D01*
X152444072Y27695933D01*
X152444072Y29001500D01*
X152431812Y29125982D01*
X152395502Y29245680D01*
X152336537Y29355994D01*
X152257185Y29452685D01*
X152160494Y29532037D01*
X152050180Y29591002D01*
X151930482Y29627312D01*
X151891000Y29631201D01*
X151891000Y31323757D01*
X152045759Y31427163D01*
X152245637Y31627041D01*
X152401000Y31859559D01*
X152556363Y31627041D01*
X152756241Y31427163D01*
X152991273Y31270120D01*
X153252426Y31161947D01*
X153529665Y31106800D01*
X153812335Y31106800D01*
X154089574Y31161947D01*
X154350727Y31270120D01*
X154585759Y31427163D01*
X154785637Y31627041D01*
X154942680Y31862073D01*
X155050853Y32123226D01*
X155106000Y32400465D01*
X155106000Y32683135D01*
X155050853Y32960374D01*
X154942680Y33221527D01*
X154785637Y33456559D01*
X154585759Y33656437D01*
X154350727Y33813480D01*
X154089574Y33921653D01*
X153812335Y33976800D01*
X153529665Y33976800D01*
X153252426Y33921653D01*
X152991273Y33813480D01*
X152756241Y33656437D01*
X152556363Y33456559D01*
X152401000Y33224041D01*
X152245637Y33456559D01*
X152045759Y33656437D01*
X151810727Y33813480D01*
X151549574Y33921653D01*
X151272335Y33976800D01*
X150989665Y33976800D01*
X150807114Y33940488D01*
X149823364Y34924237D01*
X149799561Y34953241D01*
X149683836Y35048214D01*
X149551807Y35118786D01*
X149408546Y35162243D01*
X149296893Y35173240D01*
X149296882Y35173240D01*
X149259560Y35176916D01*
X149222238Y35173240D01*
X148656123Y35173240D01*
X146586228Y37243135D01*
X180665000Y37243135D01*
X180665000Y36960465D01*
X180720147Y36683226D01*
X180828320Y36422073D01*
X180985363Y36187041D01*
X181185241Y35987163D01*
X181324000Y35894447D01*
X181324001Y35294275D01*
X181232987Y35233462D01*
X181047038Y35047513D01*
X180900939Y34828859D01*
X180800304Y34585905D01*
X180749000Y34327986D01*
X180749000Y34065014D01*
X180800304Y33807095D01*
X180900939Y33564141D01*
X181047038Y33345487D01*
X181232987Y33159538D01*
X181451641Y33013439D01*
X181694595Y32912804D01*
X181952514Y32861500D01*
X182215486Y32861500D01*
X182473405Y32912804D01*
X182716359Y33013439D01*
X182935013Y33159538D01*
X183120962Y33345487D01*
X183267061Y33564141D01*
X183367696Y33807095D01*
X183419000Y34065014D01*
X183419000Y34327986D01*
X183367696Y34585905D01*
X183267061Y34828859D01*
X183120962Y35047513D01*
X182935013Y35233462D01*
X182844000Y35294275D01*
X182844000Y35873066D01*
X183014759Y35987163D01*
X183214637Y36187041D01*
X183371680Y36422073D01*
X183479853Y36683226D01*
X183535000Y36960465D01*
X183535000Y37243135D01*
X185665000Y37243135D01*
X185665000Y36960465D01*
X185720147Y36683226D01*
X185828320Y36422073D01*
X185985363Y36187041D01*
X186185241Y35987163D01*
X186420273Y35830120D01*
X186681426Y35721947D01*
X186958665Y35666800D01*
X187241335Y35666800D01*
X187518574Y35721947D01*
X187779727Y35830120D01*
X188014759Y35987163D01*
X188214637Y36187041D01*
X188371680Y36422073D01*
X188479853Y36683226D01*
X188535000Y36960465D01*
X188535000Y37243135D01*
X188479853Y37520374D01*
X188371680Y37781527D01*
X188214637Y38016559D01*
X188014759Y38216437D01*
X187779727Y38373480D01*
X187518574Y38481653D01*
X187241335Y38536800D01*
X186958665Y38536800D01*
X186681426Y38481653D01*
X186420273Y38373480D01*
X186185241Y38216437D01*
X185985363Y38016559D01*
X185828320Y37781527D01*
X185720147Y37520374D01*
X185665000Y37243135D01*
X183535000Y37243135D01*
X183479853Y37520374D01*
X183371680Y37781527D01*
X183214637Y38016559D01*
X183014759Y38216437D01*
X182779727Y38373480D01*
X182518574Y38481653D01*
X182241335Y38536800D01*
X181958665Y38536800D01*
X181681426Y38481653D01*
X181420273Y38373480D01*
X181185241Y38216437D01*
X180985363Y38016559D01*
X180828320Y37781527D01*
X180720147Y37520374D01*
X180665000Y37243135D01*
X146586228Y37243135D01*
X143526227Y40303135D01*
X144616000Y40303135D01*
X144616000Y40020465D01*
X144671147Y39743226D01*
X144779320Y39482073D01*
X144936363Y39247041D01*
X145136241Y39047163D01*
X145371273Y38890120D01*
X145632426Y38781947D01*
X145909665Y38726800D01*
X146192335Y38726800D01*
X146469574Y38781947D01*
X146730727Y38890120D01*
X146965759Y39047163D01*
X147165637Y39247041D01*
X147321000Y39479559D01*
X147476363Y39247041D01*
X147676241Y39047163D01*
X147911273Y38890120D01*
X148172426Y38781947D01*
X148449665Y38726800D01*
X148732335Y38726800D01*
X149009574Y38781947D01*
X149270727Y38890120D01*
X149505759Y39047163D01*
X149705637Y39247041D01*
X149862680Y39482073D01*
X149867067Y39492665D01*
X149978615Y39306669D01*
X150167586Y39098281D01*
X150393580Y38930763D01*
X150647913Y38810554D01*
X150781961Y38769896D01*
X151004000Y38891885D01*
X151004000Y40034800D01*
X150984000Y40034800D01*
X150984000Y40288800D01*
X151004000Y40288800D01*
X151004000Y41431715D01*
X151258000Y41431715D01*
X151258000Y40288800D01*
X151278000Y40288800D01*
X151278000Y40034800D01*
X151258000Y40034800D01*
X151258000Y38891885D01*
X151480039Y38769896D01*
X151614087Y38810554D01*
X151868420Y38930763D01*
X152094414Y39098281D01*
X152283385Y39306669D01*
X152394933Y39492665D01*
X152399320Y39482073D01*
X152556363Y39247041D01*
X152756241Y39047163D01*
X152991273Y38890120D01*
X153252426Y38781947D01*
X153529665Y38726800D01*
X153812335Y38726800D01*
X154089574Y38781947D01*
X154350727Y38890120D01*
X154585759Y39047163D01*
X154785637Y39247041D01*
X154942680Y39482073D01*
X155050853Y39743226D01*
X155106000Y40020465D01*
X155106000Y40303135D01*
X155050853Y40580374D01*
X154942680Y40841527D01*
X154785637Y41076559D01*
X154585759Y41276437D01*
X154350727Y41433480D01*
X154089574Y41541653D01*
X153812335Y41596800D01*
X153529665Y41596800D01*
X153252426Y41541653D01*
X152991273Y41433480D01*
X152756241Y41276437D01*
X152556363Y41076559D01*
X152399320Y40841527D01*
X152394933Y40830935D01*
X152283385Y41016931D01*
X152094414Y41225319D01*
X151868420Y41392837D01*
X151614087Y41513046D01*
X151480039Y41553704D01*
X151258000Y41431715D01*
X151004000Y41431715D01*
X150781961Y41553704D01*
X150647913Y41513046D01*
X150393580Y41392837D01*
X150167586Y41225319D01*
X149978615Y41016931D01*
X149867067Y40830935D01*
X149862680Y40841527D01*
X149705637Y41076559D01*
X149505759Y41276437D01*
X149270727Y41433480D01*
X149009574Y41541653D01*
X148732335Y41596800D01*
X148449665Y41596800D01*
X148172426Y41541653D01*
X147911273Y41433480D01*
X147676241Y41276437D01*
X147476363Y41076559D01*
X147321000Y40844041D01*
X147165637Y41076559D01*
X146965759Y41276437D01*
X146730727Y41433480D01*
X146469574Y41541653D01*
X146192335Y41596800D01*
X145909665Y41596800D01*
X145632426Y41541653D01*
X145371273Y41433480D01*
X145136241Y41276437D01*
X144936363Y41076559D01*
X144779320Y40841527D01*
X144671147Y40580374D01*
X144616000Y40303135D01*
X143526227Y40303135D01*
X142001923Y41827439D01*
X169066900Y41827439D01*
X169066900Y41623561D01*
X169106674Y41423602D01*
X169184695Y41235244D01*
X169297963Y41065726D01*
X169442126Y40921563D01*
X169611644Y40808295D01*
X169800002Y40730274D01*
X169999961Y40690500D01*
X170203839Y40690500D01*
X170403798Y40730274D01*
X170592156Y40808295D01*
X170761674Y40921563D01*
X170905837Y41065726D01*
X171019105Y41235244D01*
X171097126Y41423602D01*
X171136900Y41623561D01*
X171136900Y41827439D01*
X171097126Y42027398D01*
X171019105Y42215756D01*
X171016938Y42219000D01*
X184174928Y42219000D01*
X184187188Y42094518D01*
X184223498Y41974820D01*
X184282463Y41864506D01*
X184361815Y41767815D01*
X184458506Y41688463D01*
X184568820Y41629498D01*
X184688518Y41593188D01*
X184813000Y41580928D01*
X185507250Y41584000D01*
X185666000Y41742750D01*
X185666000Y43072000D01*
X185920000Y43072000D01*
X185920000Y41742750D01*
X186078750Y41584000D01*
X186773000Y41580928D01*
X186897482Y41593188D01*
X187017180Y41629498D01*
X187127494Y41688463D01*
X187224185Y41767815D01*
X187303537Y41864506D01*
X187362502Y41974820D01*
X187398812Y42094518D01*
X187404190Y42149128D01*
X189908000Y42149128D01*
X189908000Y41708872D01*
X189993890Y41277075D01*
X190162369Y40870331D01*
X190406962Y40504271D01*
X190718271Y40192962D01*
X191084331Y39948369D01*
X191491075Y39779890D01*
X191922872Y39694000D01*
X192363128Y39694000D01*
X192794925Y39779890D01*
X193201669Y39948369D01*
X193567729Y40192962D01*
X193879038Y40504271D01*
X194123631Y40870331D01*
X194292110Y41277075D01*
X194378000Y41708872D01*
X194378000Y42149128D01*
X194292110Y42580925D01*
X194123631Y42987669D01*
X193879038Y43353729D01*
X193567729Y43665038D01*
X193201669Y43909631D01*
X192794925Y44078110D01*
X192363128Y44164000D01*
X191922872Y44164000D01*
X191491075Y44078110D01*
X191084331Y43909631D01*
X190718271Y43665038D01*
X190406962Y43353729D01*
X190162369Y42987669D01*
X189993890Y42580925D01*
X189908000Y42149128D01*
X187404190Y42149128D01*
X187411072Y42219000D01*
X187408000Y42913250D01*
X187249250Y43072000D01*
X185920000Y43072000D01*
X185666000Y43072000D01*
X184336750Y43072000D01*
X184178000Y42913250D01*
X184174928Y42219000D01*
X171016938Y42219000D01*
X170905837Y42385274D01*
X170902140Y42388971D01*
X170902140Y43347850D01*
X182311456Y43347850D01*
X182404804Y43085493D01*
X182691011Y42946603D01*
X182998814Y42866216D01*
X183316386Y42847424D01*
X183631522Y42890948D01*
X183932112Y42995116D01*
X184101196Y43085493D01*
X184194544Y43347850D01*
X183253000Y44289395D01*
X182311456Y43347850D01*
X170902140Y43347850D01*
X170902140Y44405614D01*
X181631424Y44405614D01*
X181674948Y44090478D01*
X181779116Y43789888D01*
X181869493Y43620804D01*
X182131850Y43527456D01*
X183073395Y44469000D01*
X182131850Y45410544D01*
X181869493Y45317196D01*
X181730603Y45030989D01*
X181650216Y44723186D01*
X181631424Y44405614D01*
X170902140Y44405614D01*
X170902140Y47806529D01*
X170946077Y47850466D01*
X171059345Y48019984D01*
X171137366Y48208342D01*
X171177140Y48408301D01*
X171177140Y48612179D01*
X171137366Y48812138D01*
X171059345Y49000496D01*
X170946077Y49170014D01*
X170801914Y49314177D01*
X170632396Y49427445D01*
X170444038Y49505466D01*
X170244079Y49545240D01*
X170040201Y49545240D01*
X169840242Y49505466D01*
X169651884Y49427445D01*
X169482366Y49314177D01*
X169338203Y49170014D01*
X169224935Y49000496D01*
X169146914Y48812138D01*
X169107140Y48612179D01*
X169107140Y48408301D01*
X169146914Y48208342D01*
X169224935Y48019984D01*
X169338203Y47850466D01*
X169382140Y47806529D01*
X169382141Y42469452D01*
X169297963Y42385274D01*
X169184695Y42215756D01*
X169106674Y42027398D01*
X169066900Y41827439D01*
X142001923Y41827439D01*
X140512964Y43316397D01*
X140489161Y43345401D01*
X140373436Y43440374D01*
X140241407Y43510946D01*
X140098146Y43554403D01*
X139986493Y43565400D01*
X139986482Y43565400D01*
X139949160Y43569076D01*
X139911838Y43565400D01*
X138057282Y43565400D01*
X138014418Y43645592D01*
X137959962Y43727091D01*
X137880610Y43823782D01*
X137811302Y43893090D01*
X137714611Y43972442D01*
X137633112Y44026898D01*
X137522795Y44085864D01*
X137432239Y44123373D01*
X137312543Y44159682D01*
X137216410Y44178804D01*
X137091929Y44191064D01*
X137067370Y44191064D01*
X137042920Y44193472D01*
X136542920Y44193472D01*
X136418438Y44181212D01*
X136392920Y44173471D01*
X136367402Y44181212D01*
X136242920Y44193472D01*
X135742920Y44193472D01*
X135718470Y44191064D01*
X135693911Y44191064D01*
X135569430Y44178804D01*
X135473297Y44159682D01*
X135353601Y44123373D01*
X135263045Y44085864D01*
X135152728Y44026898D01*
X135071229Y43972442D01*
X134974538Y43893090D01*
X134905230Y43823782D01*
X134825878Y43727091D01*
X134771422Y43645592D01*
X134728558Y43565400D01*
X134269851Y43565400D01*
X134154794Y43680457D01*
X133985276Y43793725D01*
X133796918Y43871746D01*
X133596959Y43911520D01*
X133393081Y43911520D01*
X133193122Y43871746D01*
X133004764Y43793725D01*
X132835246Y43680457D01*
X132691083Y43536294D01*
X132577815Y43366776D01*
X132499794Y43178418D01*
X132460020Y42978459D01*
X120660000Y42978459D01*
X120660000Y46213486D01*
X148383000Y46213486D01*
X148383000Y45950514D01*
X148434304Y45692595D01*
X148534939Y45449641D01*
X148681038Y45230987D01*
X148866987Y45045038D01*
X149085641Y44898939D01*
X149328595Y44798304D01*
X149586514Y44747000D01*
X149849486Y44747000D01*
X150107405Y44798304D01*
X150350359Y44898939D01*
X150569013Y45045038D01*
X150754962Y45230987D01*
X150901061Y45449641D01*
X151001696Y45692595D01*
X151053000Y45950514D01*
X151053000Y46213486D01*
X151001696Y46471405D01*
X150901061Y46714359D01*
X150754962Y46933013D01*
X150569013Y47118962D01*
X150350359Y47265061D01*
X150107405Y47365696D01*
X149849486Y47417000D01*
X149586514Y47417000D01*
X149328595Y47365696D01*
X149085641Y47265061D01*
X148866987Y47118962D01*
X148681038Y46933013D01*
X148534939Y46714359D01*
X148434304Y46471405D01*
X148383000Y46213486D01*
X120660000Y46213486D01*
X120660000Y54126519D01*
X148386156Y54126519D01*
X148386156Y53922641D01*
X148425930Y53722682D01*
X148503951Y53534324D01*
X148617219Y53364806D01*
X148761382Y53220643D01*
X148930900Y53107375D01*
X149119258Y53029354D01*
X149288201Y52995749D01*
X149288200Y50473791D01*
X149244263Y50429854D01*
X149130995Y50260336D01*
X149052974Y50071978D01*
X149013200Y49872019D01*
X149013200Y49668141D01*
X149052974Y49468182D01*
X149130995Y49279824D01*
X149244263Y49110306D01*
X149388426Y48966143D01*
X149557944Y48852875D01*
X149746302Y48774854D01*
X149946261Y48735080D01*
X150150139Y48735080D01*
X150350098Y48774854D01*
X150538456Y48852875D01*
X150707974Y48966143D01*
X150852137Y49110306D01*
X150965405Y49279824D01*
X151043426Y49468182D01*
X151083200Y49668141D01*
X151083200Y49872019D01*
X151043426Y50071978D01*
X150965405Y50260336D01*
X150852137Y50429854D01*
X150808200Y50473791D01*
X150808200Y53502107D01*
X150811877Y53539440D01*
X150797203Y53688426D01*
X150753746Y53831687D01*
X150683174Y53963716D01*
X150659915Y53992057D01*
X150588201Y54079441D01*
X150559197Y54103244D01*
X150436350Y54226091D01*
X150416382Y54326478D01*
X150338361Y54514836D01*
X150225093Y54684354D01*
X150080930Y54828517D01*
X149911412Y54941785D01*
X149723054Y55019806D01*
X149523095Y55059580D01*
X149319217Y55059580D01*
X149119258Y55019806D01*
X148930900Y54941785D01*
X148761382Y54828517D01*
X148617219Y54684354D01*
X148503951Y54514836D01*
X148425930Y54326478D01*
X148386156Y54126519D01*
X120660000Y54126519D01*
X120660000Y55353000D01*
X132700000Y55353000D01*
X132724776Y55355440D01*
X132748601Y55362667D01*
X132770557Y55374403D01*
X132789803Y55390197D01*
X132805597Y55409443D01*
X132817333Y55431399D01*
X132824560Y55455224D01*
X132827000Y55480000D01*
X132827000Y66567592D01*
X144693000Y66567592D01*
X144693000Y66292408D01*
X144746686Y66022510D01*
X144851995Y65768273D01*
X145004880Y65539465D01*
X145199465Y65344880D01*
X145428273Y65191995D01*
X145505515Y65160000D01*
X145428273Y65128005D01*
X145199465Y64975120D01*
X145004880Y64780535D01*
X144851995Y64551727D01*
X144746686Y64297490D01*
X144693000Y64027592D01*
X144693000Y63752408D01*
X144746686Y63482510D01*
X144851995Y63228273D01*
X145004880Y62999465D01*
X145199465Y62804880D01*
X145428273Y62651995D01*
X145505515Y62620000D01*
X145428273Y62588005D01*
X145199465Y62435120D01*
X145004880Y62240535D01*
X144851995Y62011727D01*
X144746686Y61757490D01*
X144693000Y61487592D01*
X144693000Y61212408D01*
X144746686Y60942510D01*
X144851995Y60688273D01*
X145004880Y60459465D01*
X145199465Y60264880D01*
X145428273Y60111995D01*
X145505515Y60080000D01*
X145428273Y60048005D01*
X145199465Y59895120D01*
X145004880Y59700535D01*
X144851995Y59471727D01*
X144746686Y59217490D01*
X144693000Y58947592D01*
X144693000Y58672408D01*
X144746686Y58402510D01*
X144851995Y58148273D01*
X145004880Y57919465D01*
X145199465Y57724880D01*
X145428273Y57571995D01*
X145682510Y57466686D01*
X145952408Y57413000D01*
X146227592Y57413000D01*
X146497490Y57466686D01*
X146751727Y57571995D01*
X146980535Y57724880D01*
X147175120Y57919465D01*
X147233920Y58007465D01*
X147242188Y57923518D01*
X147278498Y57803820D01*
X147337463Y57693506D01*
X147416815Y57596815D01*
X147513506Y57517463D01*
X147623820Y57458498D01*
X147743518Y57422188D01*
X147868000Y57409928D01*
X148344250Y57413000D01*
X148503000Y57571750D01*
X148503000Y58683000D01*
X148757000Y58683000D01*
X148757000Y57571750D01*
X148915750Y57413000D01*
X149392000Y57409928D01*
X149516482Y57422188D01*
X149636180Y57458498D01*
X149746494Y57517463D01*
X149843185Y57596815D01*
X149922537Y57693506D01*
X149981502Y57803820D01*
X150017812Y57923518D01*
X150030072Y58048000D01*
X150027000Y58524250D01*
X149868250Y58683000D01*
X148757000Y58683000D01*
X148503000Y58683000D01*
X148483000Y58683000D01*
X148483000Y58937000D01*
X148503000Y58937000D01*
X148503000Y58957000D01*
X148757000Y58957000D01*
X148757000Y58937000D01*
X149868250Y58937000D01*
X150027000Y59095750D01*
X150030072Y59572000D01*
X150017812Y59696482D01*
X149981502Y59816180D01*
X149922537Y59926494D01*
X149843185Y60023185D01*
X149746494Y60102537D01*
X149636180Y60161502D01*
X149516482Y60197812D01*
X149432535Y60206080D01*
X149520535Y60264880D01*
X149715120Y60459465D01*
X149868005Y60688273D01*
X149973314Y60942510D01*
X150027000Y61212408D01*
X150027000Y61487592D01*
X149973314Y61757490D01*
X149868005Y62011727D01*
X149715120Y62240535D01*
X149520535Y62435120D01*
X149291727Y62588005D01*
X149214485Y62620000D01*
X149291727Y62651995D01*
X149520535Y62804880D01*
X149715120Y62999465D01*
X149802341Y63130000D01*
X153796478Y63130000D01*
X153833800Y63126324D01*
X153871122Y63130000D01*
X153871133Y63130000D01*
X153982786Y63140997D01*
X154126047Y63184454D01*
X154258076Y63255026D01*
X154373801Y63349999D01*
X154397604Y63379003D01*
X156186455Y65167853D01*
X156215572Y65113378D01*
X156376152Y64917712D01*
X156382940Y64912142D01*
X153678998Y62208199D01*
X153650000Y62184401D01*
X153626202Y62155403D01*
X153626201Y62155402D01*
X153555026Y62068676D01*
X153484454Y61936646D01*
X153458516Y61851135D01*
X153440998Y61793386D01*
X153437463Y61757490D01*
X153426324Y61644400D01*
X153430001Y61607068D01*
X153430000Y51563176D01*
X153426324Y51525854D01*
X153430000Y51488532D01*
X153430000Y51488522D01*
X153440997Y51376869D01*
X153479442Y51250132D01*
X153484454Y51233608D01*
X153555026Y51101578D01*
X153579795Y51071397D01*
X153649999Y50985853D01*
X153679002Y50962051D01*
X154130000Y50511052D01*
X154129999Y47241246D01*
X153946987Y47118962D01*
X153761038Y46933013D01*
X153614939Y46714359D01*
X153514304Y46471405D01*
X153463000Y46213486D01*
X153463000Y45950514D01*
X153514304Y45692595D01*
X153614939Y45449641D01*
X153761038Y45230987D01*
X153946987Y45045038D01*
X154165641Y44898939D01*
X154408595Y44798304D01*
X154666514Y44747000D01*
X154929486Y44747000D01*
X155187405Y44798304D01*
X155430359Y44898939D01*
X155649013Y45045038D01*
X155834962Y45230987D01*
X155981061Y45449641D01*
X156081696Y45692595D01*
X156133000Y45950514D01*
X156133000Y46213486D01*
X156081696Y46471405D01*
X155981061Y46714359D01*
X155834962Y46933013D01*
X155649999Y47117976D01*
X155649999Y50633897D01*
X155677726Y50582024D01*
X155715445Y50536064D01*
X155772700Y50466299D01*
X155801698Y50442501D01*
X158789013Y47455185D01*
X158733815Y47409885D01*
X158654463Y47313194D01*
X158595498Y47202880D01*
X158559188Y47083182D01*
X158546928Y46958700D01*
X158546928Y45258700D01*
X158559188Y45134218D01*
X158595498Y45014520D01*
X158654463Y44904206D01*
X158733815Y44807515D01*
X158830506Y44728163D01*
X158940820Y44669198D01*
X159060518Y44632888D01*
X159185000Y44620628D01*
X160885000Y44620628D01*
X161009482Y44632888D01*
X161129180Y44669198D01*
X161239494Y44728163D01*
X161336185Y44807515D01*
X161415537Y44904206D01*
X161474502Y45014520D01*
X161496513Y45087080D01*
X161628368Y44955225D01*
X161871589Y44792710D01*
X162141842Y44680768D01*
X162428740Y44623700D01*
X162721260Y44623700D01*
X163008158Y44680768D01*
X163278411Y44792710D01*
X163521632Y44955225D01*
X163728475Y45162068D01*
X163845000Y45336460D01*
X163961525Y45162068D01*
X164168368Y44955225D01*
X164411589Y44792710D01*
X164681842Y44680768D01*
X164968740Y44623700D01*
X165261260Y44623700D01*
X165548158Y44680768D01*
X165818411Y44792710D01*
X166061632Y44955225D01*
X166268475Y45162068D01*
X166430990Y45405289D01*
X166542932Y45675542D01*
X166600000Y45962440D01*
X166600000Y46254960D01*
X166542932Y46541858D01*
X166430990Y46812111D01*
X166268475Y47055332D01*
X166061632Y47262175D01*
X165875000Y47386878D01*
X165875000Y49160099D01*
X168528306Y51813404D01*
X168770780Y51789523D01*
X169022684Y51814333D01*
X169264907Y51887811D01*
X169488142Y52007132D01*
X169683808Y52167712D01*
X169844388Y52363379D01*
X169963709Y52586614D01*
X170030037Y52805269D01*
X171286081Y52805269D01*
X171333436Y52664283D01*
X171447413Y52439968D01*
X171602962Y52242199D01*
X171794105Y52078576D01*
X172013496Y51955387D01*
X172252705Y51877366D01*
X172452180Y52008297D01*
X172452180Y53003740D01*
X172706180Y53003740D01*
X172706180Y52008297D01*
X172905655Y51877366D01*
X173144864Y51955387D01*
X173364255Y52078576D01*
X173555398Y52242199D01*
X173636252Y52345000D01*
X176170928Y52345000D01*
X176183188Y52220518D01*
X176219498Y52100820D01*
X176278463Y51990506D01*
X176357815Y51893815D01*
X176454506Y51814463D01*
X176564820Y51755498D01*
X176684518Y51719188D01*
X176809000Y51706928D01*
X177373250Y51710000D01*
X177532000Y51868750D01*
X177532000Y53068000D01*
X177786000Y53068000D01*
X177786000Y51868750D01*
X177944750Y51710000D01*
X178509000Y51706928D01*
X178633482Y51719188D01*
X178753180Y51755498D01*
X178863494Y51814463D01*
X178960185Y51893815D01*
X179039537Y51990506D01*
X179098502Y52100820D01*
X179134812Y52220518D01*
X179147072Y52345000D01*
X179144000Y52909250D01*
X178985250Y53068000D01*
X177786000Y53068000D01*
X177532000Y53068000D01*
X176332750Y53068000D01*
X176174000Y52909250D01*
X176170928Y52345000D01*
X173636252Y52345000D01*
X173710947Y52439968D01*
X173824924Y52664283D01*
X173872279Y52805269D01*
X173748247Y53003740D01*
X172706180Y53003740D01*
X172452180Y53003740D01*
X171410113Y53003740D01*
X171286081Y52805269D01*
X170030037Y52805269D01*
X170037187Y52828837D01*
X170055780Y53017618D01*
X170055780Y53243863D01*
X170037187Y53432644D01*
X169999612Y53556512D01*
X170025868Y53578544D01*
X170069307Y53622902D01*
X170113360Y53666649D01*
X170119405Y53674061D01*
X170204826Y53780303D01*
X170238815Y53832244D01*
X170273539Y53883724D01*
X170278029Y53892169D01*
X170341187Y54012979D01*
X170364451Y54070558D01*
X170388503Y54127776D01*
X170391268Y54136932D01*
X170429758Y54267709D01*
X170441399Y54328734D01*
X170453875Y54389514D01*
X170454809Y54399032D01*
X170467164Y54534794D01*
X170466730Y54596883D01*
X170467163Y54658961D01*
X170466230Y54668479D01*
X170451980Y54804056D01*
X170439499Y54864856D01*
X170427863Y54925857D01*
X170425099Y54935013D01*
X170384787Y55065240D01*
X170360718Y55122498D01*
X170337471Y55180037D01*
X170332981Y55188482D01*
X170268143Y55308397D01*
X170233435Y55359854D01*
X170199429Y55411820D01*
X170193384Y55419232D01*
X170106488Y55524271D01*
X170062415Y55568038D01*
X170018995Y55612376D01*
X170011626Y55618473D01*
X169905983Y55704633D01*
X169854249Y55739004D01*
X169803046Y55774064D01*
X169794633Y55778614D01*
X169674267Y55842614D01*
X169616845Y55866281D01*
X169559802Y55890730D01*
X169550665Y55893559D01*
X169420161Y55932961D01*
X169359228Y55945026D01*
X169298530Y55957928D01*
X169289018Y55958928D01*
X169153345Y55972231D01*
X169153337Y55972231D01*
X169120147Y55975500D01*
X160924853Y55975500D01*
X160890963Y55972162D01*
X160881902Y55972162D01*
X160872390Y55971163D01*
X160736916Y55955967D01*
X160676197Y55943061D01*
X160615287Y55931000D01*
X160606151Y55928172D01*
X160476209Y55886952D01*
X160419096Y55862473D01*
X160361745Y55838835D01*
X160353332Y55834287D01*
X160233871Y55768613D01*
X160182623Y55733523D01*
X160130932Y55699179D01*
X160123562Y55693083D01*
X160019132Y55605456D01*
X159975694Y55561098D01*
X159931640Y55517351D01*
X159925595Y55509940D01*
X159840174Y55403697D01*
X159806185Y55351756D01*
X159771461Y55300276D01*
X159766971Y55291831D01*
X159703813Y55171021D01*
X159680549Y55113442D01*
X159656497Y55056224D01*
X159653732Y55047068D01*
X159615242Y54916291D01*
X159603600Y54855260D01*
X159591125Y54794486D01*
X159590191Y54784968D01*
X159577836Y54649206D01*
X159578270Y54587117D01*
X159577837Y54525039D01*
X159578770Y54515521D01*
X159593020Y54379943D01*
X159605501Y54319142D01*
X159617137Y54258143D01*
X159619901Y54248987D01*
X159660213Y54118760D01*
X159684276Y54061518D01*
X159707529Y54003964D01*
X159712019Y53995519D01*
X159776857Y53875603D01*
X159811570Y53824138D01*
X159845571Y53772180D01*
X159851616Y53764768D01*
X159938512Y53659729D01*
X159955437Y53642922D01*
X159894866Y53457215D01*
X160025796Y53257742D01*
X159863240Y53257742D01*
X159863240Y53246162D01*
X158512669Y54596732D01*
X158569717Y54666246D01*
X158628682Y54776560D01*
X158664992Y54896258D01*
X158677252Y55020740D01*
X158677252Y56320740D01*
X158664992Y56445222D01*
X158628682Y56564920D01*
X158569717Y56675234D01*
X158490365Y56771925D01*
X158393674Y56851277D01*
X158283360Y56910242D01*
X158163662Y56946552D01*
X158039180Y56958812D01*
X157688815Y56958812D01*
X157883307Y57017811D01*
X158106542Y57137132D01*
X158302208Y57297712D01*
X158462788Y57493378D01*
X158582109Y57716613D01*
X158655587Y57958836D01*
X158680397Y58210740D01*
X158655587Y58462644D01*
X158582109Y58704867D01*
X158462788Y58928102D01*
X158302208Y59123768D01*
X158106542Y59284348D01*
X158039589Y59320135D01*
X162276777Y59320135D01*
X162277644Y59258058D01*
X162277644Y59195971D01*
X162278644Y59186460D01*
X162322154Y58798560D01*
X162335060Y58737841D01*
X162347121Y58676931D01*
X162349949Y58667795D01*
X162467973Y58295734D01*
X162492419Y58238697D01*
X162516090Y58181267D01*
X162520639Y58172854D01*
X162708683Y57830804D01*
X162743762Y57779573D01*
X162778116Y57727866D01*
X162784211Y57720500D01*
X162784214Y57720495D01*
X162784218Y57720491D01*
X163035112Y57421486D01*
X163079490Y57378028D01*
X163123218Y57333994D01*
X163130629Y57327949D01*
X163434831Y57083364D01*
X163486806Y57049352D01*
X163538252Y57014652D01*
X163546693Y57010163D01*
X163546701Y57010159D01*
X163892609Y56829323D01*
X163950174Y56806065D01*
X164007407Y56782007D01*
X164016563Y56779242D01*
X164391012Y56669035D01*
X164452043Y56657393D01*
X164512817Y56644918D01*
X164522331Y56643984D01*
X164522335Y56643984D01*
X164911061Y56608608D01*
X164973144Y56609042D01*
X165035227Y56608608D01*
X165044745Y56609542D01*
X165044749Y56609542D01*
X165432938Y56650343D01*
X165493719Y56662820D01*
X165554740Y56674460D01*
X165563896Y56677224D01*
X165936771Y56792648D01*
X165994050Y56816726D01*
X166051568Y56839965D01*
X166060013Y56844454D01*
X166403368Y57030106D01*
X166454815Y57064808D01*
X166506790Y57098819D01*
X166514202Y57104864D01*
X166814957Y57353671D01*
X166858704Y57397724D01*
X166903061Y57441162D01*
X166909158Y57448532D01*
X167155859Y57751016D01*
X167190227Y57802745D01*
X167225291Y57853955D01*
X167229841Y57862368D01*
X167413090Y58207010D01*
X167436735Y58264376D01*
X167461208Y58321476D01*
X167464036Y58330613D01*
X167576854Y58704284D01*
X167588917Y58765209D01*
X167601821Y58825914D01*
X167602821Y58835426D01*
X167640911Y59223895D01*
X167640911Y59257401D01*
X167644180Y59290743D01*
X167644113Y59300307D01*
X167643333Y59356150D01*
X167639599Y59389439D01*
X167639131Y59422938D01*
X167637999Y59432435D01*
X167589078Y59819689D01*
X167575320Y59880244D01*
X167562414Y59940961D01*
X167559459Y59950057D01*
X167436251Y60320433D01*
X167411000Y60377147D01*
X167386541Y60434214D01*
X167381875Y60442563D01*
X167189074Y60781955D01*
X167153278Y60832699D01*
X167118210Y60883915D01*
X167112017Y60891191D01*
X167112012Y60891198D01*
X167112006Y60891203D01*
X166856960Y61186677D01*
X166812020Y61229473D01*
X166767643Y61272930D01*
X166760147Y61278871D01*
X166452562Y61519183D01*
X166400130Y61552457D01*
X166348191Y61586445D01*
X166339685Y61590817D01*
X165991280Y61766809D01*
X165933419Y61789252D01*
X165875833Y61812518D01*
X165866639Y61815154D01*
X165490686Y61920122D01*
X165429548Y61930902D01*
X165368557Y61942537D01*
X165359029Y61943337D01*
X165359027Y61943337D01*
X164969846Y61973282D01*
X164907777Y61971982D01*
X164845695Y61971548D01*
X164836190Y61970483D01*
X164448604Y61924267D01*
X164387939Y61910929D01*
X164327147Y61898450D01*
X164318030Y61895558D01*
X163946804Y61774938D01*
X163889917Y61750084D01*
X163832680Y61726024D01*
X163824299Y61721417D01*
X163483569Y61530990D01*
X163432607Y61495570D01*
X163381119Y61460841D01*
X163373792Y61454693D01*
X163076539Y61201712D01*
X163033412Y61157053D01*
X162989662Y61112996D01*
X162983669Y61105542D01*
X162741216Y60799641D01*
X162707583Y60747452D01*
X162673228Y60695744D01*
X162668797Y60687268D01*
X162490377Y60340102D01*
X162467527Y60282390D01*
X162443863Y60224976D01*
X162441163Y60215801D01*
X162333573Y59840590D01*
X162322373Y59779566D01*
X162310306Y59718622D01*
X162309439Y59709097D01*
X162276777Y59320135D01*
X158039589Y59320135D01*
X157975827Y59354216D01*
X158044746Y59483153D01*
X158088203Y59626414D01*
X158092457Y59669603D01*
X158106542Y59677132D01*
X158302208Y59837712D01*
X158462788Y60033378D01*
X158582109Y60256613D01*
X158655587Y60498836D01*
X158680397Y60750740D01*
X158655587Y61002644D01*
X158582109Y61244867D01*
X158462788Y61468102D01*
X158302208Y61663768D01*
X158106542Y61824348D01*
X157883307Y61943669D01*
X157641084Y62017147D01*
X157604603Y62020740D01*
X157641084Y62024333D01*
X157883307Y62097811D01*
X158106542Y62217132D01*
X158302208Y62377712D01*
X158462788Y62573378D01*
X158582109Y62796613D01*
X158655587Y63038836D01*
X158680397Y63290740D01*
X158655587Y63542644D01*
X158582109Y63784867D01*
X158462788Y64008102D01*
X158302208Y64203768D01*
X158255940Y64241739D01*
X158887804Y64873602D01*
X158916801Y64897399D01*
X158959396Y64949301D01*
X159011774Y65013123D01*
X159082346Y65145153D01*
X159096555Y65191995D01*
X159125803Y65288414D01*
X159136800Y65400067D01*
X159136800Y65400077D01*
X159140476Y65437400D01*
X159136800Y65474723D01*
X159136800Y67037000D01*
X171622810Y67037000D01*
X171574686Y67011277D01*
X171477995Y66931925D01*
X171398643Y66835234D01*
X171339678Y66724920D01*
X171303368Y66605222D01*
X171291108Y66480740D01*
X171291108Y65180740D01*
X171303368Y65056258D01*
X171339678Y64936560D01*
X171398643Y64826246D01*
X171477995Y64729555D01*
X171574686Y64650203D01*
X171685000Y64591238D01*
X171804698Y64554928D01*
X171929180Y64542668D01*
X172229545Y64542668D01*
X172035053Y64483669D01*
X171811818Y64364348D01*
X171616152Y64203768D01*
X171455572Y64008102D01*
X171336251Y63784867D01*
X171262773Y63542644D01*
X171237963Y63290740D01*
X171262773Y63038836D01*
X171336251Y62796613D01*
X171455572Y62573378D01*
X171616152Y62377712D01*
X171811818Y62217132D01*
X172035053Y62097811D01*
X172277276Y62024333D01*
X172313757Y62020740D01*
X172277276Y62017147D01*
X172035053Y61943669D01*
X171811818Y61824348D01*
X171616152Y61663768D01*
X171455572Y61468102D01*
X171336251Y61244867D01*
X171262773Y61002644D01*
X171237963Y60750740D01*
X171262773Y60498836D01*
X171336251Y60256613D01*
X171455572Y60033378D01*
X171616152Y59837712D01*
X171811818Y59677132D01*
X172035053Y59557811D01*
X172277276Y59484333D01*
X172313757Y59480740D01*
X172277276Y59477147D01*
X172035053Y59403669D01*
X171811818Y59284348D01*
X171616152Y59123768D01*
X171455572Y58928102D01*
X171336251Y58704867D01*
X171262773Y58462644D01*
X171237963Y58210740D01*
X171262773Y57958836D01*
X171336251Y57716613D01*
X171455572Y57493378D01*
X171616152Y57297712D01*
X171811818Y57137132D01*
X172035053Y57017811D01*
X172277276Y56944333D01*
X172313757Y56940740D01*
X172277276Y56937147D01*
X172035053Y56863669D01*
X171811818Y56744348D01*
X171616152Y56583768D01*
X171455572Y56388102D01*
X171336251Y56164867D01*
X171262773Y55922644D01*
X171237963Y55670740D01*
X171262773Y55418836D01*
X171336251Y55176613D01*
X171455572Y54953378D01*
X171616152Y54757712D01*
X171811818Y54597132D01*
X172035053Y54477811D01*
X172277276Y54404333D01*
X172452178Y54387107D01*
X172452178Y54253184D01*
X172252705Y54384114D01*
X172013496Y54306093D01*
X171794105Y54182904D01*
X171602962Y54019281D01*
X171447413Y53821512D01*
X171333436Y53597197D01*
X171286081Y53456211D01*
X171410113Y53257740D01*
X172452180Y53257740D01*
X172452180Y53277740D01*
X172706180Y53277740D01*
X172706180Y53257740D01*
X173748247Y53257740D01*
X173872279Y53456211D01*
X173824924Y53597197D01*
X173710947Y53821512D01*
X173555398Y54019281D01*
X173525354Y54045000D01*
X176170928Y54045000D01*
X176174000Y53480750D01*
X176332750Y53322000D01*
X177532000Y53322000D01*
X177532000Y53342000D01*
X177786000Y53342000D01*
X177786000Y53322000D01*
X178985250Y53322000D01*
X179144000Y53480750D01*
X179147072Y54045000D01*
X179134812Y54169482D01*
X179098502Y54289180D01*
X179039537Y54399494D01*
X178960185Y54496185D01*
X178863494Y54575537D01*
X178753180Y54634502D01*
X178680620Y54656513D01*
X178812475Y54788368D01*
X178974990Y55031589D01*
X179086932Y55301842D01*
X179144000Y55588740D01*
X179144000Y55881260D01*
X179086932Y56168158D01*
X178974990Y56438411D01*
X178812475Y56681632D01*
X178605632Y56888475D01*
X178431240Y57005000D01*
X178605632Y57121525D01*
X178812475Y57328368D01*
X178974990Y57571589D01*
X179086932Y57841842D01*
X179144000Y58128740D01*
X179144000Y58421260D01*
X179086932Y58708158D01*
X178974990Y58978411D01*
X178812475Y59221632D01*
X178605632Y59428475D01*
X178431240Y59545000D01*
X178605632Y59661525D01*
X178812475Y59868368D01*
X178974990Y60111589D01*
X179086932Y60381842D01*
X179144000Y60668740D01*
X179144000Y60961260D01*
X179086932Y61248158D01*
X178974990Y61518411D01*
X178812475Y61761632D01*
X178605632Y61968475D01*
X178431240Y62085000D01*
X178605632Y62201525D01*
X178812475Y62408368D01*
X178974990Y62651589D01*
X179086932Y62921842D01*
X179144000Y63208740D01*
X179144000Y63501260D01*
X179086932Y63788158D01*
X179045742Y63887600D01*
X181136824Y63887600D01*
X181140501Y63850267D01*
X181140500Y48398822D01*
X181136824Y48361500D01*
X181140500Y48324178D01*
X181140500Y48324168D01*
X181151497Y48212515D01*
X181165761Y48165493D01*
X181194954Y48069254D01*
X181265526Y47937224D01*
X181273569Y47927424D01*
X181360499Y47821499D01*
X181389503Y47797696D01*
X181702131Y47485068D01*
X181700064Y47480078D01*
X181638000Y47168064D01*
X181638000Y46849936D01*
X181700064Y46537922D01*
X181821806Y46244011D01*
X181998548Y45979498D01*
X182223498Y45754548D01*
X182341820Y45675488D01*
X182311456Y45590150D01*
X183253000Y44648605D01*
X183267142Y44662748D01*
X183446748Y44483142D01*
X183432605Y44469000D01*
X184176938Y43724667D01*
X184178000Y43484750D01*
X184336750Y43326000D01*
X185666000Y43326000D01*
X185666000Y43346000D01*
X185920000Y43346000D01*
X185920000Y43326000D01*
X187249250Y43326000D01*
X187408000Y43484750D01*
X187411072Y44179000D01*
X187398812Y44303482D01*
X187362502Y44423180D01*
X187303537Y44533494D01*
X187224185Y44630185D01*
X187127494Y44709537D01*
X187017180Y44768502D01*
X186917639Y44798697D01*
X187176507Y44890804D01*
X187315397Y45177011D01*
X187395784Y45484814D01*
X187414576Y45802386D01*
X187371052Y46117522D01*
X187266884Y46418112D01*
X187176507Y46587196D01*
X186914150Y46680544D01*
X185972605Y45739000D01*
X185986748Y45724858D01*
X185807142Y45545252D01*
X185793000Y45559395D01*
X185778858Y45545252D01*
X185599252Y45724858D01*
X185613395Y45739000D01*
X185599252Y45753142D01*
X185778858Y45932748D01*
X185793000Y45918605D01*
X186734544Y46860150D01*
X186704180Y46945488D01*
X186822502Y47024548D01*
X187047452Y47249498D01*
X187224194Y47514011D01*
X187345936Y47807922D01*
X187408000Y48119936D01*
X187408000Y48438064D01*
X187345936Y48750078D01*
X187343869Y48755068D01*
X187615303Y49026501D01*
X187644301Y49050299D01*
X187739274Y49166024D01*
X187809846Y49298053D01*
X187853303Y49441314D01*
X187864300Y49552967D01*
X187864300Y49552976D01*
X187867976Y49590299D01*
X187864300Y49627622D01*
X187864300Y53579128D01*
X189908000Y53579128D01*
X189908000Y53138872D01*
X189993890Y52707075D01*
X190162369Y52300331D01*
X190406962Y51934271D01*
X190718271Y51622962D01*
X191084331Y51378369D01*
X191491075Y51209890D01*
X191922872Y51124000D01*
X192363128Y51124000D01*
X192794925Y51209890D01*
X193201669Y51378369D01*
X193567729Y51622962D01*
X193879038Y51934271D01*
X194123631Y52300331D01*
X194292110Y52707075D01*
X194378000Y53138872D01*
X194378000Y53579128D01*
X194292110Y54010925D01*
X194123631Y54417669D01*
X193879038Y54783729D01*
X193567729Y55095038D01*
X193201669Y55339631D01*
X192794925Y55508110D01*
X192363128Y55594000D01*
X191922872Y55594000D01*
X191491075Y55508110D01*
X191084331Y55339631D01*
X190718271Y55095038D01*
X190406962Y54783729D01*
X190162369Y54417669D01*
X189993890Y54010925D01*
X189908000Y53579128D01*
X187864300Y53579128D01*
X187864300Y60343228D01*
X189871000Y60343228D01*
X189871000Y59902972D01*
X189956890Y59471175D01*
X190125369Y59064431D01*
X190369962Y58698371D01*
X190681271Y58387062D01*
X191047331Y58142469D01*
X191454075Y57973990D01*
X191885872Y57888100D01*
X192326128Y57888100D01*
X192757925Y57973990D01*
X193164669Y58142469D01*
X193530729Y58387062D01*
X193842038Y58698371D01*
X194086631Y59064431D01*
X194255110Y59471175D01*
X194341000Y59902972D01*
X194341000Y60343228D01*
X194255110Y60775025D01*
X194086631Y61181769D01*
X193842038Y61547829D01*
X193530729Y61859138D01*
X193164669Y62103731D01*
X192757925Y62272210D01*
X192326128Y62358100D01*
X191885872Y62358100D01*
X191454075Y62272210D01*
X191047331Y62103731D01*
X190681271Y61859138D01*
X190369962Y61547829D01*
X190125369Y61181769D01*
X189956890Y60775025D01*
X189871000Y60343228D01*
X187864300Y60343228D01*
X187864300Y65087478D01*
X187867976Y65124801D01*
X187864300Y65162124D01*
X187864300Y65162133D01*
X187853303Y65273786D01*
X187809846Y65417047D01*
X187795654Y65443598D01*
X187739274Y65549077D01*
X187668099Y65635803D01*
X187644301Y65664801D01*
X187615304Y65688598D01*
X187306869Y65997032D01*
X187308936Y66002022D01*
X187371000Y66314036D01*
X187371000Y66632164D01*
X187308936Y66944178D01*
X187187194Y67238089D01*
X187010452Y67502602D01*
X186785502Y67727552D01*
X186762233Y67743100D01*
X186785502Y67758648D01*
X187010452Y67983598D01*
X187187194Y68248111D01*
X187308936Y68542022D01*
X187371000Y68854036D01*
X187371000Y69172164D01*
X187308936Y69484178D01*
X187187194Y69778089D01*
X187010452Y70042602D01*
X186785502Y70267552D01*
X186520989Y70444294D01*
X186227078Y70566036D01*
X185915064Y70628100D01*
X185596936Y70628100D01*
X185284922Y70566036D01*
X184991011Y70444294D01*
X184831000Y70337378D01*
X184831000Y70442164D01*
X184768936Y70754178D01*
X184647194Y71048089D01*
X184470452Y71312602D01*
X184245502Y71537552D01*
X183980989Y71714294D01*
X183838710Y71773228D01*
X189871000Y71773228D01*
X189871000Y71332972D01*
X189956890Y70901175D01*
X190125369Y70494431D01*
X190369962Y70128371D01*
X190681271Y69817062D01*
X191047331Y69572469D01*
X191454075Y69403990D01*
X191885872Y69318100D01*
X192326128Y69318100D01*
X192757925Y69403990D01*
X193164669Y69572469D01*
X193530729Y69817062D01*
X193842038Y70128371D01*
X194086631Y70494431D01*
X194255110Y70901175D01*
X194341000Y71332972D01*
X194341000Y71773228D01*
X194255110Y72205025D01*
X194086631Y72611769D01*
X193842038Y72977829D01*
X193530729Y73289138D01*
X193164669Y73533731D01*
X192757925Y73702210D01*
X192326128Y73788100D01*
X191885872Y73788100D01*
X191454075Y73702210D01*
X191047331Y73533731D01*
X190681271Y73289138D01*
X190369962Y72977829D01*
X190125369Y72611769D01*
X189956890Y72205025D01*
X189871000Y71773228D01*
X183838710Y71773228D01*
X183687078Y71836036D01*
X183375064Y71898100D01*
X183056936Y71898100D01*
X182744922Y71836036D01*
X182451011Y71714294D01*
X182186498Y71537552D01*
X181961548Y71312602D01*
X181784806Y71048089D01*
X181663064Y70754178D01*
X181601000Y70442164D01*
X181601000Y70124036D01*
X181663064Y69812022D01*
X181784806Y69518111D01*
X181961548Y69253598D01*
X182186498Y69028648D01*
X182304820Y68949588D01*
X182274456Y68864250D01*
X183216000Y67922705D01*
X183230142Y67936848D01*
X183409748Y67757242D01*
X183395605Y67743100D01*
X183409748Y67728958D01*
X183230142Y67549352D01*
X183216000Y67563495D01*
X182274456Y66621950D01*
X182304820Y66536612D01*
X182186498Y66457552D01*
X181961548Y66232602D01*
X181784806Y65968089D01*
X181663064Y65674178D01*
X181601000Y65362164D01*
X181601000Y65044036D01*
X181663064Y64732022D01*
X181665131Y64727032D01*
X181389498Y64451399D01*
X181360500Y64427601D01*
X181336702Y64398603D01*
X181336701Y64398602D01*
X181265526Y64311876D01*
X181194954Y64179846D01*
X181175907Y64117054D01*
X181151498Y64036586D01*
X181146420Y63985024D01*
X181136824Y63887600D01*
X179045742Y63887600D01*
X178974990Y64058411D01*
X178812475Y64301632D01*
X178605632Y64508475D01*
X178362411Y64670990D01*
X178092158Y64782932D01*
X177805260Y64840000D01*
X177512740Y64840000D01*
X177225842Y64782932D01*
X176955589Y64670990D01*
X176712368Y64508475D01*
X176505525Y64301632D01*
X176343010Y64058411D01*
X176231068Y63788158D01*
X176174000Y63501260D01*
X176174000Y63208740D01*
X176231068Y62921842D01*
X176343010Y62651589D01*
X176505525Y62408368D01*
X176712368Y62201525D01*
X176886760Y62085000D01*
X176712368Y61968475D01*
X176505525Y61761632D01*
X176343010Y61518411D01*
X176231068Y61248158D01*
X176174000Y60961260D01*
X176174000Y60668740D01*
X176231068Y60381842D01*
X176343010Y60111589D01*
X176505525Y59868368D01*
X176712368Y59661525D01*
X176886760Y59545000D01*
X176712368Y59428475D01*
X176505525Y59221632D01*
X176343010Y58978411D01*
X176231068Y58708158D01*
X176174000Y58421260D01*
X176174000Y58128740D01*
X176231068Y57841842D01*
X176343010Y57571589D01*
X176505525Y57328368D01*
X176712368Y57121525D01*
X176886760Y57005000D01*
X176712368Y56888475D01*
X176505525Y56681632D01*
X176343010Y56438411D01*
X176231068Y56168158D01*
X176174000Y55881260D01*
X176174000Y55588740D01*
X176231068Y55301842D01*
X176343010Y55031589D01*
X176505525Y54788368D01*
X176637380Y54656513D01*
X176564820Y54634502D01*
X176454506Y54575537D01*
X176357815Y54496185D01*
X176278463Y54399494D01*
X176219498Y54289180D01*
X176183188Y54169482D01*
X176170928Y54045000D01*
X173525354Y54045000D01*
X173364255Y54182904D01*
X173144864Y54306093D01*
X172905655Y54384114D01*
X172706182Y54253184D01*
X172706182Y54387107D01*
X172881084Y54404333D01*
X173123307Y54477811D01*
X173346542Y54597132D01*
X173542208Y54757712D01*
X173702788Y54953378D01*
X173822109Y55176613D01*
X173895587Y55418836D01*
X173920397Y55670740D01*
X173895587Y55922644D01*
X173822109Y56164867D01*
X173702788Y56388102D01*
X173542208Y56583768D01*
X173346542Y56744348D01*
X173123307Y56863669D01*
X172881084Y56937147D01*
X172844603Y56940740D01*
X172881084Y56944333D01*
X173123307Y57017811D01*
X173346542Y57137132D01*
X173542208Y57297712D01*
X173702788Y57493378D01*
X173822109Y57716613D01*
X173895587Y57958836D01*
X173920397Y58210740D01*
X173895587Y58462644D01*
X173822109Y58704867D01*
X173702788Y58928102D01*
X173542208Y59123768D01*
X173346542Y59284348D01*
X173123307Y59403669D01*
X172881084Y59477147D01*
X172844603Y59480740D01*
X172881084Y59484333D01*
X173123307Y59557811D01*
X173346542Y59677132D01*
X173542208Y59837712D01*
X173702788Y60033378D01*
X173822109Y60256613D01*
X173895587Y60498836D01*
X173920397Y60750740D01*
X173895587Y61002644D01*
X173822109Y61244867D01*
X173702788Y61468102D01*
X173542208Y61663768D01*
X173346542Y61824348D01*
X173123307Y61943669D01*
X172881084Y62017147D01*
X172844603Y62020740D01*
X172881084Y62024333D01*
X173123307Y62097811D01*
X173346542Y62217132D01*
X173542208Y62377712D01*
X173702788Y62573378D01*
X173822109Y62796613D01*
X173895587Y63038836D01*
X173920397Y63290740D01*
X173895587Y63542644D01*
X173822109Y63784867D01*
X173702788Y64008102D01*
X173542208Y64203768D01*
X173346542Y64364348D01*
X173123307Y64483669D01*
X172928815Y64542668D01*
X173229180Y64542668D01*
X173353662Y64554928D01*
X173473360Y64591238D01*
X173583674Y64650203D01*
X173680365Y64729555D01*
X173759717Y64826246D01*
X173818682Y64936560D01*
X173854992Y65056258D01*
X173867252Y65180740D01*
X173867252Y66480740D01*
X173854992Y66605222D01*
X173818682Y66724920D01*
X173759717Y66835234D01*
X173680365Y66931925D01*
X173583674Y67011277D01*
X173535550Y67037000D01*
X174102000Y67037000D01*
X174126776Y67039440D01*
X174150601Y67046667D01*
X174172557Y67058403D01*
X174191803Y67074197D01*
X174207597Y67093443D01*
X174219333Y67115399D01*
X174226560Y67139224D01*
X174229000Y67164000D01*
X174229000Y67679714D01*
X181594424Y67679714D01*
X181637948Y67364578D01*
X181742116Y67063988D01*
X181832493Y66894904D01*
X182094850Y66801556D01*
X183036395Y67743100D01*
X182094850Y68684644D01*
X181832493Y68591296D01*
X181693603Y68305089D01*
X181613216Y67997286D01*
X181594424Y67679714D01*
X174229000Y67679714D01*
X174229000Y75546000D01*
X174226560Y75570776D01*
X174219333Y75594601D01*
X174207597Y75616557D01*
X174191803Y75635803D01*
X174172557Y75651597D01*
X174150601Y75663333D01*
X174126776Y75670560D01*
X174102000Y75673000D01*
X159116000Y75673000D01*
X159091224Y75670560D01*
X159067399Y75663333D01*
X159045443Y75651597D01*
X159026197Y75635803D01*
X159010403Y75616557D01*
X158998667Y75594601D01*
X158991440Y75570776D01*
X158989000Y75546000D01*
X158989000Y71889827D01*
X158940599Y71948803D01*
X158916801Y71977801D01*
X158887803Y72001599D01*
X158324512Y72564889D01*
X158462788Y72733378D01*
X158582109Y72956613D01*
X158655587Y73198836D01*
X158680397Y73450740D01*
X158655587Y73702644D01*
X158582109Y73944867D01*
X158462788Y74168102D01*
X158302208Y74363768D01*
X158106542Y74524348D01*
X157883307Y74643669D01*
X157641084Y74717147D01*
X157452303Y74735740D01*
X157226057Y74735740D01*
X157037276Y74717147D01*
X156795053Y74643669D01*
X156571818Y74524348D01*
X156376152Y74363768D01*
X156215572Y74168102D01*
X156096251Y73944867D01*
X156022773Y73702644D01*
X155997963Y73450740D01*
X156022773Y73198836D01*
X156096251Y72956613D01*
X156215572Y72733378D01*
X156376152Y72537712D01*
X156571818Y72377132D01*
X156585945Y72369581D01*
X156590197Y72326415D01*
X156627020Y72205025D01*
X156633654Y72183154D01*
X156702564Y72054233D01*
X156571818Y71984348D01*
X156376152Y71823768D01*
X156215572Y71628102D01*
X156096251Y71404867D01*
X156022773Y71162644D01*
X155997963Y70910740D01*
X156022773Y70658836D01*
X156096251Y70416613D01*
X156215572Y70193378D01*
X156353865Y70024868D01*
X152248999Y65920000D01*
X149930853Y65920000D01*
X149973314Y66022510D01*
X150027000Y66292408D01*
X150027000Y66567592D01*
X149973314Y66837490D01*
X149868005Y67091727D01*
X149715120Y67320535D01*
X149520535Y67515120D01*
X149291727Y67668005D01*
X149037490Y67773314D01*
X148767592Y67827000D01*
X148492408Y67827000D01*
X148222510Y67773314D01*
X147968273Y67668005D01*
X147739465Y67515120D01*
X147544880Y67320535D01*
X147391995Y67091727D01*
X147360000Y67014485D01*
X147328005Y67091727D01*
X147175120Y67320535D01*
X146980535Y67515120D01*
X146751727Y67668005D01*
X146497490Y67773314D01*
X146227592Y67827000D01*
X145952408Y67827000D01*
X145682510Y67773314D01*
X145428273Y67668005D01*
X145199465Y67515120D01*
X145004880Y67320535D01*
X144851995Y67091727D01*
X144746686Y66837490D01*
X144693000Y66567592D01*
X132827000Y66567592D01*
X132827000Y73260000D01*
X132824560Y73284776D01*
X132817333Y73308601D01*
X132805597Y73330557D01*
X132789803Y73349803D01*
X132770557Y73365597D01*
X132748601Y73377333D01*
X132724776Y73384560D01*
X132700000Y73387000D01*
X120660000Y73387000D01*
X120660000Y77170883D01*
X121265000Y77170883D01*
X121265000Y76829117D01*
X121331675Y76493919D01*
X121462463Y76178169D01*
X121652337Y75894002D01*
X121894002Y75652337D01*
X122178169Y75462463D01*
X122493919Y75331675D01*
X122829117Y75265000D01*
X123170883Y75265000D01*
X123506081Y75331675D01*
X123821831Y75462463D01*
X124105998Y75652337D01*
X124347663Y75894002D01*
X124537537Y76178169D01*
X124668325Y76493919D01*
X124735000Y76829117D01*
X124735000Y77170883D01*
X195265000Y77170883D01*
X195265000Y76829117D01*
X195331675Y76493919D01*
X195462463Y76178169D01*
X195652337Y75894002D01*
X195894002Y75652337D01*
X196178169Y75462463D01*
X196493919Y75331675D01*
X196829117Y75265000D01*
X197170883Y75265000D01*
X197506081Y75331675D01*
X197821831Y75462463D01*
X198105998Y75652337D01*
X198347663Y75894002D01*
X198537537Y76178169D01*
X198668325Y76493919D01*
X198735000Y76829117D01*
X198735000Y77170883D01*
X198668325Y77506081D01*
X198537537Y77821831D01*
X198347663Y78105998D01*
X198105998Y78347663D01*
X197821831Y78537537D01*
X197506081Y78668325D01*
X197170883Y78735000D01*
X196829117Y78735000D01*
X196493919Y78668325D01*
X196178169Y78537537D01*
X195894002Y78347663D01*
X195652337Y78105998D01*
X195462463Y77821831D01*
X195331675Y77506081D01*
X195265000Y77170883D01*
X124735000Y77170883D01*
X124668325Y77506081D01*
X124537537Y77821831D01*
X124347663Y78105998D01*
X124105998Y78347663D01*
X123821831Y78537537D01*
X123506081Y78668325D01*
X123170883Y78735000D01*
X122829117Y78735000D01*
X122493919Y78668325D01*
X122178169Y78537537D01*
X121894002Y78347663D01*
X121652337Y78105998D01*
X121462463Y77821831D01*
X121331675Y77506081D01*
X121265000Y77170883D01*
X120660000Y77170883D01*
X120660000Y79340000D01*
X199340001Y79340000D01*
X199340000Y74967582D01*
G37*
%TD.AperFunction*%
D33*
X183446748Y49563142D02*
X183432605Y49549000D01*
X183446748Y49534858D01*
X183267142Y49355252D01*
X183253000Y49369395D01*
X183238858Y49355252D01*
X183059253Y49534858D01*
X183073395Y49549000D01*
X183059253Y49563143D01*
X183238858Y49742748D01*
X183253000Y49728605D01*
X183267142Y49742748D01*
X183446748Y49563142D01*
%TA.AperFunction,Conductor*%
D34*
G36*
X183446748Y49563142D02*
G01*
X183432605Y49549000D01*
X183446748Y49534858D01*
X183267142Y49355252D01*
X183253000Y49369395D01*
X183238858Y49355252D01*
X183059253Y49534858D01*
X183073395Y49549000D01*
X183059253Y49563143D01*
X183238858Y49742748D01*
X183253000Y49728605D01*
X183267142Y49742748D01*
X183446748Y49563142D01*
G37*
%TD.AperFunction*%
D33*
X183409748Y62677242D02*
X183395605Y62663100D01*
X184139938Y61918767D01*
X184141000Y61678850D01*
X184299750Y61520100D01*
X185629000Y61520100D01*
X185629000Y61540100D01*
X185883000Y61540100D01*
X185883000Y61520100D01*
X185903000Y61520100D01*
X185903000Y61266100D01*
X185883000Y61266100D01*
X185883000Y59936850D01*
X186041750Y59778100D01*
X186344300Y59776761D01*
X186344301Y52338707D01*
X186264078Y52371936D01*
X185952064Y52434000D01*
X185633936Y52434000D01*
X185321922Y52371936D01*
X185028011Y52250194D01*
X184868000Y52143278D01*
X184868000Y52248064D01*
X184805936Y52560078D01*
X184684194Y52853989D01*
X184507452Y53118502D01*
X184282502Y53343452D01*
X184017989Y53520194D01*
X183724078Y53641936D01*
X183412064Y53704000D01*
X183093936Y53704000D01*
X182781922Y53641936D01*
X182660500Y53591641D01*
X182660500Y60413100D01*
X184137928Y60413100D01*
X184150188Y60288618D01*
X184186498Y60168920D01*
X184245463Y60058606D01*
X184324815Y59961915D01*
X184421506Y59882563D01*
X184531820Y59823598D01*
X184651518Y59787288D01*
X184776000Y59775028D01*
X185470250Y59778100D01*
X185629000Y59936850D01*
X185629000Y61266100D01*
X184299750Y61266100D01*
X184141000Y61107350D01*
X184137928Y60413100D01*
X182660500Y60413100D01*
X182660500Y61139008D01*
X182961814Y61060316D01*
X183279386Y61041524D01*
X183594522Y61085048D01*
X183895112Y61189216D01*
X184064196Y61279593D01*
X184157544Y61541950D01*
X183216000Y62483495D01*
X183201858Y62469352D01*
X183022253Y62648958D01*
X183036395Y62663100D01*
X183022253Y62677243D01*
X183201858Y62856848D01*
X183216000Y62842705D01*
X183230142Y62856848D01*
X183409748Y62677242D01*
%TA.AperFunction,Conductor*%
D34*
G36*
X183409748Y62677242D02*
G01*
X183395605Y62663100D01*
X184139938Y61918767D01*
X184141000Y61678850D01*
X184299750Y61520100D01*
X185629000Y61520100D01*
X185629000Y61540100D01*
X185883000Y61540100D01*
X185883000Y61520100D01*
X185903000Y61520100D01*
X185903000Y61266100D01*
X185883000Y61266100D01*
X185883000Y59936850D01*
X186041750Y59778100D01*
X186344300Y59776761D01*
X186344301Y52338707D01*
X186264078Y52371936D01*
X185952064Y52434000D01*
X185633936Y52434000D01*
X185321922Y52371936D01*
X185028011Y52250194D01*
X184868000Y52143278D01*
X184868000Y52248064D01*
X184805936Y52560078D01*
X184684194Y52853989D01*
X184507452Y53118502D01*
X184282502Y53343452D01*
X184017989Y53520194D01*
X183724078Y53641936D01*
X183412064Y53704000D01*
X183093936Y53704000D01*
X182781922Y53641936D01*
X182660500Y53591641D01*
X182660500Y60413100D01*
X184137928Y60413100D01*
X184150188Y60288618D01*
X184186498Y60168920D01*
X184245463Y60058606D01*
X184324815Y59961915D01*
X184421506Y59882563D01*
X184531820Y59823598D01*
X184651518Y59787288D01*
X184776000Y59775028D01*
X185470250Y59778100D01*
X185629000Y59936850D01*
X185629000Y61266100D01*
X184299750Y61266100D01*
X184141000Y61107350D01*
X184137928Y60413100D01*
X182660500Y60413100D01*
X182660500Y61139008D01*
X182961814Y61060316D01*
X183279386Y61041524D01*
X183594522Y61085048D01*
X183895112Y61189216D01*
X184064196Y61279593D01*
X184157544Y61541950D01*
X183216000Y62483495D01*
X183201858Y62469352D01*
X183022253Y62648958D01*
X183036395Y62663100D01*
X183022253Y62677243D01*
X183201858Y62856848D01*
X183216000Y62842705D01*
X183230142Y62856848D01*
X183409748Y62677242D01*
G37*
%TD.AperFunction*%
D33*
X185949748Y63947243D02*
X185935605Y63933100D01*
X185949748Y63918958D01*
X185770142Y63739352D01*
X185756000Y63753495D01*
X185741858Y63739352D01*
X185562252Y63918958D01*
X185576395Y63933100D01*
X185562252Y63947242D01*
X185741858Y64126848D01*
X185756000Y64112705D01*
X185770142Y64126848D01*
X185949748Y63947243D01*
%TA.AperFunction,Conductor*%
D34*
G36*
X185949748Y63947243D02*
G01*
X185935605Y63933100D01*
X185949748Y63918958D01*
X185770142Y63739352D01*
X185756000Y63753495D01*
X185741858Y63739352D01*
X185562252Y63918958D01*
X185576395Y63933100D01*
X185562252Y63947242D01*
X185741858Y64126848D01*
X185756000Y64112705D01*
X185770142Y64126848D01*
X185949748Y63947243D01*
G37*
%TD.AperFunction*%
D33*
X157466180Y53257740D02*
X157486180Y53257740D01*
X157486180Y53003740D01*
X157466180Y53003740D01*
X157466180Y52008297D01*
X157665655Y51877366D01*
X157904864Y51955387D01*
X158124255Y52078576D01*
X158315398Y52242199D01*
X158470947Y52439968D01*
X158487417Y52472382D01*
X159392901Y51566897D01*
X159416699Y51537899D01*
X159445697Y51514101D01*
X159532423Y51442926D01*
X159653200Y51378369D01*
X159664453Y51372354D01*
X159807714Y51328897D01*
X159919367Y51317900D01*
X159919377Y51317900D01*
X159956700Y51314224D01*
X159994022Y51317900D01*
X161625378Y51317900D01*
X161662700Y51314224D01*
X161700022Y51317900D01*
X161700033Y51317900D01*
X161811686Y51328897D01*
X161954947Y51372354D01*
X162086976Y51442926D01*
X162202701Y51537899D01*
X162226504Y51566902D01*
X162804974Y52145372D01*
X162973419Y52007132D01*
X163196654Y51887811D01*
X163438877Y51814333D01*
X163690780Y51789523D01*
X163942684Y51814333D01*
X164184907Y51887811D01*
X164408142Y52007132D01*
X164603808Y52167712D01*
X164764388Y52363379D01*
X164883709Y52586614D01*
X164957187Y52828837D01*
X164960780Y52865317D01*
X164964373Y52828836D01*
X165037851Y52586613D01*
X165157172Y52363378D01*
X165317753Y52167712D01*
X165513419Y52007132D01*
X165736654Y51887811D01*
X165978877Y51814333D01*
X166230780Y51789523D01*
X166368373Y51803075D01*
X164604003Y50038704D01*
X164574999Y50014901D01*
X164519871Y49947726D01*
X164480026Y49899176D01*
X164409455Y49767147D01*
X164409454Y49767146D01*
X164365997Y49623885D01*
X164355000Y49512232D01*
X164355000Y49512222D01*
X164351324Y49474900D01*
X164355000Y49437577D01*
X164355001Y47386879D01*
X164168368Y47262175D01*
X163961525Y47055332D01*
X163845000Y46880940D01*
X163728475Y47055332D01*
X163521632Y47262175D01*
X163278411Y47424690D01*
X163008158Y47536632D01*
X162721260Y47593700D01*
X162428740Y47593700D01*
X162141842Y47536632D01*
X161871589Y47424690D01*
X161628368Y47262175D01*
X161496513Y47130320D01*
X161474502Y47202880D01*
X161415537Y47313194D01*
X161336185Y47409885D01*
X161239494Y47489237D01*
X161129180Y47548202D01*
X161009482Y47584512D01*
X160885000Y47596772D01*
X160729575Y47596772D01*
X160669974Y47708277D01*
X160598799Y47795003D01*
X160575001Y47824001D01*
X160546003Y47847799D01*
X157072700Y51321101D01*
X157072700Y51916745D01*
X157212180Y52008297D01*
X157212180Y53003740D01*
X157192180Y53003740D01*
X157192180Y53257740D01*
X157212180Y53257740D01*
X157212180Y53277740D01*
X157466180Y53277740D01*
X157466180Y53257740D01*
%TA.AperFunction,Conductor*%
D34*
G36*
X157466180Y53257740D02*
G01*
X157486180Y53257740D01*
X157486180Y53003740D01*
X157466180Y53003740D01*
X157466180Y52008297D01*
X157665655Y51877366D01*
X157904864Y51955387D01*
X158124255Y52078576D01*
X158315398Y52242199D01*
X158470947Y52439968D01*
X158487417Y52472382D01*
X159392901Y51566897D01*
X159416699Y51537899D01*
X159445697Y51514101D01*
X159532423Y51442926D01*
X159653200Y51378369D01*
X159664453Y51372354D01*
X159807714Y51328897D01*
X159919367Y51317900D01*
X159919377Y51317900D01*
X159956700Y51314224D01*
X159994022Y51317900D01*
X161625378Y51317900D01*
X161662700Y51314224D01*
X161700022Y51317900D01*
X161700033Y51317900D01*
X161811686Y51328897D01*
X161954947Y51372354D01*
X162086976Y51442926D01*
X162202701Y51537899D01*
X162226504Y51566902D01*
X162804974Y52145372D01*
X162973419Y52007132D01*
X163196654Y51887811D01*
X163438877Y51814333D01*
X163690780Y51789523D01*
X163942684Y51814333D01*
X164184907Y51887811D01*
X164408142Y52007132D01*
X164603808Y52167712D01*
X164764388Y52363379D01*
X164883709Y52586614D01*
X164957187Y52828837D01*
X164960780Y52865317D01*
X164964373Y52828836D01*
X165037851Y52586613D01*
X165157172Y52363378D01*
X165317753Y52167712D01*
X165513419Y52007132D01*
X165736654Y51887811D01*
X165978877Y51814333D01*
X166230780Y51789523D01*
X166368373Y51803075D01*
X164604003Y50038704D01*
X164574999Y50014901D01*
X164519871Y49947726D01*
X164480026Y49899176D01*
X164409455Y49767147D01*
X164409454Y49767146D01*
X164365997Y49623885D01*
X164355000Y49512232D01*
X164355000Y49512222D01*
X164351324Y49474900D01*
X164355000Y49437577D01*
X164355001Y47386879D01*
X164168368Y47262175D01*
X163961525Y47055332D01*
X163845000Y46880940D01*
X163728475Y47055332D01*
X163521632Y47262175D01*
X163278411Y47424690D01*
X163008158Y47536632D01*
X162721260Y47593700D01*
X162428740Y47593700D01*
X162141842Y47536632D01*
X161871589Y47424690D01*
X161628368Y47262175D01*
X161496513Y47130320D01*
X161474502Y47202880D01*
X161415537Y47313194D01*
X161336185Y47409885D01*
X161239494Y47489237D01*
X161129180Y47548202D01*
X161009482Y47584512D01*
X160885000Y47596772D01*
X160729575Y47596772D01*
X160669974Y47708277D01*
X160598799Y47795003D01*
X160575001Y47824001D01*
X160546003Y47847799D01*
X157072700Y51321101D01*
X157072700Y51916745D01*
X157212180Y52008297D01*
X157212180Y53003740D01*
X157192180Y53003740D01*
X157192180Y53257740D01*
X157212180Y53257740D01*
X157212180Y53277740D01*
X157466180Y53277740D01*
X157466180Y53257740D01*
G37*
%TD.AperFunction*%
D33*
X161295240Y53003740D02*
X161275240Y53003740D01*
X161275240Y52983740D01*
X161021240Y52983740D01*
X161021240Y53003740D01*
X161001240Y53003740D01*
X161001240Y53208500D01*
X161295240Y53208500D01*
X161295240Y53003740D01*
%TA.AperFunction,Conductor*%
D34*
G36*
X161295240Y53003740D02*
G01*
X161275240Y53003740D01*
X161275240Y52983740D01*
X161021240Y52983740D01*
X161021240Y53003740D01*
X161001240Y53003740D01*
X161001240Y53208500D01*
X161295240Y53208500D01*
X161295240Y53003740D01*
G37*
%TD.AperFunction*%
%TD*%
M02*
