%TF.GenerationSoftware,KiCad,Pcbnew,5.1.10-88a1d61d58~90~ubuntu21.04.1*%
%TF.CreationDate,2021-10-05T18:42:24+09:00*%
%TF.ProjectId,syncricket,73796e63-7269-4636-9b65-742e6b696361,rev?*%
%TF.SameCoordinates,Original*%
%TF.FileFunction,Soldermask,Bot*%
%TF.FilePolarity,Negative*%
%FSLAX46Y46*%
G04 Gerber Fmt 4.6, Leading zero omitted, Abs format (unit mm)*
G04 Created by KiCad (PCBNEW 5.1.10-88a1d61d58~90~ubuntu21.04.1) date 2021-10-05 18:42:24*
%MOMM*%
%LPD*%
G01*
G04 APERTURE LIST*
%ADD10O,1.000000X2.000000*%
%ADD11O,1.300000X0.800000*%
%ADD12C,0.100000*%
%ADD13C,2.200000*%
%ADD14O,2.000000X2.000000*%
%ADD15R,2.000000X2.000000*%
%ADD16O,1.400000X1.400000*%
%ADD17C,1.400000*%
%ADD18O,1.700000X1.700000*%
%ADD19R,1.700000X1.700000*%
%ADD20C,1.600000*%
%ADD21R,1.960000X1.960000*%
%ADD22C,1.960000*%
%ADD23C,3.200000*%
%ADD24R,1.524000X1.524000*%
%ADD25C,1.524000*%
%ADD26R,1.300000X1.300000*%
%ADD27O,1.400000X1.300000*%
%ADD28R,1.400000X1.300000*%
%ADD29C,2.000000*%
%ADD30C,4.000000*%
%ADD31O,1.300000X1.400000*%
%ADD32R,1.600000X1.600000*%
%ADD33O,1.600000X1.600000*%
G04 APERTURE END LIST*
D10*
%TO.C,J4*%
X138890000Y27828500D03*
X130250000Y27828500D03*
X138890000Y31628500D03*
X130250000Y31628500D03*
%TD*%
D11*
%TO.C,J6*%
X125191760Y33102280D03*
G36*
G01*
X124741760Y34752280D02*
X125641760Y34752280D01*
G75*
G02*
X125841760Y34552280I0J-200000D01*
G01*
X125841760Y34152280D01*
G75*
G02*
X125641760Y33952280I-200000J0D01*
G01*
X124741760Y33952280D01*
G75*
G02*
X124541760Y34152280I0J200000D01*
G01*
X124541760Y34552280D01*
G75*
G02*
X124741760Y34752280I200000J0D01*
G01*
G37*
%TD*%
D12*
%TO.C,JP3*%
G36*
X135742920Y42056002D02*
G01*
X135718386Y42056002D01*
X135669555Y42060812D01*
X135621430Y42070384D01*
X135574475Y42084628D01*
X135529142Y42103405D01*
X135485869Y42126536D01*
X135445070Y42153796D01*
X135407141Y42184924D01*
X135372444Y42219621D01*
X135341316Y42257550D01*
X135314056Y42298349D01*
X135290925Y42341622D01*
X135272148Y42386955D01*
X135257904Y42433910D01*
X135248332Y42482035D01*
X135243522Y42530866D01*
X135243522Y42555400D01*
X135242920Y42555400D01*
X135242920Y43055400D01*
X135243522Y43055400D01*
X135243522Y43079934D01*
X135248332Y43128765D01*
X135257904Y43176890D01*
X135272148Y43223845D01*
X135290925Y43269178D01*
X135314056Y43312451D01*
X135341316Y43353250D01*
X135372444Y43391179D01*
X135407141Y43425876D01*
X135445070Y43457004D01*
X135485869Y43484264D01*
X135529142Y43507395D01*
X135574475Y43526172D01*
X135621430Y43540416D01*
X135669555Y43549988D01*
X135718386Y43554798D01*
X135742920Y43554798D01*
X135742920Y43555400D01*
X136242920Y43555400D01*
X136242920Y42055400D01*
X135742920Y42055400D01*
X135742920Y42056002D01*
G37*
G36*
X136542920Y43555400D02*
G01*
X137042920Y43555400D01*
X137042920Y43554798D01*
X137067454Y43554798D01*
X137116285Y43549988D01*
X137164410Y43540416D01*
X137211365Y43526172D01*
X137256698Y43507395D01*
X137299971Y43484264D01*
X137340770Y43457004D01*
X137378699Y43425876D01*
X137413396Y43391179D01*
X137444524Y43353250D01*
X137471784Y43312451D01*
X137494915Y43269178D01*
X137513692Y43223845D01*
X137527936Y43176890D01*
X137537508Y43128765D01*
X137542318Y43079934D01*
X137542318Y43055400D01*
X137542920Y43055400D01*
X137542920Y42555400D01*
X137542318Y42555400D01*
X137542318Y42530866D01*
X137537508Y42482035D01*
X137527936Y42433910D01*
X137513692Y42386955D01*
X137494915Y42341622D01*
X137471784Y42298349D01*
X137444524Y42257550D01*
X137413396Y42219621D01*
X137378699Y42184924D01*
X137340770Y42153796D01*
X137299971Y42126536D01*
X137256698Y42103405D01*
X137211365Y42084628D01*
X137164410Y42070384D01*
X137116285Y42060812D01*
X137067454Y42056002D01*
X137042920Y42056002D01*
X137042920Y42055400D01*
X136542920Y42055400D01*
X136542920Y43555400D01*
G37*
%TD*%
D13*
%TO.C,REF\u002A\u002A*%
X123000000Y77000000D03*
%TD*%
%TO.C,REF\u002A\u002A*%
X123000000Y28000000D03*
%TD*%
%TO.C,REF\u002A\u002A*%
X197000000Y28000000D03*
%TD*%
%TO.C,REF\u002A\u002A*%
X197000000Y77000000D03*
%TD*%
D14*
%TO.C,D1*%
X187036000Y27534900D03*
D15*
X192116000Y27534900D03*
%TD*%
D16*
%TO.C,R9*%
X187164000Y34196500D03*
D17*
X182084000Y34196500D03*
%TD*%
D18*
%TO.C,JP2*%
X165115000Y46108700D03*
X162575000Y46108700D03*
D19*
X160035000Y46108700D03*
%TD*%
D20*
%TO.C,C8*%
X187100000Y37101800D03*
X182100000Y37101800D03*
%TD*%
D21*
%TO.C,J1*%
X185793000Y43199000D03*
D22*
X183253000Y44469000D03*
X185793000Y45739000D03*
X183253000Y47009000D03*
X185793000Y48279000D03*
X183253000Y49549000D03*
X185793000Y50819000D03*
X183253000Y52089000D03*
D23*
X192143000Y41929000D03*
X192143000Y53359000D03*
%TD*%
%TO.C,J2*%
X192106000Y71553100D03*
X192106000Y60123100D03*
D22*
X183216000Y70283100D03*
X185756000Y69013100D03*
X183216000Y67743100D03*
X185756000Y66473100D03*
X183216000Y65203100D03*
X185756000Y63933100D03*
X183216000Y62663100D03*
D21*
X185756000Y61393100D03*
%TD*%
D19*
%TO.C,J3*%
X177659000Y53195000D03*
D18*
X177659000Y55735000D03*
X177659000Y58275000D03*
X177659000Y60815000D03*
X177659000Y63355000D03*
%TD*%
D17*
%TO.C,R2*%
X154798000Y46082000D03*
D16*
X149718000Y46082000D03*
%TD*%
D24*
%TO.C,U1*%
X148630000Y58810000D03*
D25*
X146090000Y58810000D03*
X148630000Y61350000D03*
X146090000Y61350000D03*
X148630000Y63890000D03*
X146090000Y63890000D03*
X148630000Y66430000D03*
X146090000Y66430000D03*
%TD*%
D26*
%TO.C,U3*%
X172579180Y65830740D03*
D27*
X157339180Y73450740D03*
X172579180Y63290740D03*
X172579180Y60750740D03*
X172579180Y58210740D03*
X172579180Y55670740D03*
X172579180Y53130740D03*
X157339180Y53130740D03*
D28*
X157339180Y55670740D03*
D27*
X157339180Y58210740D03*
X157339180Y60750740D03*
X157339180Y63290740D03*
X157339180Y65830740D03*
X157339180Y68370740D03*
X157339180Y70910740D03*
D29*
X164959180Y59290740D03*
D30*
X164959180Y59290740D03*
D31*
X161148240Y53130740D03*
X163690780Y53130740D03*
X166230780Y53130740D03*
X168770780Y53130740D03*
%TD*%
D32*
%TO.C,U4*%
X146051000Y32541800D03*
D33*
X153671000Y40161800D03*
X148591000Y32541800D03*
X151131000Y40161800D03*
X151131000Y32541800D03*
X148591000Y40161800D03*
X153671000Y32541800D03*
X146051000Y40161800D03*
%TD*%
D19*
%TO.C,J5*%
X150956000Y28151500D03*
D18*
X148416000Y28151500D03*
%TD*%
M02*
